<svg xmlns="http://www.w3.org/2000/svg" xmlns:svg="http://www.w3.org/2000/svg" id="svg2" width="382.789" height="202.966" version="1.1"><defs id="defs4"><marker id="Arrow2Mstart" orient="auto" refX="0" refY="0" style="overflow:visible"><path id="path4867" d="M 8.7185878,4.0337352 -2.2072895,0.01601326 8.7185884,-4.0017078 c -1.7454984,2.3720609 -1.7354408,5.6174519 -6e-7,8.035443 z" transform="scale(0.6,0.6)" style="font-size:12px;fill-rule:evenodd;stroke-width:.625;stroke-linejoin:round"/></marker><marker id="Arrow2Mend" orient="auto" refX="0" refY="0" style="overflow:visible"><path id="path4870" d="M 8.7185878,4.0337352 -2.2072895,0.01601326 8.7185884,-4.0017078 c -1.7454984,2.3720609 -1.7354408,5.6174519 -6e-7,8.035443 z" transform="scale(-0.6,-0.6)" style="font-size:12px;fill-rule:evenodd;stroke-width:.625;stroke-linejoin:round"/></marker><marker id="Arrow1Send" orient="auto" refX="0" refY="0" style="overflow:visible"><path id="path4858" d="M 0,0 5,-5 -12.5,0 5,5 0,0 z" transform="matrix(-0.2,0,0,-0.2,-1.2,0)" style="fill-rule:evenodd;stroke:#000;stroke-width:1pt;marker-start:none"/></marker><marker id="Arrow1Lstart" orient="auto" refX="0" refY="0" style="overflow:visible"><path id="path3946" d="M 0,0 5,-5 -12.5,0 5,5 0,0 z" transform="matrix(0.8,0,0,0.8,10,0)" style="fill-rule:evenodd;stroke:#000;stroke-width:1pt;marker-start:none"/></marker><marker id="Arrow1Lend" orient="auto" refX="0" refY="0" style="overflow:visible"><path id="path3949" d="M 0,0 5,-5 -12.5,0 5,5 0,0 z" transform="matrix(-0.8,0,0,-0.8,-10,0)" style="fill-rule:evenodd;stroke:#000;stroke-width:1pt;marker-start:none"/></marker><marker id="Arrow1Lend-6" orient="auto" refX="0" refY="0" style="overflow:visible"><path id="path3949-6" d="M 0,0 5,-5 -12.5,0 5,5 0,0 z" transform="matrix(-0.8,0,0,-0.8,-10,0)" style="fill-rule:evenodd;stroke:#000;stroke-width:1pt;marker-start:none"/></marker><marker id="Arrow1Lend-1" orient="auto" refX="0" refY="0" style="overflow:visible"><path id="path3949-1" d="M 0,0 5,-5 -12.5,0 5,5 0,0 z" transform="matrix(-0.8,0,0,-0.8,-10,0)" style="fill-rule:evenodd;stroke:#000;stroke-width:1pt;marker-start:none"/></marker><marker id="Arrow1Lend-9" orient="auto" refX="0" refY="0" style="overflow:visible"><path id="path3949-69" d="M 0,0 5,-5 -12.5,0 5,5 0,0 z" transform="matrix(-0.8,0,0,-0.8,-10,0)" style="fill-rule:evenodd;stroke:#000;stroke-width:1pt;marker-start:none"/></marker><marker id="Arrow1Lend-5" orient="auto" refX="0" refY="0" style="overflow:visible"><path id="path3949-4" d="M 0,0 5,-5 -12.5,0 5,5 0,0 z" transform="matrix(-0.8,0,0,-0.8,-10,0)" style="fill-rule:evenodd;stroke:#000;stroke-width:1pt;marker-start:none"/></marker><marker id="Arrow1Lend-52" orient="auto" refX="0" refY="0" style="overflow:visible"><path id="path3949-44" d="M 0,0 5,-5 -12.5,0 5,5 0,0 z" transform="matrix(-0.8,0,0,-0.8,-10,0)" style="fill-rule:evenodd;stroke:#000;stroke-width:1pt;marker-start:none"/></marker><marker id="Arrow1Lend-0" orient="auto" refX="0" refY="0" style="overflow:visible"><path id="path3949-7" d="M 0,0 5,-5 -12.5,0 5,5 0,0 z" transform="matrix(-0.8,0,0,-0.8,-10,0)" style="fill-rule:evenodd;stroke:#000;stroke-width:1pt;marker-start:none"/></marker><marker id="Arrow1Lend-0-8" orient="auto" refX="0" refY="0" style="overflow:visible"><path id="path3949-7-3" d="M 0,0 5,-5 -12.5,0 5,5 0,0 z" transform="matrix(-0.8,0,0,-0.8,-10,0)" style="fill-rule:evenodd;stroke:#000;stroke-width:1pt;marker-start:none"/></marker><marker id="Arrow1Lend-0-9" orient="auto" refX="0" refY="0" style="overflow:visible"><path id="path3949-7-9" d="M 0,0 5,-5 -12.5,0 5,5 0,0 z" transform="matrix(-0.8,0,0,-0.8,-10,0)" style="fill-rule:evenodd;stroke:#000;stroke-width:1pt;marker-start:none"/></marker><marker id="Arrow1Lend-0-9-9" orient="auto" refX="0" refY="0" style="overflow:visible"><path id="path3949-7-9-5" d="M 0,0 5,-5 -12.5,0 5,5 0,0 z" transform="matrix(-0.8,0,0,-0.8,-10,0)" style="fill-rule:evenodd;stroke:#000;stroke-width:1pt;marker-start:none"/></marker><marker id="Arrow1Lend-0-9-1" orient="auto" refX="0" refY="0" style="overflow:visible"><path id="path3949-7-9-1" d="M 0,0 5,-5 -12.5,0 5,5 0,0 z" transform="matrix(-0.8,0,0,-0.8,-10,0)" style="fill-rule:evenodd;stroke:#000;stroke-width:1pt;marker-start:none"/></marker><marker id="Arrow1Lend-0-5" orient="auto" refX="0" refY="0" style="overflow:visible"><path id="path3949-7-5" d="M 0,0 5,-5 -12.5,0 5,5 0,0 z" transform="matrix(-0.8,0,0,-0.8,-10,0)" style="fill-rule:evenodd;stroke:#000;stroke-width:1pt;marker-start:none"/></marker><marker id="Arrow1Lend-0-6" orient="auto" refX="0" refY="0" style="overflow:visible"><path id="path3949-7-7" d="M 0,0 5,-5 -12.5,0 5,5 0,0 z" transform="matrix(-0.8,0,0,-0.8,-10,0)" style="fill-rule:evenodd;stroke:#000;stroke-width:1pt;marker-start:none"/></marker><marker id="Arrow1Lend-0-0" orient="auto" refX="0" refY="0" style="overflow:visible"><path id="path3949-7-39" d="M 0,0 5,-5 -12.5,0 5,5 0,0 z" transform="matrix(-0.8,0,0,-0.8,-10,0)" style="fill-rule:evenodd;stroke:#000;stroke-width:1pt;marker-start:none"/></marker><marker id="Arrow1Lend-0-9-3" orient="auto" refX="0" refY="0" style="overflow:visible"><path id="path3949-7-9-6" d="M 0,0 5,-5 -12.5,0 5,5 0,0 z" transform="matrix(-0.8,0,0,-0.8,-10,0)" style="fill-rule:evenodd;stroke:#000;stroke-width:1pt;marker-start:none"/></marker><marker id="Arrow1Lend-50" orient="auto" refX="0" refY="0" style="overflow:visible"><path id="path3949-64" d="M 0,0 5,-5 -12.5,0 5,5 0,0 z" transform="matrix(-0.8,0,0,-0.8,-10,0)" style="fill-rule:evenodd;stroke:#000;stroke-width:1pt;marker-start:none"/></marker><marker id="Arrow1Lend-4" orient="auto" refX="0" refY="0" style="overflow:visible"><path id="path3949-3" d="M 0,0 5,-5 -12.5,0 5,5 0,0 z" transform="matrix(-0.8,0,0,-0.8,-10,0)" style="fill-rule:evenodd;stroke:#000;stroke-width:1pt;marker-start:none"/></marker><marker id="Arrow1Lend-4-0" orient="auto" refX="0" refY="0" style="overflow:visible"><path id="path3949-3-4" d="M 0,0 5,-5 -12.5,0 5,5 0,0 z" transform="matrix(-0.8,0,0,-0.8,-10,0)" style="fill-rule:evenodd;stroke:#000;stroke-width:1pt;marker-start:none"/></marker><marker id="Arrow1Lend-14" orient="auto" refX="0" refY="0" style="overflow:visible"><path id="path3949-447" d="M 0,0 5,-5 -12.5,0 5,5 0,0 z" transform="matrix(-0.8,0,0,-0.8,-10,0)" style="fill-rule:evenodd;stroke:#000;stroke-width:1pt;marker-start:none"/></marker><marker id="Arrow1Lend-0-2" orient="auto" refX="0" refY="0" style="overflow:visible"><path id="path3949-7-58" d="M 0,0 5,-5 -12.5,0 5,5 0,0 z" transform="matrix(-0.8,0,0,-0.8,-10,0)" style="fill-rule:evenodd;stroke:#000;stroke-width:1pt;marker-start:none"/></marker></defs><metadata id="metadata7"/><g id="layer1" transform="translate(-47.418246,-76.438428)"><text style="font-size:6.46660471px;font-style:normal;font-weight:400;fill:#000;fill-opacity:1;stroke:none;font-family:Bitstream Vera Sans" id="text2816" x="46.784" y="95.489" xml:space="preserve"><tspan id="tspan2818" x="46.784" y="95.489">Key event</tspan></text><text style="font-size:6.46660471px;font-style:normal;font-weight:400;fill:#000;fill-opacity:1;stroke:none;font-family:Bitstream Vera Sans" id="text2820" x="46.784" y="127.36" xml:space="preserve"><tspan id="tspan2822" x="46.784" y="127.36">Key event</tspan></text><text style="font-size:6.46660471px;font-style:normal;font-weight:400;fill:#000;fill-opacity:1;stroke:none;font-family:Bitstream Vera Sans" id="text2830" x="145.809" y="81.978" xml:space="preserve"><tspan id="tspan2832" x="145.809" y="81.978">Xib API</tspan></text><text style="font-size:6.46660471px;font-style:normal;font-weight:400;fill:#000;fill-opacity:1;stroke:none;font-family:Bitstream Vera Sans" id="text2834" x="235.207" y="81.352" xml:space="preserve"><tspan id="tspan2836" x="235.207" y="81.352">IM library</tspan></text><text style="font-size:6.46660471px;font-style:normal;font-weight:400;fill:#000;fill-opacity:1;stroke:none;font-family:Bitstream Vera Sans" id="text2838" x="133.491" y="93.733" xml:space="preserve"><tspan id="tspan2840" x="133.491" y="93.733">XNextEvent</tspan></text><text style="font-size:6.46660471px;font-style:normal;font-weight:400;fill:#000;fill-opacity:1;stroke:none;font-family:Bitstream Vera Sans" id="text2842" x="133.491" y="101.956" xml:space="preserve"><tspan id="tspan2844" x="133.491" y="101.956">XFilterEvent</tspan></text><text style="font-size:6.46660471px;font-style:normal;font-weight:400;fill:#000;fill-opacity:1;stroke:none;font-family:Bitstream Vera Sans" id="text2846" x="133.491" y="127.987" xml:space="preserve"><tspan id="tspan2848" x="133.491" y="127.987">XNextEvent</tspan></text><text style="font-size:6.46660471px;font-style:normal;font-weight:400;fill:#000;fill-opacity:1;stroke:none;font-family:Bitstream Vera Sans" id="text2850" x="133.491" y="135.059" xml:space="preserve"><tspan id="tspan2852" x="133.491" y="135.059">XFilterEvent</tspan></text><text style="font-size:6.46660471px;font-style:normal;font-weight:400;fill:#000;fill-opacity:1;stroke:none;font-family:Bitstream Vera Sans" id="text2854" x="133.491" y="162.352" xml:space="preserve"><tspan id="tspan2856" x="133.491" y="162.352">XNextEvent</tspan></text><text style="font-size:6.46660471px;font-style:normal;font-weight:400;fill:#000;fill-opacity:1;stroke:none;font-family:Bitstream Vera Sans" id="text2858" x="133.491" y="170.358" xml:space="preserve"><tspan id="tspan2860" x="133.491" y="170.358">XFilterEvent(returns False)</tspan></text><text style="font-size:6.46660471px;font-style:normal;font-weight:400;fill:#000;fill-opacity:1;stroke:none;font-family:Bitstream Vera Sans" id="text2862" x="133.491" y="179.288" xml:space="preserve"><tspan id="tspan2864" x="133.491" y="179.288">XmbLookupString</tspan></text><text style="font-size:6.46660471px;font-style:normal;font-weight:400;fill:#000;fill-opacity:1;stroke:none;font-family:Bitstream Vera Sans" id="text2899" x="272.318" y="101.963" xml:space="preserve"><tspan id="tspan2901" x="272.318" y="101.963">XIM_FORWARD_EVENT</tspan></text><text style="font-size:6.46660471px;font-style:normal;font-weight:400;fill:#000;fill-opacity:1;stroke:none;font-family:Bitstream Vera Sans" id="text2903" x="272.318" y="123.193" xml:space="preserve"><tspan id="tspan2905" x="272.318" y="123.193">XIM_FORWARD_EVENT</tspan><tspan id="tspan2907" x="272.318" y="131.276">or XIM_COMMIT</tspan><tspan id="tspan2909" x="272.318" y="139.359">(synchronous)</tspan></text><text style="font-size:6.46660471px;font-style:normal;font-weight:400;fill:#000;fill-opacity:1;stroke:none;font-family:Bitstream Vera Sans" id="text2911" x="272.318" y="160.72" xml:space="preserve"><tspan id="tspan2913" x="272.318" y="160.72">XIM_FORWARD_EVENT</tspan></text><text style="font-size:6.46660471px;font-style:normal;font-weight:400;fill:#000;fill-opacity:1;stroke:none;font-family:Bitstream Vera Sans" id="text2915" x="292.599" y="199.995" xml:space="preserve"><tspan id="tspan2917" x="292.599" y="199.995">XIM_SYNC</tspan></text><text style="font-size:6.46660471px;font-style:normal;font-weight:400;fill:#000;fill-opacity:1;stroke:none;font-family:Bitstream Vera Sans" id="text2919" x="281.206" y="211.769" xml:space="preserve"><tspan id="tspan2921" x="281.206" y="211.769">XIM_SYNC_REPLY</tspan></text><text style="font-size:6.46660471px;font-style:normal;font-weight:400;fill:#000;fill-opacity:1;stroke:none;font-family:Bitstream Vera Sans" id="text2933" x="277.697" y="228.37" xml:space="preserve"><tspan id="tspan2935" x="277.697" y="228.37">XIM_SET_IC_FOCUS</tspan></text><text style="font-size:6.46660471px;font-style:normal;font-weight:400;fill:#000;fill-opacity:1;stroke:none;font-family:Bitstream Vera Sans" id="text2937" x="272.318" y="244.285" xml:space="preserve"><tspan id="tspan2939" x="272.318" y="244.285">XIM_SYNC_REPLY as</tspan><tspan id="tspan2941" x="272.318" y="252.369">a reply of the </tspan><tspan id="tspan2943" x="272.318" y="260.452">XIM_FORWARD_EVENT</tspan></text><text style="font-size:6.46660471px;font-style:normal;font-weight:400;fill:#000;fill-opacity:1;stroke:none;font-family:Bitstream Vera Sans" id="text2953" x="347.379" y="81.921" xml:space="preserve"><tspan id="tspan2955" x="347.379" y="81.921">IM Server</tspan></text><text style="font-size:6.46660471px;font-style:normal;font-weight:400;fill:#000;fill-opacity:1;stroke:none;font-family:Bitstream Vera Sans" id="text2957" x="358.277" y="119.926" xml:space="preserve"><tspan id="tspan2959" x="358.277" y="119.926">synchronous</tspan><tspan id="tspan2961" x="358.277" y="128.01">request</tspan></text><text style="font-size:6.46660471px;font-style:normal;font-weight:400;fill:#000;fill-opacity:1;stroke:none;font-family:Bitstream Vera Sans" id="text2967" x="358.071" y="210.28" xml:space="preserve"><tspan id="tspan2969" x="358.071" y="210.28">processed</tspan><tspan id="tspan2971" x="358.071" y="218.363">(The focused</tspan><tspan id="tspan2973" x="358.071" y="226.447">IC is changed)</tspan></text><text style="font-size:6.46660471px;font-style:normal;font-weight:400;fill:#000;fill-opacity:1;stroke:none;font-family:Bitstream Vera Sans" id="text2975" x="358.04" y="238.108" xml:space="preserve"><tspan id="tspan2977" x="358.04" y="238.108">processed</tspan></text><text style="font-size:6.46660471px;font-style:normal;font-weight:400;fill:#000;fill-opacity:1;stroke:none;font-family:Bitstream Vera Sans" id="text2979" x="358.04" y="268.334" xml:space="preserve"><tspan id="tspan2981" x="358.04" y="268.334">processed</tspan></text><path style="fill:none;stroke:#000;stroke-width:.53888369px;stroke-linecap:butt;stroke-linejoin:miter;stroke-opacity:1;marker-end:url(#Arrow1Lend);display:inline" id="path2987" d="m 264.36299,105.03516 79.29289,9.23801"/><path style="fill:none;stroke:#000;stroke-width:.53888369px;stroke-linecap:butt;stroke-linejoin:miter;stroke-opacity:1;marker-end:url(#Arrow1Lend);display:inline" id="path2987-1" d="m 268.13518,142.12302 79.29289,9.23801"/><text style="font-size:6.46660471px;font-style:normal;font-weight:400;fill:#000;fill-opacity:1;stroke:none;font-family:Bitstream Vera Sans" id="text2866-5" x="133.491" y="204.281" xml:space="preserve"><tspan id="tspan2868-5" x="133.491" y="204.281">XSetICFocus</tspan></text><text style="font-size:6.46660471px;font-style:normal;font-weight:400;fill:#000;fill-opacity:1;stroke:none;font-family:Bitstream Vera Sans" id="text2846-4" x="133.491" y="245.5" xml:space="preserve"><tspan id="tspan2848-7" x="133.491" y="245.5">XNextEvent</tspan></text><path style="fill:none;stroke:#000;stroke-width:.53888369px;stroke-linecap:butt;stroke-linejoin:miter;stroke-opacity:1;marker-end:url(#Arrow1Lend-0);display:inline" id="path5048" d="M 81.199995,92.94869 124.20402,92.404331"/><path style="fill:none;stroke:#000;stroke-width:.53888369px;stroke-linecap:butt;stroke-linejoin:miter;stroke-opacity:1;marker-end:url(#Arrow1Lend-0);display:inline" id="path5048-6" d="m 83.759014,126.12468 43.004026,-0.54436"/><path style="fill:none;stroke:#000;stroke-width:.53888369px;stroke-linecap:butt;stroke-linejoin:miter;stroke-opacity:1;marker-end:url(#Arrow1Lend-0-9);display:inline" id="path5302" d="m 174.28465,99.364052 87.64112,4.899188"/><path style="fill:none;stroke:#000;stroke-width:.53888369px;stroke-linecap:butt;stroke-linejoin:miter;stroke-opacity:1;marker-end:url(#Arrow1Lend-0-9)" id="path5302-2" d="m 173.9906,134.66938 87.64111,6.53226"/><text style="font-size:6.46660471px;font-style:normal;font-weight:400;fill:#000;fill-opacity:1;stroke:none;font-family:Bitstream Vera Sans" id="text5618" x="48.236" y="192.341" xml:space="preserve"><tspan id="tspan5620" x="48.236" y="192.341">Application moves</tspan><tspan id="tspan5622" x="48.236" y="200.424">the focus</tspan></text><path style="fill:none;stroke:#000;stroke-width:.58549535px;stroke-linecap:butt;stroke-linejoin:miter;stroke-opacity:1;marker-end:url(#Arrow1Lend-4)" id="path6164-3" d="m 402.38807,157.92589 c 61.85166,62.00083 0.1653,103.10771 0,103.2156 l -3.85389,2.11508"/><text style="font-size:6.46660471px;font-style:normal;font-weight:400;fill:#000;fill-opacity:1;stroke:none;font-family:Bitstream Vera Sans" id="text6848" x="360.998" y="155.029" xml:space="preserve"><tspan id="tspan6850" x="360.998" y="155.029">Pending</tspan></text><path style="fill:none;stroke:#000;stroke-width:1px;stroke-linecap:butt;stroke-linejoin:miter;stroke-opacity:1;marker-end:url(#Arrow2Mend);display:inline" id="path4838" d="m 295.71429,348.34463 -72.85715,25" transform="translate(47.418246,-223.55662)"/><path style="fill:none;stroke:#000;stroke-width:1px;stroke-linecap:butt;stroke-linejoin:miter;stroke-opacity:1;marker-end:url(#Arrow2Mend);display:inline" id="path6508" d="m 212.14286,376.91606 -80.71429,5" transform="translate(47.418246,-223.55662)"/><path style="fill:none;stroke:#000;stroke-width:1px;stroke-linecap:butt;stroke-linejoin:miter;stroke-opacity:1;marker-end:url(#Arrow2Mend)" id="path6746" d="M 218.57143,426.20177 300,424.7732" transform="translate(47.418246,-223.55662)"/><path style="fill:none;stroke:#000;stroke-width:1px;stroke-linecap:butt;stroke-linejoin:miter;stroke-opacity:1;marker-start:none;marker-end:url(#Arrow2Mend)" id="path6748" d="M 299.28571,439.05892 220,438.34463" transform="translate(47.418246,-223.55662)"/><path style="fill:none;stroke:#000;stroke-width:1px;stroke-linecap:butt;stroke-linejoin:miter;stroke-opacity:1;marker-end:url(#Arrow2Mend)" id="path6750" d="m 220,451.91606 77.85714,9.28571" transform="translate(47.418246,-223.55662)"/><path style="fill:none;stroke:#000;stroke-width:1px;stroke-linecap:butt;stroke-linejoin:miter;stroke-opacity:1;marker-end:url(#Arrow2Mend)" id="path6752" d="m 220,485.48749 80.71429,7.14285" transform="translate(47.418246,-223.55662)"/><path style="fill:none;stroke:#000;stroke-width:1px;stroke-linecap:butt;stroke-linejoin:miter;stroke-opacity:1;marker-end:url(#Arrow2Mend)" id="path6754" d="m 140.71429,426.20177 71.42857,-2.14285" transform="translate(47.418246,-223.55662)"/><path style="fill:none;stroke:#000;stroke-width:1px;stroke-linecap:butt;stroke-linejoin:miter;stroke-opacity:1;marker-end:url(#Arrow2Mend)" id="path6758" d="m 78.571429,400.48749 -41.428572,1.42857" transform="translate(47.418246,-223.55662)"/><path style="fill:none;stroke:#000;stroke-width:1px;stroke-linecap:butt;stroke-linejoin:miter;stroke-opacity:1;marker-end:url(#Arrow2Mend)" id="path8600" d="m 136.42857,466.20177 75.71429,16.42857" transform="translate(47.418246,-223.55662)"/><path style="fill:none;stroke:#000;stroke-width:1px;stroke-linecap:butt;stroke-linejoin:miter;stroke-opacity:1" id="path3426" d="m 216.73325,9.5118041 c 0.67941,192.9537359 0.67941,192.9537359 0.67941,192.9537359 l 0,0 0,0" transform="translate(47.418246,76.438428)"/><path style="fill:none;stroke:#000;stroke-width:1px;stroke-linecap:butt;stroke-linejoin:miter;stroke-opacity:1" id="path3426-4" d="m 350.47303,85.950232 c 0.67941,192.953738 0.67941,192.953738 0.67941,192.953738 l 0,0 0,0"/></g></svg>