<svg xmlns="http://www.w3.org/2000/svg" xmlns:svg="http://www.w3.org/2000/svg" id="svg4341" width="502.634" height="290.443" version="1.1"><defs id="defs4343"><marker id="Arrow1Lend" orient="auto" refX="0" refY="0" style="overflow:visible"><path id="path3695" d="M 0,0 5,-5 -12.5,0 5,5 0,0 z" transform="matrix(-0.8,0,0,-0.8,-10,0)" style="fill-rule:evenodd;stroke:#000;stroke-width:1pt;marker-start:none"/></marker><marker id="marker4278" orient="auto" refX="0" refY="0" style="overflow:visible"><path id="path4280" d="M 0,0 5,-5 -12.5,0 5,5 0,0 z" transform="matrix(-0.8,0,0,-0.8,-10,0)" style="fill-rule:evenodd;stroke:#000;stroke-width:1pt;marker-start:none"/></marker><marker id="marker4282" orient="auto" refX="0" refY="0" style="overflow:visible"><path id="path4284" d="M 0,0 5,-5 -12.5,0 5,5 0,0 z" transform="matrix(-0.8,0,0,-0.8,-10,0)" style="fill-rule:evenodd;stroke:#000;stroke-width:1pt;marker-start:none"/></marker><marker id="marker4286" orient="auto" refX="0" refY="0" style="overflow:visible"><path id="path4288" d="M 0,0 5,-5 -12.5,0 5,5 0,0 z" transform="matrix(-0.8,0,0,-0.8,-10,0)" style="fill-rule:evenodd;stroke:#000;stroke-width:1pt;marker-start:none"/></marker><marker id="marker4290" orient="auto" refX="0" refY="0" style="overflow:visible"><path id="path4292" d="M 0,0 5,-5 -12.5,0 5,5 0,0 z" transform="matrix(-0.8,0,0,-0.8,-10,0)" style="fill-rule:evenodd;stroke:#000;stroke-width:1pt;marker-start:none"/></marker><marker id="marker4294" orient="auto" refX="0" refY="0" style="overflow:visible"><path id="path4296" d="M 0,0 5,-5 -12.5,0 5,5 0,0 z" transform="matrix(-0.8,0,0,-0.8,-10,0)" style="fill-rule:evenodd;stroke:#000;stroke-width:1pt;marker-start:none"/></marker><marker id="Arrow1Lend-3" orient="auto" refX="0" refY="0" style="overflow:visible"><path id="path3695-7" d="M 0,0 5,-5 -12.5,0 5,5 0,0 z" transform="matrix(-0.8,0,0,-0.8,-10,0)" style="fill-rule:evenodd;stroke:#000;stroke-width:1pt;marker-start:none"/></marker><marker id="Arrow1Lend-31" orient="auto" refX="0" refY="0" style="overflow:visible"><path id="path3695-4" d="M 0,0 5,-5 -12.5,0 5,5 0,0 z" transform="matrix(-0.8,0,0,-0.8,-10,0)" style="fill-rule:evenodd;stroke:#000;stroke-width:1pt;marker-start:none"/></marker></defs><metadata id="metadata4346"/><g id="layer1" transform="translate(-64.019684,-330.64719)"><text style="font-size:12px;font-style:normal;font-weight:400;fill:#000;fill-opacity:1;stroke:none;font-family:Bitstream Vera Sans" id="text2816" x="162.842" y="339.764" xml:space="preserve"><tspan id="tspan2818" x="162.842" y="339.764">IM Library</tspan></text><text style="font-size:12px;font-style:normal;font-weight:400;fill:#000;fill-opacity:1;stroke:none;font-family:Bitstream Vera Sans" id="text2820" x="405.128" y="340.336" xml:space="preserve"><tspan id="tspan2822" x="405.128" y="340.336">IM Server</tspan></text><text style="font-size:12px;font-style:normal;font-weight:400;fill:#000;fill-opacity:1;stroke:none;font-family:Bitstream Vera Sans" id="text2824" x="62.842" y="390.336" xml:space="preserve"><tspan id="tspan2826" x="62.842" y="390.336">Keys in the on-key-list</tspan></text><text style="font-size:12px;font-style:normal;font-weight:400;fill:#000;fill-opacity:1;stroke:none;font-family:Bitstream Vera Sans" id="text2844" x="235.699" y="428.336" xml:space="preserve"><tspan id="tspan2846" x="235.699" y="428.336">XIM_EXT_SET_EVENT_MASK</tspan></text><text style="font-size:12px;font-style:normal;font-weight:400;fill:#000;fill-opacity:1;stroke:none;font-family:Bitstream Vera Sans" id="text2848" x="249.687" y="440.621" xml:space="preserve"><tspan id="tspan2850" x="249.687" y="440.621" style="font-size:10px">intercept-event-mask is set</tspan></text><text style="font-size:12px;font-style:normal;font-weight:400;fill:#000;fill-opacity:1;stroke:none;font-family:Bitstream Vera Sans" id="text2852" x="235.699" y="556.907" xml:space="preserve"><tspan id="tspan2854" x="235.699" y="556.907">XIM_EXT_SET_EVENT_MASK</tspan></text><text style="font-size:12px;font-style:normal;font-weight:400;fill:#000;fill-opacity:1;stroke:none;font-family:Bitstream Vera Sans" id="text2856" x="257.543" y="570.05" xml:space="preserve"><tspan id="tspan2858" x="257.543" y="570.05" style="font-size:10px">select-event-mask is set</tspan></text><path style="fill:none;stroke:#000;stroke-width:1.05025411px;stroke-linecap:butt;stroke-linejoin:miter;stroke-opacity:1" id="path2882" d="m 224.27052,345.53018 c 0,264.72805 0,274.18271 0,274.18271"/><path style="fill:none;stroke:#000;stroke-width:1.05972767px;stroke-linecap:butt;stroke-linejoin:miter;stroke-opacity:1" id="path2884" d="m 409.98481,347.82588 c 0,274.33848 0,272.73413 0,272.73413"/><path style="fill:none;stroke:#000;stroke-width:1px;stroke-linecap:butt;stroke-linejoin:miter;stroke-opacity:1;marker-start:none;marker-end:url(#Arrow1Lend)" id="path2886" d="m 135.6991,394.05008 79.99999,0"/><path style="fill:none;stroke:#000;stroke-width:1px;stroke-linecap:butt;stroke-linejoin:miter;stroke-opacity:1;marker-end:url(#Arrow1Lend)" id="path2888" d="m 235.69909,399.76437 162.85715,1.42857"/><path style="fill:none;stroke:#000;stroke-width:1px;stroke-linecap:butt;stroke-linejoin:miter;stroke-opacity:1;marker-end:url(#Arrow1Lend)" id="path2890" d="m 395.69909,411.19294 -160,1.42857"/><text style="font-size:12px;font-style:normal;font-weight:400;fill:#000;fill-opacity:1;stroke:none;font-family:Bitstream Vera Sans" id="text2854" x="245.448" y="392.264" xml:space="preserve"><tspan id="tspan2856" x="245.448" y="392.264">XIM_FORWARD_EVENT</tspan></text><path style="fill:none;stroke:#000;stroke-width:1px;stroke-linecap:butt;stroke-linejoin:miter;stroke-opacity:1;marker-end:url(#Arrow1Lend)" id="path3892" d="m 391.16254,531.97868 -150,-1.42858"/><path style="fill:none;stroke:#000;stroke-width:1px;stroke-linecap:butt;stroke-linejoin:miter;stroke-opacity:1;marker-end:url(#Arrow1Lend)" id="path3894" d="m 495.16254,523.40725 -68.57143,-1.42857"/><text style="font-size:12px;font-style:normal;font-weight:400;fill:#000;fill-opacity:1;stroke:none;font-family:Bitstream Vera Sans" id="text4489" x="80.571" y="444.219" xml:space="preserve"><tspan id="tspan4491" x="80.571" y="444.219">the specified events</tspan><tspan id="tspan4493" x="80.571" y="459.219">are being filtered</tspan></text><text style="font-size:12px;font-style:normal;font-weight:400;fill:#000;fill-opacity:1;stroke:none;font-family:Bitstream Vera Sans" id="text4495" x="76.571" y="517.362" xml:space="preserve"><tspan id="tspan4497" x="76.571" y="517.362">Keys in the off-key-list</tspan></text><text style="font-size:12px;font-style:normal;font-weight:400;fill:#000;fill-opacity:1;stroke:none;font-family:Bitstream Vera Sans" id="text4499" x="71.429" y="596.791" xml:space="preserve"><tspan id="tspan4501" x="71.429" y="596.791">the specified events</tspan><tspan id="tspan4503" x="71.429" y="611.791">are being processed</tspan></text><text style="font-size:12px;font-style:normal;font-weight:400;fill:#000;fill-opacity:1;stroke:none;font-family:Bitstream Vera Sans" id="text4505" x="434.571" y="394.648" xml:space="preserve"><tspan id="tspan4507" x="434.571" y="394.648">Keys in the on-key-list</tspan></text><text style="font-size:12px;font-style:normal;font-weight:400;fill:#000;fill-opacity:1;stroke:none;font-family:Bitstream Vera Sans" id="text4513" x="435.427" y="444.219" xml:space="preserve"><tspan id="tspan4515" x="435.427" y="444.219">the specified events</tspan><tspan id="tspan4517" x="435.427" y="459.219">are being processed</tspan></text><text style="font-size:12px;font-style:normal;font-weight:400;fill:#000;fill-opacity:1;stroke:none;font-family:Bitstream Vera Sans" id="text4519" x="434.571" y="517.362" xml:space="preserve"><tspan id="tspan4521" x="434.571" y="517.362">Keys in the off-key-list</tspan></text><text style="font-size:12px;font-style:normal;font-weight:400;fill:#000;fill-opacity:1;stroke:none;font-family:Bitstream Vera Sans" id="text4523" x="435.427" y="596.791" xml:space="preserve"><tspan id="tspan4525" x="435.427" y="596.791">the specified events</tspan><tspan id="tspan4527" x="435.427" y="611.791">are being discarded</tspan></text><path style="fill:none;stroke:#000;stroke-width:1px;stroke-linecap:butt;stroke-linejoin:miter;stroke-opacity:1;marker-end:url(#Arrow1Lend)" id="path3894-2" d="m 488.85714,401.78486 -68.57143,-1.42857"/><path style="fill:none;stroke:#000;stroke-width:1px;stroke-linecap:butt;stroke-linejoin:miter;stroke-opacity:1;marker-start:none;marker-end:url(#Arrow1Lend)" id="path2886-9" d="m 131.14286,526.6479 79.99999,0"/></g></svg>