<svg xmlns="http://www.w3.org/2000/svg" xmlns:svg="http://www.w3.org/2000/svg" id="svg2" width="680" height="350" version="1.1"><defs id="defs4"><marker id="DotM" orient="auto" refX="0" refY="0" style="overflow:visible"><path id="path4045" d="m -2.5,-1 c 0,2.76 -2.24,5 -5,5 -2.76,0 -5,-2.24 -5,-5 0,-2.76 2.24,-5 5,-5 2.76,0 5,2.24 5,5 z" transform="matrix(0.4,0,0,0.4,2.96,0.4)" style="fill-rule:evenodd;stroke:#000;stroke-width:1pt;marker-start:none;marker-end:none"/></marker><marker id="Arrow2Lend" orient="auto" refX="0" refY="0" style="overflow:visible"><path id="path4001" d="M 8.7185878,4.0337352 -2.2072895,0.01601326 8.7185884,-4.0017078 c -1.7454984,2.3720609 -1.7354408,5.6174519 -6e-7,8.035443 z" transform="matrix(-1.1,0,0,-1.1,-1.1,0)" style="font-size:12px;fill-rule:evenodd;stroke-width:.625;stroke-linejoin:round"/></marker><marker id="Arrow2Lend-9" orient="auto" refX="0" refY="0" style="overflow:visible"><path id="path4001-3" d="M 8.7185878,4.0337352 -2.2072895,0.01601326 8.7185884,-4.0017078 c -1.7454984,2.3720609 -1.7354408,5.6174519 -6e-7,8.035443 z" transform="matrix(-1.1,0,0,-1.1,-1.1,0)" style="font-size:12px;fill-rule:evenodd;stroke-width:.625;stroke-linejoin:round"/></marker><marker id="Arrow2Lend-4" orient="auto" refX="0" refY="0" style="overflow:visible"><path id="path4001-6" d="M 8.7185878,4.0337352 -2.2072895,0.01601326 8.7185884,-4.0017078 c -1.7454984,2.3720609 -1.7354408,5.6174519 -6e-7,8.035443 z" transform="matrix(-1.1,0,0,-1.1,-1.1,0)" style="font-size:12px;fill-rule:evenodd;stroke-width:.625;stroke-linejoin:round"/></marker><marker id="Arrow2Lend-5" orient="auto" refX="0" refY="0" style="overflow:visible"><path id="path4001-61" d="M 8.7185878,4.0337352 -2.2072895,0.01601326 8.7185884,-4.0017078 c -1.7454984,2.3720609 -1.7354408,5.6174519 -6e-7,8.035443 z" transform="matrix(-1.1,0,0,-1.1,-1.1,0)" style="font-size:12px;fill-rule:evenodd;stroke-width:.625;stroke-linejoin:round"/></marker><marker id="Arrow2Lend-0" orient="auto" refX="0" refY="0" style="overflow:visible"><path id="path4001-2" d="M 8.7185878,4.0337352 -2.2072895,0.01601326 8.7185884,-4.0017078 c -1.7454984,2.3720609 -1.7354408,5.6174519 -6e-7,8.035443 z" transform="matrix(-1.1,0,0,-1.1,-1.1,0)" style="font-size:12px;fill-rule:evenodd;stroke-width:.625;stroke-linejoin:round"/></marker><marker id="Arrow2Lend-90" orient="auto" refX="0" refY="0" style="overflow:visible"><path id="path4001-1" d="M 8.7185878,4.0337352 -2.2072895,0.01601326 8.7185884,-4.0017078 c -1.7454984,2.3720609 -1.7354408,5.6174519 -6e-7,8.035443 z" transform="matrix(-1.1,0,0,-1.1,-1.1,0)" style="font-size:12px;fill-rule:evenodd;stroke-width:.625;stroke-linejoin:round"/></marker></defs><metadata id="metadata7"/><g id="layer2" style="display:inline"><rect style="fill:#fff;stroke:#000;stroke-width:.99999994000000003;stroke-miterlimit:4;stroke-opacity:1;stroke-dasharray:none;stroke-dashoffset:0" id="rect3202" width="640.388" height="199.79" x="22.12" y="18.919"/><text style="font-size:12px;font-style:normal;font-variant:normal;font-weight:400;font-stretch:normal;text-align:start;line-height:125%;letter-spacing:0;word-spacing:0;writing-mode:lr-tb;text-anchor:start;fill:#000;fill-opacity:1;stroke:none;font-family:DejaVu Sans;-inkscape-font-specification:DejaVu Sans" id="text3070" x="313.956" y="40.325" xml:space="preserve"><tspan id="tspan3072" x="313.956" y="40.325">Xkb State</tspan></text><text style="font-size:12px;font-style:normal;font-variant:normal;font-weight:400;font-stretch:normal;text-align:start;line-height:125%;letter-spacing:0;word-spacing:0;writing-mode:lr-tb;text-anchor:start;fill:#000;fill-opacity:1;stroke:none;font-family:DejaVu Sans;-inkscape-font-specification:DejaVu Sans" id="text3070-7" x="37.754" y="61.351" xml:space="preserve"><tspan id="tspan3072-0" x="37.754" y="61.351">Base Modifiers and Group</tspan></text><text style="font-size:12px;font-style:normal;font-variant:normal;font-weight:400;font-stretch:normal;text-align:start;line-height:125%;letter-spacing:0;word-spacing:0;writing-mode:lr-tb;text-anchor:start;fill:#000;fill-opacity:1;stroke:none;font-family:DejaVu Sans;-inkscape-font-specification:DejaVu Sans" id="text3070-7-5" x="31.391" y="76.329" xml:space="preserve"><tspan id="tspan3072-0-1" x="31.391" y="76.329">Locked Modifiers and Group</tspan></text><text style="font-size:12px;font-style:normal;font-variant:normal;font-weight:400;font-stretch:normal;text-align:start;line-height:125%;letter-spacing:0;word-spacing:0;writing-mode:lr-tb;text-anchor:start;fill:#000;fill-opacity:1;stroke:none;font-family:DejaVu Sans;-inkscape-font-specification:DejaVu Sans" id="text3070-7-1" x="28.379" y="91.308" xml:space="preserve"><tspan id="tspan3072-0-0" x="28.379" y="91.308">Latched Modifiers and Group</tspan></text><text style="font-size:12px;font-style:normal;font-variant:normal;font-weight:400;font-stretch:normal;text-align:start;line-height:125%;letter-spacing:0;word-spacing:0;writing-mode:lr-tb;text-anchor:start;fill:#000;fill-opacity:1;stroke:none;font-family:DejaVu Sans;-inkscape-font-specification:DejaVu Sans" id="text3070-7-3" x="38.618" y="107.45" xml:space="preserve"><tspan id="tspan3072-0-00" x="38.618" y="107.45">Core Pointer Button State</tspan></text><text style="font-size:12px;font-style:normal;font-variant:normal;font-weight:400;font-stretch:normal;text-align:start;line-height:125%;letter-spacing:0;word-spacing:0;writing-mode:lr-tb;text-anchor:start;fill:#000;fill-opacity:1;stroke:none;font-family:DejaVu Sans;-inkscape-font-specification:DejaVu Sans" id="text3070-7-4" x="45.005" y="130.564" xml:space="preserve"><tspan id="tspan3072-0-5" x="45.005" y="130.564">ServerInternalModifiers</tspan></text><text style="font-size:12px;font-style:normal;font-variant:normal;font-weight:400;font-stretch:normal;text-align:start;line-height:125%;letter-spacing:0;word-spacing:0;writing-mode:lr-tb;text-anchor:start;fill:#000;fill-opacity:1;stroke:none;font-family:DejaVu Sans;-inkscape-font-specification:DejaVu Sans" id="text3070-7-42" x="51.738" y="144.896" xml:space="preserve"><tspan id="tspan3072-0-4" x="51.738" y="144.896">IgnoreLocksModifiers</tspan></text><text style="font-size:12px;font-style:normal;font-variant:normal;font-weight:400;font-stretch:normal;text-align:start;line-height:125%;letter-spacing:0;word-spacing:0;writing-mode:lr-tb;text-anchor:start;fill:#000;fill-opacity:1;stroke:none;font-family:DejaVu Sans;-inkscape-font-specification:DejaVu Sans" id="text3070-7-9" x="63.711" y="160.392" xml:space="preserve"><tspan id="tspan3072-0-9" x="63.711" y="160.392">IgnoreGroupLock</tspan></text><path style="fill:none;stroke:#000;stroke-width:.99999988;stroke-miterlimit:4;stroke-opacity:1;stroke-dashoffset:0" id="rect3972-1" d="m 203.35783,129.51732 12.13011,0 0,27.82791 m 0,0 -12.13011,0"/><path style="fill:none;stroke:#000;stroke-width:.99999994;stroke-miterlimit:4;stroke-opacity:1;stroke-dashoffset:0" id="rect3972-1-6" d="m 323.35791,79.764955 8.43652,0 0,45.827905 m 0,0 -128.43652,0"/><path style="fill:none;stroke:#000;stroke-width:.99999994;stroke-miterlimit:4;stroke-opacity:1;stroke-dashoffset:0" id="rect3972-1-6-3" d="m 322.69115,75.207772 14.81148,0 0,67.947528 m 0,0 -134.14481,0"/><path style="fill:none;stroke:#000;stroke-width:1px;stroke-linecap:butt;stroke-linejoin:miter;stroke-opacity:1;marker-end:url(#Arrow2Lend)" id="path3975-3" d="m 322.81789,70.311424 164.61179,0"/><path style="fill:none;stroke:#000;stroke-width:.99999994px;stroke-linecap:butt;stroke-linejoin:miter;stroke-opacity:1;marker-start:url(#DotM);marker-end:url(#Arrow2Lend)" id="path3975-1" d="m 331.79831,108.92523 30.13474,0"/><path style="fill:none;stroke:#000;stroke-width:.99999994px;stroke-linecap:butt;stroke-linejoin:miter;stroke-opacity:1;marker-start:url(#DotM);marker-end:url(#Arrow2Lend)" id="path3975-1-7" d="m 337.5929,126.72036 25.27356,0"/><path style="fill:none;stroke:#000;stroke-width:.99999988;stroke-miterlimit:4;stroke-opacity:1;stroke-dashoffset:0" id="rect3972" d="m 203.35783,56.023084 12.13011,0 0,37.103876 m 0,0 -12.13011,0"/><path style="fill:none;stroke:#000;stroke-width:1px;stroke-linecap:butt;stroke-linejoin:miter;stroke-opacity:1;marker-end:url(#Arrow2Lend)" id="path3975" d="m 204.07135,73.147954 42.81218,0"/><path style="fill:#000;stroke:#000;stroke-width:.9747206;stroke-miterlimit:4;stroke-opacity:1;stroke-dasharray:none;stroke-dashoffset:0" id="path4739-2" d="m 339.10809,127.91186 a 1.7169465,1.6946485 0 1 1 -3.43389,0 1.7169465,1.6946485 0 1 1 3.43389,0 z" transform="matrix(1.0192513,0,0,1.0326625,-128.39843,-58.763441)"/><path style="fill:#000;stroke:#000;stroke-width:.9747206;stroke-miterlimit:4;stroke-opacity:1;stroke-dasharray:none;stroke-dashoffset:0" id="path4739-29" d="m 339.10809,127.91186 a 1.7169465,1.6946485 0 1 1 -3.43389,0 1.7169465,1.6946485 0 1 1 3.43389,0 z" transform="matrix(1.0192513,0,0,1.0326625,108.18711,-61.103875)"/><g id="g5352"><rect id="rect4921" width="245.456" height="37.817" x="27.114" y="229.412" style="fill:#fff;fill-opacity:1;stroke:#000;stroke-width:1;stroke-miterlimit:4;stroke-opacity:1;stroke-dasharray:none;stroke-dashoffset:0"/><text id="text3070-7-94" x="98.738" y="244.183" xml:space="preserve" style="font-size:12px;font-style:normal;font-variant:normal;font-weight:400;font-stretch:normal;text-align:start;line-height:125%;letter-spacing:0;word-spacing:0;writing-mode:lr-tb;text-anchor:start;fill:#000;fill-opacity:1;stroke:none;font-family:DejaVu Sans;-inkscape-font-specification:DejaVu Sans"><tspan id="tspan3072-0-98" x="98.738" y="244.183">Compatibility Map</tspan></text><text id="text3070-7-94-2" x="73.435" y="259.619" xml:space="preserve" style="font-size:12px;font-style:normal;font-variant:normal;font-weight:400;font-stretch:normal;text-align:start;line-height:125%;letter-spacing:0;word-spacing:0;writing-mode:lr-tb;text-anchor:start;fill:#000;fill-opacity:1;stroke:none;font-family:DejaVu Sans;-inkscape-font-specification:DejaVu Sans"><tspan id="tspan3072-0-98-8" x="73.435" y="259.619">Explicit Override Controls</tspan></text></g><g id="g5359"><rect id="rect4921-3" width="141.994" height="37.817" x="132.718" y="286.138" style="fill:#fff;fill-opacity:1;stroke:#000;stroke-width:1;stroke-miterlimit:4;stroke-opacity:1;stroke-dasharray:none;stroke-dashoffset:0"/><text id="text3070-7-94-1" x="148.108" y="309.064" xml:space="preserve" style="font-size:12px;font-style:normal;font-variant:normal;font-weight:400;font-stretch:normal;text-align:start;line-height:125%;letter-spacing:0;word-spacing:0;writing-mode:lr-tb;text-anchor:start;fill:#000;fill-opacity:1;stroke:none;font-family:DejaVu Sans;-inkscape-font-specification:DejaVu Sans"><tspan id="tspan3072-0-98-2" x="148.108" y="309.064">Xkb Keyboard Map</tspan></text></g><g id="g5364"><rect id="rect4921-3-6" width="122.728" height="37.817" x="399.937" y="285.425" style="fill:#fff;fill-opacity:1;stroke:#000;stroke-width:1;stroke-miterlimit:4;stroke-opacity:1;stroke-dasharray:none;stroke-dashoffset:0"/><text id="text3070-7-94-4" x="402.399" y="309.064" xml:space="preserve" style="font-size:12px;font-style:normal;font-variant:normal;font-weight:400;font-stretch:normal;text-align:start;line-height:125%;letter-spacing:0;word-spacing:0;writing-mode:lr-tb;text-anchor:start;fill:#000;fill-opacity:1;stroke:none;font-family:DejaVu Sans;-inkscape-font-specification:DejaVu Sans"><tspan id="tspan3072-0-98-7" x="402.399" y="309.064">Core Keyboard Map</tspan></text></g><text style="font-size:12px;font-style:normal;font-variant:normal;font-weight:400;font-stretch:normal;text-align:start;line-height:125%;letter-spacing:0;word-spacing:0;writing-mode:lr-tb;text-anchor:start;fill:#000;fill-opacity:1;stroke:none;font-family:DejaVu Sans;-inkscape-font-specification:DejaVu Sans" id="text3070-7-94-8" x="518.426" y="73.964" xml:space="preserve"><tspan id="tspan3072-0-98-6" x="518.426" y="73.964">Compatibility State</tspan></text><text style="font-size:12px;font-style:normal;font-variant:normal;font-weight:400;font-stretch:normal;text-align:start;line-height:125%;letter-spacing:0;word-spacing:0;writing-mode:lr-tb;text-anchor:start;fill:#000;fill-opacity:1;stroke:none;font-family:DejaVu Sans;-inkscape-font-specification:DejaVu Sans" id="text3070-7-94-3" x="495.036" y="89.587" xml:space="preserve"><tspan id="tspan3072-0-98-77" x="495.036" y="89.587">Compatibility Lookup State</tspan></text><text style="font-size:12px;font-style:normal;font-variant:normal;font-weight:400;font-stretch:normal;text-align:start;line-height:125%;letter-spacing:0;word-spacing:0;writing-mode:lr-tb;text-anchor:start;fill:#000;fill-opacity:1;stroke:none;font-family:DejaVu Sans;-inkscape-font-specification:DejaVu Sans" id="text3070-7-94-23" x="501.903" y="105.21" xml:space="preserve"><tspan id="tspan3072-0-98-72" x="501.903" y="105.21">Compatibility Grab State</tspan></text><text style="font-size:12px;font-style:normal;font-variant:normal;font-weight:400;font-stretch:normal;text-align:start;line-height:125%;letter-spacing:0;word-spacing:0;writing-mode:lr-tb;text-anchor:start;fill:#000;fill-opacity:1;stroke:none;font-family:DejaVu Sans;-inkscape-font-specification:DejaVu Sans" id="text3070-7-94-5" x="367.081" y="113.3" xml:space="preserve"><tspan id="tspan3072-0-98-3" x="367.081" y="113.3">LookupState</tspan></text><text style="font-size:12px;font-style:normal;font-variant:normal;font-weight:400;font-stretch:normal;text-align:start;line-height:125%;letter-spacing:0;word-spacing:0;writing-mode:lr-tb;text-anchor:start;fill:#000;fill-opacity:1;stroke:none;font-family:DejaVu Sans;-inkscape-font-specification:DejaVu Sans" id="text3070-7-94-5-7" x="372.126" y="131.464" xml:space="preserve"><tspan id="tspan3072-0-98-3-6" x="372.126" y="131.464">Grab State</tspan></text><text style="font-size:12px;font-style:normal;font-variant:normal;font-weight:400;font-stretch:normal;text-align:center;line-height:125%;letter-spacing:0;word-spacing:0;writing-mode:lr-tb;text-anchor:middle;fill:#000;fill-opacity:1;stroke:none;font-family:DejaVu Sans;-inkscape-font-specification:DejaVu Sans" id="text3070-7-94-5-7-8" x="282.405" y="64.864" xml:space="preserve"><tspan id="tspan3072-0-98-3-6-1" x="282.405" y="64.864">Effective</tspan><tspan id="tspan4917" x="282.405" y="79.864">Modifiers</tspan><tspan id="tspan4919" x="282.405" y="94.864">and Group</tspan></text><path style="fill:none;stroke:#000;stroke-width:1;stroke-miterlimit:4;stroke-opacity:1;stroke-dashoffset:0" id="rect4959" d="m 451.66839,70.89192 0,161.50987 -178.95697,0"/><path style="fill:none;stroke:#000;stroke-width:1;stroke-miterlimit:4;stroke-opacity:1;stroke-dashoffset:0" id="rect4959-4" d="m 455.52257,121.447 0,114.08816 -183.23819,0"/><path style="fill:#000;stroke:#000;stroke-width:.9747206;stroke-miterlimit:4;stroke-opacity:1;stroke-dasharray:none;stroke-dashoffset:0" id="path4739-0" d="m 339.10809,127.91186 a 1.7169465,1.6946485 0 1 1 -3.43389,0 1.7169465,1.6946485 0 1 1 3.43389,0 z" transform="matrix(1.0192513,0,0,1.0326625,111.68486,-9.8141784)"/><path style="fill:none;stroke:#000;stroke-width:1;stroke-miterlimit:4;stroke-opacity:1;stroke-dashoffset:0" id="rect4959-4-3" d="m 459.80379,109.27491 0,130.08816 -186.80588,0"/><path style="fill:#000;stroke:#000;stroke-width:.9747206;stroke-miterlimit:4;stroke-opacity:1;stroke-dasharray:none;stroke-dashoffset:0" id="path4739-5" d="m 339.10809,127.91186 a 1.7169465,1.6946485 0 1 1 -3.43389,0 1.7169465,1.6946485 0 1 1 3.43389,0 z" transform="matrix(1.0192513,0,0,1.0326625,115.94629,-22.992956)"/><path style="fill:none;stroke:#000;stroke-width:1px;stroke-linecap:butt;stroke-linejoin:miter;stroke-opacity:1;marker-end:url(#Arrow2Lend-5)" id="path5034" d="m 447.3872,122.38195 18.55194,0 -0.35677,-21.40608 21.04932,0"/><path style="fill:none;stroke:#000;stroke-width:1px;stroke-linecap:butt;stroke-linejoin:miter;stroke-opacity:1;marker-end:url(#Arrow2Lend-5)" id="path5034-8" d="m 447.32214,109.18152 12.55194,0 -0.35677,-23.406071 27.04932,0"/><path style="fill:#000;stroke:#000;stroke-width:.9747206;stroke-miterlimit:4;stroke-opacity:1;stroke-dasharray:none;stroke-dashoffset:0" id="path4739-50" d="m 339.10809,127.91186 a 1.7169465,1.6946485 0 1 1 -3.43389,0 1.7169465,1.6946485 0 1 1 3.43389,0 z" transform="matrix(1.0192513,0,0,1.0326625,-25.292448,174.91967)"/><path style="fill:#000;stroke:#000;stroke-width:.9747206;stroke-miterlimit:4;stroke-opacity:1;stroke-dasharray:none;stroke-dashoffset:0" id="path4739-9" d="m 339.10809,127.91186 a 1.7169465,1.6946485 0 1 1 -3.43389,0 1.7169465,1.6946485 0 1 1 3.43389,0 z" transform="matrix(1.0192513,0,0,1.0326625,3.7841522,167.96268)"/><path style="fill:#000;stroke:#000;stroke-width:.9747206;stroke-miterlimit:4;stroke-opacity:1;stroke-dasharray:none;stroke-dashoffset:0" id="path4739-98" d="m 339.10809,127.91186 a 1.7169465,1.6946485 0 1 1 -3.43389,0 1.7169465,1.6946485 0 1 1 3.43389,0 z" transform="matrix(1.0192513,0,0,1.0326625,-25.292448,127.29113)"/><path style="fill:none;stroke:#000;stroke-width:1px;stroke-linecap:butt;stroke-linejoin:miter;stroke-opacity:1;marker-end:url(#Arrow2Lend)" id="path3975-4" d="m 275.36774,300.07008 123.31192,0"/><path style="fill:none;stroke:#000;stroke-width:1px;stroke-linecap:butt;stroke-linejoin:miter;stroke-opacity:1;marker-end:url(#Arrow2Lend)" id="path3975-2" d="m 398.74561,306.4919 -121.91192,0"/><path style="fill:none;stroke:#000;stroke-width:1px;stroke-linecap:butt;stroke-linejoin:miter;stroke-opacity:1" id="path5314" d="m 272.9276,259.3809 45.66631,0"/><path style="fill:none;stroke:#000;stroke-width:.99999994;stroke-miterlimit:4;stroke-opacity:1;stroke-dashoffset:0" id="rect4959-4-3-0" d="m 347.84172,298.27848 0,-55.27363 -74.6607,0"/><path style="fill:none;stroke:#000;stroke-width:.99999988;stroke-miterlimit:4;stroke-opacity:1;stroke-dashoffset:0" id="rect4959-4-3-0-0" d="m 318.66101,307.37642 0,-60.76724 -45.74696,0"/><path style="fill:#000;stroke:#000;stroke-width:.9747206;stroke-miterlimit:4;stroke-opacity:1;stroke-dasharray:none;stroke-dashoffset:0;display:inline" id="path4739-2-6" d="m 339.10809,127.91186 a 1.7169465,1.6946485 0 1 1 -3.43389,0 1.7169465,1.6946485 0 1 1 3.43389,0 z" transform="matrix(1.0192513,0,0,1.0326625,-128.33445,11.032432)"/></g></svg>