<svg xmlns="http://www.w3.org/2000/svg" xmlns:svg="http://www.w3.org/2000/svg" id="svg2" width="660" height="420" version="1.1" style="display:inline"><defs id="defs4"><marker id="Arrow2Lend" orient="auto" refX="0" refY="0" style="overflow:visible"><path id="path4554" d="M 8.7185878,4.0337352 -2.2072895,0.01601326 8.7185884,-4.0017078 c -1.7454984,2.3720609 -1.7354408,5.6174519 -6e-7,8.035443 z" transform="matrix(-1.1,0,0,-1.1,-1.1,0)" style="font-size:12px;fill-rule:evenodd;stroke-width:.625;stroke-linejoin:round"/></marker><marker id="Arrow2Lend-9" orient="auto" refX="0" refY="0" style="overflow:visible"><path id="path4554-0" d="M 8.7185878,4.0337352 -2.2072895,0.01601326 8.7185884,-4.0017078 c -1.7454984,2.3720609 -1.7354408,5.6174519 -6e-7,8.035443 z" transform="matrix(-1.1,0,0,-1.1,-1.1,0)" style="font-size:12px;fill-rule:evenodd;stroke-width:.625;stroke-linejoin:round"/></marker><marker id="Arrow2Lend-3" orient="auto" refX="0" refY="0" style="overflow:visible"><path id="path4554-8" d="M 8.7185878,4.0337352 -2.2072895,0.01601326 8.7185884,-4.0017078 c -1.7454984,2.3720609 -1.7354408,5.6174519 -6e-7,8.035443 z" transform="matrix(-1.1,0,0,-1.1,-1.1,0)" style="font-size:12px;fill-rule:evenodd;stroke-width:.625;stroke-linejoin:round"/></marker><marker id="Arrow2Lend-31" orient="auto" refX="0" refY="0" style="overflow:visible"><path id="path4554-00" d="M 8.7185878,4.0337352 -2.2072895,0.01601326 8.7185884,-4.0017078 c -1.7454984,2.3720609 -1.7354408,5.6174519 -6e-7,8.035443 z" transform="matrix(-1.1,0,0,-1.1,-1.1,0)" style="font-size:12px;fill-rule:evenodd;stroke-width:.625;stroke-linejoin:round"/></marker><marker id="Arrow2Lend-0" orient="auto" refX="0" refY="0" style="overflow:visible"><path id="path4554-3" d="M 8.7185878,4.0337352 -2.2072895,0.01601326 8.7185884,-4.0017078 c -1.7454984,2.3720609 -1.7354408,5.6174519 -6e-7,8.035443 z" transform="matrix(-1.1,0,0,-1.1,-1.1,0)" style="font-size:12px;fill-rule:evenodd;stroke-width:.625;stroke-linejoin:round"/></marker><marker id="Arrow2Lend-0-8" orient="auto" refX="0" refY="0" style="overflow:visible"><path id="path4554-3-0" d="M 8.7185878,4.0337352 -2.2072895,0.01601326 8.7185884,-4.0017078 c -1.7454984,2.3720609 -1.7354408,5.6174519 -6e-7,8.035443 z" transform="matrix(-1.1,0,0,-1.1,-1.1,0)" style="font-size:12px;fill-rule:evenodd;stroke-width:.625;stroke-linejoin:round"/></marker><marker id="Arrow2Lend-0-7" orient="auto" refX="0" refY="0" style="overflow:visible"><path id="path4554-3-9" d="M 8.7185878,4.0337352 -2.2072895,0.01601326 8.7185884,-4.0017078 c -1.7454984,2.3720609 -1.7354408,5.6174519 -6e-7,8.035443 z" transform="matrix(-1.1,0,0,-1.1,-1.1,0)" style="font-size:12px;fill-rule:evenodd;stroke-width:.625;stroke-linejoin:round"/></marker><marker id="Arrow2Lend-0-0" orient="auto" refX="0" refY="0" style="overflow:visible"><path id="path4554-3-3" d="M 8.7185878,4.0337352 -2.2072895,0.01601326 8.7185884,-4.0017078 c -1.7454984,2.3720609 -1.7354408,5.6174519 -6e-7,8.035443 z" transform="matrix(-1.1,0,0,-1.1,-1.1,0)" style="font-size:12px;fill-rule:evenodd;stroke-width:.625;stroke-linejoin:round"/></marker><marker id="Arrow2Lend-0-9" orient="auto" refX="0" refY="0" style="overflow:visible"><path id="path4554-3-4" d="M 8.7185878,4.0337352 -2.2072895,0.01601326 8.7185884,-4.0017078 c -1.7454984,2.3720609 -1.7354408,5.6174519 -6e-7,8.035443 z" transform="matrix(-1.1,0,0,-1.1,-1.1,0)" style="font-size:12px;fill-rule:evenodd;stroke-width:.625;stroke-linejoin:round"/></marker><marker id="Arrow2Lend-4" orient="auto" refX="0" refY="0" style="overflow:visible"><path id="path4554-6" d="M 8.7185878,4.0337352 -2.2072895,0.01601326 8.7185884,-4.0017078 c -1.7454984,2.3720609 -1.7354408,5.6174519 -6e-7,8.035443 z" transform="matrix(-1.1,0,0,-1.1,-1.1,0)" style="font-size:12px;fill-rule:evenodd;stroke-width:.625;stroke-linejoin:round"/></marker><marker id="Arrow2Lend-0-2" orient="auto" refX="0" refY="0" style="overflow:visible"><path id="path4554-3-90" d="M 8.7185878,4.0337352 -2.2072895,0.01601326 8.7185884,-4.0017078 c -1.7454984,2.3720609 -1.7354408,5.6174519 -6e-7,8.035443 z" transform="matrix(-1.1,0,0,-1.1,-1.1,0)" style="font-size:12px;fill-rule:evenodd;stroke-width:.625;stroke-linejoin:round"/></marker><marker id="Arrow2Lend-0-03" orient="auto" refX="0" refY="0" style="overflow:visible"><path id="path4554-3-37" d="M 8.7185878,4.0337352 -2.2072895,0.01601326 8.7185884,-4.0017078 c -1.7454984,2.3720609 -1.7354408,5.6174519 -6e-7,8.035443 z" transform="matrix(-1.1,0,0,-1.1,-1.1,0)" style="font-size:12px;fill-rule:evenodd;stroke-width:.625;stroke-linejoin:round"/></marker><marker id="Arrow2Lend-0-4" orient="auto" refX="0" refY="0" style="overflow:visible"><path id="path4554-3-99" d="M 8.7185878,4.0337352 -2.2072895,0.01601326 8.7185884,-4.0017078 c -1.7454984,2.3720609 -1.7354408,5.6174519 -6e-7,8.035443 z" transform="matrix(-1.1,0,0,-1.1,-1.1,0)" style="font-size:12px;fill-rule:evenodd;stroke-width:.625;stroke-linejoin:round"/></marker><marker id="Arrow2Lend-0-94" orient="auto" refX="0" refY="0" style="overflow:visible"><path id="path4554-3-2" d="M 8.7185878,4.0337352 -2.2072895,0.01601326 8.7185884,-4.0017078 c -1.7454984,2.3720609 -1.7354408,5.6174519 -6e-7,8.035443 z" transform="matrix(-1.1,0,0,-1.1,-1.1,0)" style="font-size:12px;fill-rule:evenodd;stroke-width:.625;stroke-linejoin:round"/></marker><marker id="Arrow2Lend-0-6" orient="auto" refX="0" refY="0" style="overflow:visible"><path id="path4554-3-5" d="M 8.7185878,4.0337352 -2.2072895,0.01601326 8.7185884,-4.0017078 c -1.7454984,2.3720609 -1.7354408,5.6174519 -6e-7,8.035443 z" transform="matrix(-1.1,0,0,-1.1,-1.1,0)" style="font-size:12px;fill-rule:evenodd;stroke-width:.625;stroke-linejoin:round"/></marker><marker id="Arrow2Lend-0-5" orient="auto" refX="0" refY="0" style="overflow:visible"><path id="path4554-3-6" d="M 8.7185878,4.0337352 -2.2072895,0.01601326 8.7185884,-4.0017078 c -1.7454984,2.3720609 -1.7354408,5.6174519 -6e-7,8.035443 z" transform="matrix(-1.1,0,0,-1.1,-1.1,0)" style="font-size:12px;fill-rule:evenodd;stroke-width:.625;stroke-linejoin:round"/></marker><marker id="Arrow2Lend-0-1" orient="auto" refX="0" refY="0" style="overflow:visible"><path id="path4554-3-43" d="M 8.7185878,4.0337352 -2.2072895,0.01601326 8.7185884,-4.0017078 c -1.7454984,2.3720609 -1.7354408,5.6174519 -6e-7,8.035443 z" transform="matrix(-1.1,0,0,-1.1,-1.1,0)" style="font-size:12px;fill-rule:evenodd;stroke-width:.625;stroke-linejoin:round"/></marker></defs><metadata id="metadata7"/><g id="layer2" style="display:inline"><g id="g5558"><rect id="rect3680" width="148.007" height="74.391" x="254.945" y="315.387" style="fill:#fff;fill-opacity:1;stroke:#000;stroke-width:1;stroke-miterlimit:4;stroke-opacity:1;stroke-dasharray:none;stroke-dashoffset:0"/><text id="text3070-7" x="329.098" y="333.394" xml:space="preserve" style="font-size:12px;font-style:normal;font-variant:normal;font-weight:400;font-stretch:normal;text-align:center;line-height:125%;letter-spacing:0;word-spacing:0;writing-mode:lr-tb;text-anchor:middle;fill:#000;fill-opacity:1;stroke:none;font-family:DejaVu Sans;-inkscape-font-specification:DejaVu Sans"><tspan id="tspan3074-0" x="329.098" y="333.394">Xkb-capable</tspan><tspan id="tspan3076-5" x="329.098" y="348.394">Client</tspan><tspan id="tspan3078-1" x="329.098" y="363.394">Xkb-aware Xlib</tspan><tspan id="tspan3080-1" x="329.098" y="378.394">Xkb-unaware App</tspan></text></g><rect style="fill:#fff;fill-opacity:1;stroke:#000;stroke-width:1;stroke-miterlimit:4;stroke-opacity:1;stroke-dasharray:none;stroke-dashoffset:0" id="rect3499" width="27.897" height="26.347" x="286.716" y="239.446"/><g id="g5566"><rect id="rect3678" width="149.557" height="74.391" x="22.472" y="313.838" style="fill:#fff;fill-opacity:1;stroke:#000;stroke-width:1;stroke-miterlimit:4;stroke-opacity:1;stroke-dasharray:none;stroke-dashoffset:0"/><text id="text3070" x="97.4" y="331.844" xml:space="preserve" style="font-size:12px;font-style:normal;font-variant:normal;font-weight:400;font-stretch:normal;text-align:center;line-height:125%;letter-spacing:0;word-spacing:0;writing-mode:lr-tb;text-anchor:middle;fill:#000;fill-opacity:1;stroke:none;font-family:DejaVu Sans;-inkscape-font-specification:DejaVu Sans"><tspan id="tspan3074" x="97.4" y="331.844">Xkb-unaware</tspan><tspan id="tspan3076" x="97.4" y="346.844">Client</tspan><tspan id="tspan3078" x="97.4" y="361.844">Core kb Xlib</tspan><tspan id="tspan3080" x="97.4" y="376.844">Xkb-unaware App</tspan></text></g><g id="g5550"><rect id="rect3680-1" width="148.007" height="74.391" x="488.579" y="316.162" style="fill:#fff;fill-opacity:1;stroke:#000;stroke-width:1;stroke-miterlimit:4;stroke-opacity:1;stroke-dasharray:none;stroke-dashoffset:0"/><text id="text3070-7-0" x="562.732" y="334.168" xml:space="preserve" style="font-size:12px;font-style:normal;font-variant:normal;font-weight:400;font-stretch:normal;text-align:center;line-height:125%;letter-spacing:0;word-spacing:0;writing-mode:lr-tb;text-anchor:middle;fill:#000;fill-opacity:1;stroke:none;font-family:DejaVu Sans;-inkscape-font-specification:DejaVu Sans"><tspan id="tspan3074-0-3" x="562.732" y="334.168">Xkb-aware</tspan><tspan id="tspan3076-5-0" x="562.732" y="349.168">Client</tspan><tspan id="tspan3078-1-0" x="562.732" y="364.168">Xkb-aware Xlib</tspan><tspan id="tspan3080-1-4" x="562.732" y="379.168">Xkb-aware App</tspan></text></g><text style="font-size:12px;font-style:normal;font-variant:normal;font-weight:400;font-stretch:normal;text-align:center;line-height:125%;letter-spacing:0;word-spacing:0;writing-mode:lr-tb;text-anchor:middle;fill:#000;fill-opacity:1;stroke:none;font-family:DejaVu Sans;-inkscape-font-specification:DejaVu Sans" id="text3070-5-9" x="278.961" y="279.995" xml:space="preserve"><tspan id="tspan3080-9-9" x="278.961" y="279.995">state</tspan></text><text style="font-size:12px;font-style:normal;font-variant:normal;font-weight:400;font-stretch:normal;text-align:center;line-height:125%;letter-spacing:0;word-spacing:0;writing-mode:lr-tb;text-anchor:middle;fill:#000;fill-opacity:1;stroke:none;font-family:DejaVu Sans;-inkscape-font-specification:DejaVu Sans" id="text3070-5-9-4-8" x="572.651" y="264.497" xml:space="preserve"><tspan id="tspan3080-9-9-9-1" x="572.651" y="264.497">config</tspan></text><text style="font-size:12px;font-style:normal;font-variant:normal;font-weight:400;font-stretch:normal;text-align:center;line-height:125%;letter-spacing:0;word-spacing:0;writing-mode:lr-tb;text-anchor:middle;fill:#000;fill-opacity:1;stroke:none;font-family:DejaVu Sans;-inkscape-font-specification:DejaVu Sans" id="text3070-5-9-4-8-9-4-1-6-2" x="266.568" y="193.412" xml:space="preserve"><tspan id="tspan3080-9-9-9-1-33-6-5-1-2" x="266.568" y="193.412">kb</tspan><tspan id="tspan3316-7-9" x="266.568" y="208.412">mapping</tspan></text><g id="g5644"><rect id="rect3575" width="245.646" height="79.041" x="206.125" y="32.546" style="fill:#fff;fill-opacity:1;stroke:#000;stroke-width:1;stroke-miterlimit:4;stroke-opacity:1;stroke-dasharray:none;stroke-dashoffset:0"/><text id="text3070-2" x="328.937" y="52.877" xml:space="preserve" style="font-size:12px;font-style:normal;font-variant:normal;font-weight:400;font-stretch:normal;text-align:center;line-height:125%;letter-spacing:0;word-spacing:0;writing-mode:lr-tb;text-anchor:middle;fill:#000;fill-opacity:1;stroke:none;font-family:DejaVu Sans;-inkscape-font-specification:DejaVu Sans"><tspan id="tspan3074-8" x="328.937" y="52.877">Xkb-aware</tspan><tspan id="tspan3080-4" x="328.937" y="67.877">Server</tspan><tspan id="tspan3403" x="328.937" y="82.877">Maintains Xkb State and Mapping,</tspan><tspan id="tspan3407" x="328.937" y="97.877">core kb mapping, but not core kb state</tspan></text></g><text style="font-size:12px;font-style:normal;font-variant:normal;font-weight:400;font-stretch:normal;text-align:center;line-height:125%;letter-spacing:0;word-spacing:0;writing-mode:lr-tb;text-anchor:middle;fill:#000;fill-opacity:1;stroke:none;font-family:DejaVu Sans;-inkscape-font-specification:DejaVu Sans" id="text3070-5-7-6" x="300.814" y="257.094" xml:space="preserve"><tspan id="tspan3080-9-8-3" x="300.814" y="257.094">Xkb</tspan></text><g id="g5594"><path id="path5070-5-3-9" d="m 417.4437,206.30568 30.99631,30.2214" style="fill:none;stroke:#000;stroke-width:1px;stroke-linecap:butt;stroke-linejoin:miter;stroke-opacity:1;marker-end:url(#Arrow2Lend-0)"/><rect id="rect3499-8" width="27.897" height="26.347" x="395.203" y="184.428" style="fill:#fff;fill-opacity:1;stroke:#000;stroke-width:1;stroke-miterlimit:4;stroke-opacity:1;stroke-dasharray:none;stroke-dashoffset:0"/><text id="text3070-5-9-4-8-9-4-1-6" x="408.376" y="223.633" xml:space="preserve" style="font-size:12px;font-style:normal;font-variant:normal;font-weight:400;font-stretch:normal;text-align:center;line-height:125%;letter-spacing:0;word-spacing:0;writing-mode:lr-tb;text-anchor:middle;fill:#000;fill-opacity:1;stroke:none;font-family:DejaVu Sans;-inkscape-font-specification:DejaVu Sans"><tspan id="tspan3080-9-9-9-1-33-6-5-1" x="408.376" y="223.633">kb</tspan><tspan id="tspan3316-7" x="408.376" y="238.633">mapping</tspan></text><text id="text3070-5-7-6-7" x="409.301" y="202.075" xml:space="preserve" style="font-size:12px;font-style:normal;font-variant:normal;font-weight:400;font-stretch:normal;text-align:center;line-height:125%;letter-spacing:0;word-spacing:0;writing-mode:lr-tb;text-anchor:middle;fill:#000;fill-opacity:1;stroke:none;font-family:DejaVu Sans;-inkscape-font-specification:DejaVu Sans"><tspan id="tspan3080-9-8-3-7" x="409.301" y="202.075">Xkb</tspan></text></g><g id="g5586"><path id="path5070-5-3" d="m 479.44862,277.58458 30.99631,30.2214" style="fill:none;stroke:#000;stroke-width:1px;stroke-linecap:butt;stroke-linejoin:miter;stroke-opacity:1;marker-end:url(#Arrow2Lend-0)"/><text id="text3070-5-9-4" x="467.264" y="300.143" xml:space="preserve" style="font-size:12px;font-style:normal;font-variant:normal;font-weight:400;font-stretch:normal;text-align:center;line-height:125%;letter-spacing:0;word-spacing:0;writing-mode:lr-tb;text-anchor:middle;fill:#000;fill-opacity:1;stroke:none;font-family:DejaVu Sans;-inkscape-font-specification:DejaVu Sans"><tspan id="tspan3080-9-9-9" x="467.264" y="300.143">state</tspan></text><rect id="rect3499-1-0" width="27.897" height="26.347" x="454.871" y="254.17" style="fill:#fff;fill-opacity:1;stroke:#000;stroke-width:1;stroke-miterlimit:4;stroke-opacity:1;stroke-dasharray:none;stroke-dashoffset:0"/><text id="text3070-5-7-6-72" x="468.969" y="272.592" xml:space="preserve" style="font-size:12px;font-style:normal;font-variant:normal;font-weight:400;font-stretch:normal;text-align:center;line-height:125%;letter-spacing:0;word-spacing:0;writing-mode:lr-tb;text-anchor:middle;fill:#000;fill-opacity:1;stroke:none;font-family:DejaVu Sans;-inkscape-font-specification:DejaVu Sans"><tspan id="tspan3080-9-8-3-5" x="468.969" y="272.592">Xkb</tspan></text></g><text style="font-size:12px;font-style:normal;font-variant:normal;font-weight:400;font-stretch:normal;text-align:center;line-height:125%;letter-spacing:0;word-spacing:0;writing-mode:lr-tb;text-anchor:middle;fill:#000;fill-opacity:1;stroke:none;font-family:DejaVu Sans;-inkscape-font-specification:DejaVu Sans" id="text3070-5-6-0" x="155.713" y="66.853" xml:space="preserve"><tspan id="tspan3080-9-4-3" x="155.713" y="66.853">Keycode</tspan></text><path style="fill:#000;fill-opacity:1;stroke:#000;stroke-width:1.07095349;stroke-miterlimit:4;stroke-opacity:1;stroke-dasharray:none;stroke-dashoffset:0" id="path3577-8" d="m 168.92989,217.74908 a 8.9114389,9.298893 0 1 1 -17.82288,0 8.9114389,9.298893 0 1 1 17.82288,0 z" transform="matrix(0.95383025,0,0,0.91408731,112.38801,-30.111786)"/><path style="fill:#000;fill-opacity:1;stroke:#000;stroke-width:1.07095349;stroke-miterlimit:4;stroke-opacity:1;stroke-dasharray:none;stroke-dashoffset:0" id="path3577-0" d="m 168.92989,217.74908 a 8.9114389,9.298893 0 1 1 -17.82288,0 8.9114389,9.298893 0 1 1 17.82288,0 z" transform="matrix(0.95383025,0,0,0.91408731,416.15185,86.899284)"/><g id="g5616" transform="translate(14,-32)"><rect id="rect3499-3" width="27.897" height="26.347" x="496.716" y="117.011" style="fill:#fff;fill-opacity:1;stroke:#000;stroke-width:1;stroke-miterlimit:4;stroke-opacity:1;stroke-dasharray:none;stroke-dashoffset:0"/><text id="text3070-5-7-6-3" x="510.814" y="134.658" xml:space="preserve" style="font-size:12px;font-style:normal;font-variant:normal;font-weight:400;font-stretch:normal;text-align:center;line-height:125%;letter-spacing:0;word-spacing:0;writing-mode:lr-tb;text-anchor:middle;fill:#000;fill-opacity:1;stroke:none;font-family:DejaVu Sans;-inkscape-font-specification:DejaVu Sans"><tspan id="tspan3080-9-8-3-76" x="510.814" y="134.658">Xkb</tspan></text><path id="path3577-98" d="m 168.92989,217.74908 a 8.9114389,9.298893 0 1 1 -17.82288,0 8.9114389,9.298893 0 1 1 17.82288,0 z" transform="matrix(0.95383025,0,0,0.91408731,363.48212,-101.4033)" style="fill:#000;fill-opacity:1;stroke:#000;stroke-width:1.07095349;stroke-miterlimit:4;stroke-opacity:1;stroke-dasharray:none;stroke-dashoffset:0"/><text id="text3070-5-9-0" x="572.651" y="100.949" xml:space="preserve" style="font-size:12px;font-style:normal;font-variant:normal;font-weight:400;font-stretch:normal;text-align:center;line-height:125%;letter-spacing:0;word-spacing:0;writing-mode:lr-tb;text-anchor:middle;fill:#000;fill-opacity:1;stroke:none;font-family:DejaVu Sans;-inkscape-font-specification:DejaVu Sans"><tspan id="tspan3080-9-9-0" x="572.651" y="100.949">Core protocol</tspan></text><text id="text3070-5-9-0-6" x="571.33" y="133.495" xml:space="preserve" style="font-size:12px;font-style:normal;font-variant:normal;font-weight:400;font-stretch:normal;text-align:center;line-height:125%;letter-spacing:0;word-spacing:0;writing-mode:lr-tb;text-anchor:middle;fill:#000;fill-opacity:1;stroke:none;font-family:DejaVu Sans;-inkscape-font-specification:DejaVu Sans"><tspan id="tspan3080-9-9-0-3" x="571.33" y="133.495">Xkb protocol</tspan></text></g><g id="g5638"><rect id="rect3678-2" width="80.59" height="20.923" x="39.133" y="68.192" style="fill:#fff;fill-opacity:1;stroke:#000;stroke-width:1;stroke-miterlimit:4;stroke-opacity:1;stroke-dasharray:none;stroke-dashoffset:0"/><text id="text3070-5-6" x="79.384" y="81.964" xml:space="preserve" style="font-size:12px;font-style:normal;font-variant:normal;font-weight:400;font-stretch:normal;text-align:center;line-height:125%;letter-spacing:0;word-spacing:0;writing-mode:lr-tb;text-anchor:middle;fill:#000;fill-opacity:1;stroke:none;font-family:DejaVu Sans;-inkscape-font-specification:DejaVu Sans"><tspan id="tspan3080-9-4" x="79.384" y="81.964">Keyboard</tspan></text><path id="path3760" d="m 120.1107,76.715867 84.46495,0" style="fill:none;stroke:#000;stroke-width:1px;stroke-linecap:butt;stroke-linejoin:miter;stroke-opacity:1;marker-end:url(#Arrow2Lend)"/></g><path style="fill:none;stroke:#000;stroke-width:1px;stroke-linecap:butt;stroke-linejoin:miter;stroke-opacity:1;marker-end:url(#Arrow2Lend)" id="path3760-8" d="m 322.34401,110.78525 0,202.6734"/><path style="fill:none;stroke:#000;stroke-width:1px;stroke-linecap:butt;stroke-linejoin:miter;stroke-opacity:1;marker-end:url(#Arrow2Lend)" id="path3760-8-7" d="m 333.96762,316.01593 0,-201.90494"/><path style="fill:none;stroke:#000;stroke-width:.99999994px;stroke-linecap:butt;stroke-linejoin:miter;stroke-opacity:1;marker-end:url(#Arrow2Lend)" id="path3760-8-5" d="m 301.4215,266.71471 0,30.84761"/><g id="g5610"><text id="text3070-5-9-4-8-6" x="375.269" y="270.654" xml:space="preserve" style="font-size:12px;font-style:normal;font-variant:normal;font-weight:400;font-stretch:normal;text-align:center;line-height:125%;letter-spacing:0;word-spacing:0;writing-mode:lr-tb;text-anchor:middle;fill:#000;fill-opacity:1;stroke:none;font-family:DejaVu Sans;-inkscape-font-specification:DejaVu Sans"><tspan id="tspan3080-9-9-9-1-3" x="375.269" y="270.654">config</tspan></text><path id="path3577-2" d="m 168.92989,217.74908 a 8.9114389,9.298893 0 1 1 -17.82288,0 8.9114389,9.298893 0 1 1 17.82288,0 z" transform="matrix(0.95383025,0,0,0.91408731,195.30314,86.899285)" style="fill:#000;fill-opacity:1;stroke:#000;stroke-width:1.07095349;stroke-miterlimit:4;stroke-opacity:1;stroke-dasharray:none;stroke-dashoffset:0"/><path id="path3760-8-5-1" d="m 348.69087,279.30644 0,-37.10951" style="fill:none;stroke:#000;stroke-width:.99999988px;stroke-linecap:butt;stroke-linejoin:miter;stroke-opacity:1;marker-end:url(#Arrow2Lend)"/></g><g id="g5580"><text id="text3070-5-9-4-8-9" x="156.745" y="200.137" xml:space="preserve" style="font-size:12px;font-style:normal;font-variant:normal;font-weight:400;font-stretch:normal;text-align:center;line-height:125%;letter-spacing:0;word-spacing:0;writing-mode:lr-tb;text-anchor:middle;fill:#000;fill-opacity:1;stroke:none;font-family:DejaVu Sans;-inkscape-font-specification:DejaVu Sans"><tspan id="tspan3080-9-9-9-1-33" x="156.745" y="200.137">config</tspan></text><path id="path3577" d="m 168.92989,217.74908 a 8.9114389,9.298893 0 1 1 -17.82288,0 8.9114389,9.298893 0 1 1 17.82288,0 z" transform="matrix(0.95383025,0,0,0.91408731,9.3012966,19.506304)" style="fill:#000;fill-opacity:1;stroke:#000;stroke-width:1.07095349;stroke-miterlimit:4;stroke-opacity:1;stroke-dasharray:none;stroke-dashoffset:0"/><path id="path5070" d="m 168.15498,212.32472 30.99631,-30.2214" style="fill:none;stroke:#000;stroke-width:1px;stroke-linecap:butt;stroke-linejoin:miter;stroke-opacity:1;marker-end:url(#Arrow2Lend-0)"/></g><path style="fill:none;stroke:#000;stroke-width:1px;stroke-linecap:butt;stroke-linejoin:miter;stroke-opacity:1;marker-end:url(#Arrow2Lend-0)" id="path5070-1" d="M 88.120201,312.89513 288.0464,112.19402"/><path style="fill:none;stroke:#000;stroke-width:1px;stroke-linecap:butt;stroke-linejoin:miter;stroke-opacity:1;marker-end:url(#Arrow2Lend-0)" id="path5070-1-1" d="M 302.81384,112.15982 102.88764,312.86093"/><g id="g5574"><text id="text3070-5" x="186.902" y="280.7" xml:space="preserve" style="font-size:12px;font-style:normal;font-variant:normal;font-weight:400;font-stretch:normal;text-align:center;line-height:125%;letter-spacing:0;word-spacing:0;writing-mode:lr-tb;text-anchor:middle;fill:#000;fill-opacity:1;stroke:none;font-family:DejaVu Sans;-inkscape-font-specification:DejaVu Sans"><tspan id="tspan3080-9" x="186.902" y="280.7">state</tspan></text><path id="path3577-5" d="m 168.92989,217.74908 a 8.9114389,9.298893 0 1 1 -17.82288,0 8.9114389,9.298893 0 1 1 17.82288,0 z" transform="matrix(0.95383025,0,0,0.91408731,34.897239,54.353159)" style="fill:#000;fill-opacity:1;stroke:#000;stroke-width:1.07095349;stroke-miterlimit:4;stroke-opacity:1;stroke-dasharray:none;stroke-dashoffset:0"/><path id="path5070-5" d="m 180.77278,259.01201 -30.99631,30.2214" style="fill:none;stroke:#000;stroke-width:1px;stroke-linecap:butt;stroke-linejoin:miter;stroke-opacity:1;marker-end:url(#Arrow2Lend-0)"/></g><path style="fill:none;stroke:#000;stroke-width:1px;stroke-linecap:butt;stroke-linejoin:miter;stroke-opacity:1;marker-end:url(#Arrow2Lend-0)" id="path5070-5-8" d="m 259.03847,175.29676 -30.99631,30.2214"/><g id="g5634"><path id="path3577-50" d="m 168.92989,217.74908 a 8.9114389,9.298893 0 1 1 -17.82288,0 8.9114389,9.298893 0 1 1 17.82288,0 z" transform="matrix(0.95383025,0,0,0.91408731,150.35849,-28.56197)" style="fill:#000;fill-opacity:1;stroke:#000;stroke-width:1.07095349;stroke-miterlimit:4;stroke-opacity:1;stroke-dasharray:none;stroke-dashoffset:0"/><path id="path3760-8-5-9" d="m 302.97132,175.5644 0,30.84761" style="fill:none;stroke:#000;stroke-width:.99999994px;stroke-linecap:butt;stroke-linejoin:miter;stroke-opacity:1;marker-end:url(#Arrow2Lend)"/></g><g id="g5603"><text id="text3070-5-9-4-8-9-4-1" x="363.646" y="167.591" xml:space="preserve" style="font-size:12px;font-style:normal;font-variant:normal;font-weight:400;font-stretch:normal;text-align:center;line-height:125%;letter-spacing:0;word-spacing:0;writing-mode:lr-tb;text-anchor:middle;fill:#000;fill-opacity:1;stroke:none;font-family:DejaVu Sans;-inkscape-font-specification:DejaVu Sans"><tspan id="tspan3080-9-9-9-1-33-6-5" x="363.646" y="167.591">kb</tspan><tspan id="tspan3316" x="363.646" y="182.591">mapping</tspan></text><path id="path3577-9" d="m 168.92989,217.74908 a 8.9114389,9.298893 0 1 1 -17.82288,0 8.9114389,9.298893 0 1 1 17.82288,0 z" transform="matrix(0.95383025,0,0,0.91408731,210.8013,-58.008465)" style="fill:#000;fill-opacity:1;stroke:#000;stroke-width:1.07095349;stroke-miterlimit:4;stroke-opacity:1;stroke-dasharray:none;stroke-dashoffset:0"/><path id="path5070-5-3-9-1" d="m 361.65034,139.66361 30.99631,30.2214" style="fill:none;stroke:#000;stroke-width:1px;stroke-linecap:butt;stroke-linejoin:miter;stroke-opacity:1;marker-end:url(#Arrow2Lend-0)"/></g><path style="fill:none;stroke:#000;stroke-width:1px;stroke-linecap:butt;stroke-linejoin:miter;stroke-opacity:1;marker-end:url(#Arrow2Lend-0)" id="path5070-1-1-0" d="m 354.69537,113.29733 199.9262,200.70112"/><path style="fill:none;stroke:#000;stroke-width:1px;stroke-linecap:butt;stroke-linejoin:miter;stroke-opacity:1;marker-end:url(#Arrow2Lend-0)" id="path5070-1-9" d="M 568.21975,314.45174 368.29356,113.75063"/><g id="g5626"><rect id="rect3499-1" width="27.897" height="26.347" x="488.192" y="188.303" style="fill:#fff;fill-opacity:1;stroke:#000;stroke-width:1;stroke-miterlimit:4;stroke-opacity:1;stroke-dasharray:none;stroke-dashoffset:0"/><text id="text3070-5-9-4-8-9-4" x="497.705" y="169.916" xml:space="preserve" style="font-size:12px;font-style:normal;font-variant:normal;font-weight:400;font-stretch:normal;text-align:center;line-height:125%;letter-spacing:0;word-spacing:0;writing-mode:lr-tb;text-anchor:middle;fill:#000;fill-opacity:1;stroke:none;font-family:DejaVu Sans;-inkscape-font-specification:DejaVu Sans"><tspan id="tspan3080-9-9-9-1-33-6" x="497.705" y="169.916">config</tspan></text><text id="text3070-5-7-6-2" x="502.29" y="205.95" xml:space="preserve" style="font-size:12px;font-style:normal;font-variant:normal;font-weight:400;font-stretch:normal;text-align:center;line-height:125%;letter-spacing:0;word-spacing:0;writing-mode:lr-tb;text-anchor:middle;fill:#000;fill-opacity:1;stroke:none;font-family:DejaVu Sans;-inkscape-font-specification:DejaVu Sans"><tspan id="tspan3080-9-8-3-3" x="502.29" y="205.95">Xkb</tspan></text><path id="path5070-5-3-9-1-1" d="m 487.62396,188.12237 -30.99631,-30.2214" style="fill:none;stroke:#000;stroke-width:1px;stroke-linecap:butt;stroke-linejoin:miter;stroke-opacity:1;marker-end:url(#Arrow2Lend-0)"/></g><path style="fill:none;stroke:#000;stroke-width:1px;stroke-linecap:butt;stroke-linejoin:miter;stroke-opacity:1;marker-end:url(#Arrow2Lend-0)" id="path5070-5-3-9-1-1-7" d="m 565.13933,282.66111 -30.99631,-30.2214"/></g></svg>