<svg xmlns="http://www.w3.org/2000/svg" xmlns:svg="http://www.w3.org/2000/svg" id="svg7561" width="670" height="520" version="1.1"><defs id="defs7563"><marker id="DotL" orient="auto" refX="0" refY="0" style="overflow:visible"><path id="path4613" d="m -2.5,-1 c 0,2.76 -2.24,5 -5,5 -2.76,0 -5,-2.24 -5,-5 0,-2.76 2.24,-5 5,-5 2.76,0 5,2.24 5,5 z" transform="matrix(0.8,0,0,0.8,5.92,0.8)" style="fill-rule:evenodd;stroke:#000;stroke-width:1pt;marker-start:none;marker-end:none"/></marker><marker id="DotM" orient="auto" refX="0" refY="0" style="overflow:visible"><path id="path4616" d="m -2.5,-1 c 0,2.76 -2.24,5 -5,5 -2.76,0 -5,-2.24 -5,-5 0,-2.76 2.24,-5 5,-5 2.76,0 5,2.24 5,5 z" transform="matrix(0.4,0,0,0.4,2.96,0.4)" style="fill-rule:evenodd;stroke:#000;stroke-width:1pt;marker-start:none;marker-end:none"/></marker><marker id="Arrow2Lend" orient="auto" refX="0" refY="0" style="overflow:visible"><path id="path4572" d="M 8.7185878,4.0337352 -2.2072895,0.01601326 8.7185884,-4.0017078 c -1.7454984,2.3720609 -1.7354408,5.6174519 -6e-7,8.035443 z" transform="matrix(-1.1,0,0,-1.1,-1.1,0)" style="font-size:12px;fill-rule:evenodd;stroke-width:.625;stroke-linejoin:round"/></marker><marker id="Arrow2Lend-8" orient="auto" refX="0" refY="0" style="overflow:visible"><path id="path4572-2" d="M 8.7185878,4.0337352 -2.2072895,0.01601326 8.7185884,-4.0017078 c -1.7454984,2.3720609 -1.7354408,5.6174519 -6e-7,8.035443 z" transform="matrix(-1.1,0,0,-1.1,-1.1,0)" style="font-size:12px;fill-rule:evenodd;stroke-width:.625;stroke-linejoin:round"/></marker><marker id="Arrow2Lend-6" orient="auto" refX="0" refY="0" style="overflow:visible"><path id="path4572-4" d="M 8.7185878,4.0337352 -2.2072895,0.01601326 8.7185884,-4.0017078 c -1.7454984,2.3720609 -1.7354408,5.6174519 -6e-7,8.035443 z" transform="matrix(-1.1,0,0,-1.1,-1.1,0)" style="font-size:12px;fill-rule:evenodd;stroke-width:.625;stroke-linejoin:round"/></marker><marker id="DotM-3" orient="auto" refX="0" refY="0" style="overflow:visible"><path id="path4616-6" d="m -2.5,-1 c 0,2.76 -2.24,5 -5,5 -2.76,0 -5,-2.24 -5,-5 0,-2.76 2.24,-5 5,-5 2.76,0 5,2.24 5,5 z" transform="matrix(0.4,0,0,0.4,2.96,0.4)" style="fill-rule:evenodd;stroke:#000;stroke-width:1pt;marker-start:none;marker-end:none"/></marker><marker id="DotM-0" orient="auto" refX="0" refY="0" style="overflow:visible"><path id="path4616-4" d="m -2.5,-1 c 0,2.76 -2.24,5 -5,5 -2.76,0 -5,-2.24 -5,-5 0,-2.76 2.24,-5 5,-5 2.76,0 5,2.24 5,5 z" transform="matrix(0.4,0,0,0.4,2.96,0.4)" style="fill-rule:evenodd;stroke:#000;stroke-width:1pt;marker-start:none;marker-end:none"/></marker><marker id="DotM-0-5" orient="auto" refX="0" refY="0" style="overflow:visible"><path id="path4616-4-1" d="m -2.5,-1 c 0,2.76 -2.24,5 -5,5 -2.76,0 -5,-2.24 -5,-5 0,-2.76 2.24,-5 5,-5 2.76,0 5,2.24 5,5 z" transform="matrix(0.4,0,0,0.4,2.96,0.4)" style="fill-rule:evenodd;stroke:#000;stroke-width:1pt;marker-start:none;marker-end:none"/></marker><marker id="Arrow2Lend-6-2" orient="auto" refX="0" refY="0" style="overflow:visible"><path id="path4572-4-9" d="M 8.7185878,4.0337352 -2.2072895,0.01601326 8.7185884,-4.0017078 c -1.7454984,2.3720609 -1.7354408,5.6174519 -6e-7,8.035443 z" transform="matrix(-1.1,0,0,-1.1,-1.1,0)" style="font-size:12px;fill-rule:evenodd;stroke-width:.625;stroke-linejoin:round"/></marker><marker id="DotM-0-0" orient="auto" refX="0" refY="0" style="overflow:visible"><path id="path4616-4-9" d="m -2.5,-1 c 0,2.76 -2.24,5 -5,5 -2.76,0 -5,-2.24 -5,-5 0,-2.76 2.24,-5 5,-5 2.76,0 5,2.24 5,5 z" transform="matrix(0.4,0,0,0.4,2.96,0.4)" style="fill-rule:evenodd;stroke:#000;stroke-width:1pt;marker-start:none;marker-end:none"/></marker><marker id="Arrow2Lend-6-23" orient="auto" refX="0" refY="0" style="overflow:visible"><path id="path4572-4-1" d="M 8.7185878,4.0337352 -2.2072895,0.01601326 8.7185884,-4.0017078 c -1.7454984,2.3720609 -1.7354408,5.6174519 -6e-7,8.035443 z" transform="matrix(-1.1,0,0,-1.1,-1.1,0)" style="font-size:12px;fill-rule:evenodd;stroke-width:.625;stroke-linejoin:round"/></marker><marker id="DotM-0-7" orient="auto" refX="0" refY="0" style="overflow:visible"><path id="path4616-4-4" d="m -2.5,-1 c 0,2.76 -2.24,5 -5,5 -2.76,0 -5,-2.24 -5,-5 0,-2.76 2.24,-5 5,-5 2.76,0 5,2.24 5,5 z" transform="matrix(0.4,0,0,0.4,2.96,0.4)" style="fill-rule:evenodd;stroke:#000;stroke-width:1pt;marker-start:none;marker-end:none"/></marker><marker id="Arrow2Lend-6-1" orient="auto" refX="0" refY="0" style="overflow:visible"><path id="path4572-4-6" d="M 8.7185878,4.0337352 -2.2072895,0.01601326 8.7185884,-4.0017078 c -1.7454984,2.3720609 -1.7354408,5.6174519 -6e-7,8.035443 z" transform="matrix(-1.1,0,0,-1.1,-1.1,0)" style="font-size:12px;fill-rule:evenodd;stroke-width:.625;stroke-linejoin:round"/></marker><marker id="DotM-8" orient="auto" refX="0" refY="0" style="overflow:visible"><path id="path4616-5" d="m -2.5,-1 c 0,2.76 -2.24,5 -5,5 -2.76,0 -5,-2.24 -5,-5 0,-2.76 2.24,-5 5,-5 2.76,0 5,2.24 5,5 z" transform="matrix(0.4,0,0,0.4,2.96,0.4)" style="fill-rule:evenodd;stroke:#000;stroke-width:1pt;marker-start:none;marker-end:none"/></marker><marker id="DotM-01" orient="auto" refX="0" refY="0" style="overflow:visible"><path id="path4616-2" d="m -2.5,-1 c 0,2.76 -2.24,5 -5,5 -2.76,0 -5,-2.24 -5,-5 0,-2.76 2.24,-5 5,-5 2.76,0 5,2.24 5,5 z" transform="matrix(0.4,0,0,0.4,2.96,0.4)" style="fill-rule:evenodd;stroke:#000;stroke-width:1pt;marker-start:none;marker-end:none"/></marker><marker id="DotM-4" orient="auto" refX="0" refY="0" style="overflow:visible"><path id="path4616-8" d="m -2.5,-1 c 0,2.76 -2.24,5 -5,5 -2.76,0 -5,-2.24 -5,-5 0,-2.76 2.24,-5 5,-5 2.76,0 5,2.24 5,5 z" transform="matrix(0.4,0,0,0.4,2.96,0.4)" style="fill-rule:evenodd;stroke:#000;stroke-width:1pt;marker-start:none;marker-end:none"/></marker></defs><metadata id="metadata7566"/><g id="layer3"><text style="font-size:12px;font-style:normal;font-variant:normal;font-weight:400;font-stretch:normal;text-align:center;line-height:125%;letter-spacing:0;word-spacing:0;writing-mode:lr-tb;text-anchor:middle;fill:#000;fill-opacity:1;stroke:none;font-family:DejaVu Sans;-inkscape-font-specification:DejaVu Sans" id="text8147-3-1-6-7" x="335.141" y="33.256" xml:space="preserve"><tspan id="tspan8527" x="335.141" y="33.256">Xkb State</tspan></text><g id="g3253"><rect id="rect7637" width="159.262" height="37.417" x="9.118" y="35.498" style="fill:#fff;stroke:#000;stroke-width:1;stroke-miterlimit:4;stroke-opacity:1;stroke-dasharray:none;stroke-dashoffset:0"/><text id="text8147" x="88.456" y="58.68" xml:space="preserve" style="font-size:12px;font-style:normal;font-variant:normal;font-weight:400;font-stretch:normal;text-align:center;line-height:125%;letter-spacing:0;word-spacing:0;writing-mode:lr-tb;text-anchor:middle;fill:#000;fill-opacity:1;stroke:none;font-family:DejaVu Sans;-inkscape-font-specification:DejaVu Sans"><tspan id="tspan8149" x="88.456" y="58.68">Base Modifiers</tspan></text></g><g id="g3258"><rect id="rect7637-7" width="159.262" height="37.417" x="9.118" y="82.349" style="fill:#fff;stroke:#000;stroke-width:1;stroke-miterlimit:4;stroke-opacity:1;stroke-dasharray:none;stroke-dashoffset:0"/><text id="text8147-3" x="88.488" y="104.263" xml:space="preserve" style="font-size:12px;font-style:normal;font-variant:normal;font-weight:400;font-stretch:normal;text-align:center;line-height:125%;letter-spacing:0;word-spacing:0;writing-mode:lr-tb;text-anchor:middle;fill:#000;fill-opacity:1;stroke:none;font-family:DejaVu Sans;-inkscape-font-specification:DejaVu Sans"><tspan id="tspan8172" x="88.488" y="104.263">Base Group</tspan></text></g><g id="g3263"><rect id="rect7637-9" width="159.262" height="37.417" x="9.118" y="129.2" style="fill:#fff;stroke:#000;stroke-width:1;stroke-miterlimit:4;stroke-opacity:1;stroke-dasharray:none;stroke-dashoffset:0"/><text id="text8147-3-1" x="88.456" y="152.383" xml:space="preserve" style="font-size:12px;font-style:normal;font-variant:normal;font-weight:400;font-stretch:normal;text-align:center;line-height:125%;letter-spacing:0;word-spacing:0;writing-mode:lr-tb;text-anchor:middle;fill:#000;fill-opacity:1;stroke:none;font-family:DejaVu Sans;-inkscape-font-specification:DejaVu Sans"><tspan id="tspan8195" x="88.456" y="152.383">Locked Modifiers</tspan></text></g><g id="g3268"><rect id="rect7637-5" width="159.262" height="37.417" x="9.118" y="176.052" style="fill:#fff;stroke:#000;stroke-width:1;stroke-miterlimit:4;stroke-opacity:1;stroke-dasharray:none;stroke-dashoffset:0"/><text id="text8147-3-8" x="88.488" y="198.071" xml:space="preserve" style="font-size:12px;font-style:normal;font-variant:normal;font-weight:400;font-stretch:normal;text-align:center;line-height:125%;letter-spacing:0;word-spacing:0;writing-mode:lr-tb;text-anchor:middle;fill:#000;fill-opacity:1;stroke:none;font-family:DejaVu Sans;-inkscape-font-specification:DejaVu Sans"><tspan id="tspan8206" x="88.488" y="198.071">Locked Group</tspan></text></g><g id="g3273"><rect id="rect7637-6" width="159.262" height="37.417" x="9.118" y="222.903" style="fill:#fff;stroke:#000;stroke-width:1;stroke-miterlimit:4;stroke-opacity:1;stroke-dasharray:none;stroke-dashoffset:0"/><text id="text8147-3-8-0" x="88.456" y="246.085" xml:space="preserve" style="font-size:12px;font-style:normal;font-variant:normal;font-weight:400;font-stretch:normal;text-align:center;line-height:125%;letter-spacing:0;word-spacing:0;writing-mode:lr-tb;text-anchor:middle;fill:#000;fill-opacity:1;stroke:none;font-family:DejaVu Sans;-inkscape-font-specification:DejaVu Sans"><tspan id="tspan8229" x="88.456" y="246.085">Latched Modifiers</tspan></text></g><g id="g3278"><rect id="rect7637-8" width="159.262" height="37.417" x="9.118" y="269.754" style="fill:#fff;stroke:#000;stroke-width:1;stroke-miterlimit:4;stroke-opacity:1;stroke-dasharray:none;stroke-dashoffset:0"/><text id="text8147-3-8-0-2" x="88.488" y="291.773" xml:space="preserve" style="font-size:12px;font-style:normal;font-variant:normal;font-weight:400;font-stretch:normal;text-align:center;line-height:125%;letter-spacing:0;word-spacing:0;writing-mode:lr-tb;text-anchor:middle;fill:#000;fill-opacity:1;stroke:none;font-family:DejaVu Sans;-inkscape-font-specification:DejaVu Sans"><tspan id="tspan8252" x="88.488" y="291.773">Latched Group</tspan></text></g><g id="g3283"><rect id="rect7637-95" width="159.262" height="37.417" x="9.118" y="316.605" style="fill:#fff;stroke:#000;stroke-width:1;stroke-miterlimit:4;stroke-opacity:1;stroke-dasharray:none;stroke-dashoffset:0"/><text id="text8147-3-8-0-2-9" x="88.708" y="339.787" xml:space="preserve" style="font-size:12px;font-style:normal;font-variant:normal;font-weight:400;font-stretch:normal;text-align:center;line-height:125%;letter-spacing:0;word-spacing:0;writing-mode:lr-tb;text-anchor:middle;fill:#000;fill-opacity:1;stroke:none;font-family:DejaVu Sans;-inkscape-font-specification:DejaVu Sans"><tspan id="tspan8275" x="88.708" y="339.787">Core Pointer Buttons</tspan></text></g><g id="g3288"><rect id="rect7637-52" width="159.262" height="37.417" x="9.118" y="363.456" style="fill:#fff;stroke:#000;stroke-width:1;stroke-miterlimit:4;stroke-opacity:1;stroke-dasharray:none;stroke-dashoffset:0"/><text id="text8147-3-8-0-2-9-9" x="88.649" y="386.638" xml:space="preserve" style="font-size:12px;font-style:normal;font-variant:normal;font-weight:400;font-stretch:normal;text-align:center;line-height:125%;letter-spacing:0;word-spacing:0;writing-mode:lr-tb;text-anchor:middle;fill:#000;fill-opacity:1;stroke:none;font-family:DejaVu Sans;-inkscape-font-specification:DejaVu Sans"><tspan id="tspan8298" x="88.649" y="386.638">Server Internal Modifiers</tspan></text></g><g id="g3293"><rect id="rect7637-1" width="159.262" height="37.417" x="9.118" y="410.308" style="fill:#fff;stroke:#000;stroke-width:1;stroke-miterlimit:4;stroke-opacity:1;stroke-dasharray:none;stroke-dashoffset:0"/><text id="text8147-3-8-0-2-9-9-3" x="88.456" y="432.327" xml:space="preserve" style="font-size:12px;font-style:normal;font-variant:normal;font-weight:400;font-stretch:normal;text-align:center;line-height:125%;letter-spacing:0;word-spacing:0;writing-mode:lr-tb;text-anchor:middle;fill:#000;fill-opacity:1;stroke:none;font-family:DejaVu Sans;-inkscape-font-specification:DejaVu Sans"><tspan id="tspan8321" x="88.456" y="432.327">IgnoreLock Modifiers</tspan></text></g><g id="g3298"><rect id="rect7637-59" width="159.262" height="37.417" x="9.118" y="457.159" style="fill:#fff;stroke:#000;stroke-width:1;stroke-miterlimit:4;stroke-opacity:1;stroke-dasharray:none;stroke-dashoffset:0"/><text id="text8147-3-8-0-2-9-9-3-8" x="88.184" y="479.178" xml:space="preserve" style="font-size:12px;font-style:normal;font-variant:normal;font-weight:400;font-stretch:normal;text-align:center;line-height:125%;letter-spacing:0;word-spacing:0;writing-mode:lr-tb;text-anchor:middle;fill:#000;fill-opacity:1;stroke:none;font-family:DejaVu Sans;-inkscape-font-specification:DejaVu Sans"><tspan id="tspan8344" x="88.184" y="479.178">IgnoreGroupLock</tspan></text></g><g id="g3303"><rect id="rect7637-91" width="244.649" height="37.417" x="198.122" y="450.443" style="fill:#fff;stroke:#000;stroke-width:1;stroke-miterlimit:4;stroke-opacity:1;stroke-dasharray:none;stroke-dashoffset:0"/><text id="text8147-3-7-0-3" x="320.438" y="472.462" xml:space="preserve" style="font-size:12px;font-style:normal;font-variant:normal;font-weight:400;font-stretch:normal;text-align:center;line-height:125%;letter-spacing:0;word-spacing:0;writing-mode:lr-tb;text-anchor:middle;fill:#000;fill-opacity:1;stroke:none;font-family:DejaVu Sans;-inkscape-font-specification:DejaVu Sans"><tspan id="tspan8504" x="320.438" y="472.462">Compatibility Map</tspan></text></g><g id="g3318"><rect id="rect7637-62" width="116.089" height="37.417" x="212.033" y="168.376" style="fill:#fff;stroke:#000;stroke-width:1;stroke-miterlimit:4;stroke-opacity:1;stroke-dasharray:none;stroke-dashoffset:0"/><text id="text8147-3-7" x="269.817" y="190.395" xml:space="preserve" style="font-size:12px;font-style:normal;font-variant:normal;font-weight:400;font-stretch:normal;text-align:center;line-height:125%;letter-spacing:0;word-spacing:0;writing-mode:lr-tb;text-anchor:middle;fill:#000;fill-opacity:1;stroke:none;font-family:DejaVu Sans;-inkscape-font-specification:DejaVu Sans"><tspan id="tspan8390" x="269.817" y="190.395">Effective Group</tspan></text></g><g id="g3323"><rect id="rect7637-10" width="118.007" height="37.417" x="211.074" y="122.325" style="fill:#fff;stroke:#000;stroke-width:1;stroke-miterlimit:4;stroke-opacity:1;stroke-dasharray:none;stroke-dashoffset:0"/><text id="text8147-3-1-6" x="269.785" y="145.507" xml:space="preserve" style="font-size:12px;font-style:normal;font-variant:normal;font-weight:400;font-stretch:normal;text-align:center;line-height:125%;letter-spacing:0;word-spacing:0;writing-mode:lr-tb;text-anchor:middle;fill:#000;fill-opacity:1;stroke:none;font-family:DejaVu Sans;-inkscape-font-specification:DejaVu Sans"><tspan id="tspan8367" x="269.785" y="145.507">Effective Modifiers</tspan></text></g><g id="g3338"><rect id="rect7637-53" width="170.775" height="37.417" x="490.107" y="61.882" style="fill:#fff;stroke:#000;stroke-width:.99999994000000003;stroke-miterlimit:4;stroke-opacity:1;stroke-dasharray:none;stroke-dashoffset:0"/><text id="text8147-3-7-7" x="575.477" y="83.901" xml:space="preserve" style="font-size:12px;font-style:normal;font-variant:normal;font-weight:400;font-stretch:normal;text-align:center;line-height:125%;letter-spacing:0;word-spacing:0;writing-mode:lr-tb;text-anchor:middle;fill:#000;fill-opacity:1;stroke:none;font-family:DejaVu Sans;-inkscape-font-specification:DejaVu Sans"><tspan id="tspan8431" x="575.477" y="83.901">Compatibility State</tspan></text></g><g id="g3333"><rect id="rect7637-53-2" width="170.775" height="37.417" x="490.107" y="108.893" style="fill:#fff;stroke:#000;stroke-width:.99999994000000003;stroke-miterlimit:4;stroke-opacity:1;stroke-dasharray:none;stroke-dashoffset:0"/><text id="text8147-3-7-1" x="575.477" y="130.912" xml:space="preserve" style="font-size:12px;font-style:normal;font-variant:normal;font-weight:400;font-stretch:normal;text-align:center;line-height:125%;letter-spacing:0;word-spacing:0;writing-mode:lr-tb;text-anchor:middle;fill:#000;fill-opacity:1;stroke:none;font-family:DejaVu Sans;-inkscape-font-specification:DejaVu Sans"><tspan id="tspan8433" x="575.477" y="130.912">Compatibility Lookup State</tspan></text></g><g id="g3328"><rect id="rect7637-53-1" width="170.775" height="37.417" x="490.107" y="155.904" style="fill:#fff;stroke:#000;stroke-width:.99999994000000003;stroke-miterlimit:4;stroke-opacity:1;stroke-dasharray:none;stroke-dashoffset:0"/><text id="text8147-3-7-0" x="575.477" y="177.923" xml:space="preserve" style="font-size:12px;font-style:normal;font-variant:normal;font-weight:400;font-stretch:normal;text-align:center;line-height:125%;letter-spacing:0;word-spacing:0;writing-mode:lr-tb;text-anchor:middle;fill:#000;fill-opacity:1;stroke:none;font-family:DejaVu Sans;-inkscape-font-specification:DejaVu Sans"><tspan id="tspan8435" x="575.477" y="177.923">Compatibility Grab State</tspan></text></g><g id="g3313"><rect id="rect7637-53-9" width="87.306" height="37.417" x="356.034" y="244.17" style="fill:#fff;stroke:#000;stroke-width:.99999994000000003;stroke-miterlimit:4;stroke-opacity:1;stroke-dasharray:none;stroke-dashoffset:0"/><text id="text8147-3-7-1-4" x="399.418" y="266.189" xml:space="preserve" style="font-size:12px;font-style:normal;font-variant:normal;font-weight:400;font-stretch:normal;text-align:center;line-height:125%;letter-spacing:0;word-spacing:0;writing-mode:lr-tb;text-anchor:middle;fill:#000;fill-opacity:1;stroke:none;font-family:DejaVu Sans;-inkscape-font-specification:DejaVu Sans"><tspan id="tspan8458" x="399.418" y="266.189">Lookup State</tspan></text></g><g id="g3308"><rect id="rect7637-53-7" width="88.266" height="37.417" x="355.555" y="291.181" style="fill:#fff;stroke:#000;stroke-width:.99999994000000003;stroke-miterlimit:4;stroke-opacity:1;stroke-dasharray:none;stroke-dashoffset:0"/><text id="text8147-3-7-1-4-3" x="399.67" y="314.363" xml:space="preserve" style="font-size:12px;font-style:normal;font-variant:normal;font-weight:400;font-stretch:normal;text-align:center;line-height:125%;letter-spacing:0;word-spacing:0;writing-mode:lr-tb;text-anchor:middle;fill:#000;fill-opacity:1;stroke:none;font-family:DejaVu Sans;-inkscape-font-specification:DejaVu Sans"><tspan id="tspan8481" x="399.67" y="314.363">Grab State</tspan></text></g><path style="fill:none;stroke:#000;stroke-width:.99999994px;stroke-linecap:butt;stroke-linejoin:miter;stroke-opacity:1" id="path8799" d="m 185.64946,427.89668 149.6679,-0.95941 0,-282.06642 -6.02113,0"/><path style="fill:none;stroke:#000;stroke-width:1px;stroke-linecap:butt;stroke-linejoin:miter;stroke-opacity:1" id="path8801" d="m 168.38009,381.84502 17.26937,0 0,94.02214 -18.22878,0"/><path style="fill:none;stroke:#000;stroke-width:1px;stroke-linecap:butt;stroke-linejoin:miter;stroke-opacity:1;marker-end:url(#Arrow2Lend)" id="path8803" d="m 442.77123,480.66421 28.96581,0 -1.15863,-305.09225 18.53812,0"/><path style="fill:none;stroke:#000;stroke-width:.99999994px;stroke-linecap:butt;stroke-linejoin:miter;stroke-opacity:1;marker-end:url(#Arrow2Lend)" id="path8803-0" d="m 442.60077,472.07926 21.09747,0 -1.12543,-345.82442 27.04511,0"/><path style="fill:none;stroke:#000;stroke-width:1px;stroke-linecap:butt;stroke-linejoin:miter;stroke-opacity:1;marker-end:url(#Arrow2Lend)" id="path8803-0-3" d="m 442.60076,463.2001 12.40003,0 -0.99261,-378.9797 34.29711,0"/><path style="fill:none;stroke:#000;stroke-width:1px;stroke-linecap:butt;stroke-linejoin:miter;stroke-opacity:1;marker-end:url(#DotM)" id="path9037" d="m 330.52031,133.35793 123.75066,0"/><path style="fill:none;stroke:#000;stroke-width:.99999994px;stroke-linecap:butt;stroke-linejoin:miter;stroke-opacity:1;marker-end:url(#DotM)" id="path9037-9" d="m 443.32127,265.75646 19.58768,0"/><path style="fill:none;stroke:#000;stroke-width:1px;stroke-linecap:butt;stroke-linejoin:miter;stroke-opacity:1;marker-end:url(#DotM)" id="path9037-9-8" d="m 443.97231,310.84871 26.83692,0"/><path style="fill:none;stroke:#000;stroke-width:1px;stroke-linecap:butt;stroke-linejoin:miter;stroke-opacity:1;marker-start:url(#DotM-0);marker-end:url(#Arrow2Lend-6)" id="path9659" d="m 335.46528,261.91882 19.26786,0"/><path style="fill:none;stroke:#000;stroke-width:1px;stroke-linecap:butt;stroke-linejoin:miter;stroke-opacity:1;marker-start:url(#DotM-0);marker-end:url(#Arrow2Lend-6)" id="path9659-7" d="m 335.46656,309.90691 19.59605,0"/><path style="fill:none;stroke:#000;stroke-width:1px;stroke-linecap:butt;stroke-linejoin:miter;stroke-opacity:1" id="path8801-3" d="m 170.00386,100.73801 20.59313,0 0,188.04428 -21.7372,0"/><path style="fill:none;stroke:#000;stroke-width:1px;stroke-linecap:butt;stroke-linejoin:miter;stroke-opacity:1" id="path8801-3-8" d="m 170.5868,53.72694 9.22388,0 0,188.04428 -11.99149,0"/><path style="fill:none;stroke:#000;stroke-width:.99999994px;stroke-linecap:butt;stroke-linejoin:miter;stroke-opacity:1;marker-start:url(#DotM-0);marker-end:url(#Arrow2Lend-6)" id="path9659-8" d="m 180.03866,141.05082 30.28757,0"/><path style="fill:none;stroke:#000;stroke-width:1px;stroke-linecap:butt;stroke-linejoin:miter;stroke-opacity:1;marker-start:url(#DotM-0);marker-end:url(#Arrow2Lend-6)" id="path9659-8-3" d="m 190.69638,187.10249 19.46647,0"/><path style="fill:none;stroke:#000;stroke-width:1px;stroke-linecap:butt;stroke-linejoin:miter;stroke-opacity:1;marker-end:url(#DotM)" id="path9037-9-5" d="m 168.45721,198.59779 22.01747,0"/><path style="fill:none;stroke:#000;stroke-width:.99999994px;stroke-linecap:butt;stroke-linejoin:miter;stroke-opacity:1;marker-end:url(#DotM)" id="path9037-9-5-6" d="m 168.24737,152.54612 11.49327,0"/><path style="fill:none;stroke:#000;stroke-width:1px;stroke-linecap:butt;stroke-linejoin:miter;stroke-opacity:1;marker-end:url(#DotM)" id="path9037-9-5-5" d="m 168.48723,427.89668 17.30607,0"/></g></svg>