<svg xmlns="http://www.w3.org/2000/svg" xmlns:svg="http://www.w3.org/2000/svg" id="svg2" width="550" height="150" version="1.1" style="display:inline"><defs id="defs4"><marker id="Arrow2Mend" orient="auto" refX="0" refY="0" style="overflow:visible"><path id="path4715" d="M 8.7185878,4.0337352 -2.2072895,0.01601326 8.7185884,-4.0017078 c -1.7454984,2.3720609 -1.7354408,5.6174519 -6e-7,8.035443 z" transform="scale(-0.6,-0.6)" style="font-size:12px;fill-rule:evenodd;stroke-width:.625;stroke-linejoin:round"/></marker><marker id="Arrow2Mend-7" orient="auto" refX="0" refY="0" style="overflow:visible"><path id="path4715-3" d="M 8.7185878,4.0337352 -2.2072895,0.01601326 8.7185884,-4.0017078 c -1.7454984,2.3720609 -1.7354408,5.6174519 -6e-7,8.035443 z" transform="scale(-0.6,-0.6)" style="font-size:12px;fill-rule:evenodd;stroke-width:.625;stroke-linejoin:round"/></marker></defs><metadata id="metadata7"/><g id="layer2"><g id="g3161"><rect id="rect4240" width="100.42" height="24.816" x="281.637" y="48.426" rx="8.657" ry="0" style="fill:#fff;stroke:#000;stroke-width:1;stroke-miterlimit:4;stroke-opacity:1;stroke-dasharray:none;stroke-dashoffset:0"/><text id="text3086-4-1" x="287.226" y="120.414" xml:space="preserve" style="font-size:12px;font-style:normal;font-variant:normal;font-weight:700;font-stretch:normal;text-align:start;line-height:125%;letter-spacing:0;word-spacing:0;writing-mode:lr-tb;text-anchor:start;fill:#000;fill-opacity:1;stroke:none;font-family:DejaVu Sans;-inkscape-font-specification:DejaVu Sans Bold"><tspan id="tspan3134" x="287.226" y="120.414">Core Symbols</tspan></text><g id="text3086-4-1-7-4" transform="matrix(1.163736,0,0,1.163736,55.863634,-154.12909)" style="font-size:12px;font-style:normal;font-variant:normal;font-weight:700;font-stretch:normal;text-align:start;line-height:125%;letter-spacing:0;word-spacing:0;writing-mode:lr-tb;text-anchor:start;fill:#000;fill-opacity:1;stroke:none;font-family:DejaVu Sans;-inkscape-font-specification:DejaVu Sans Bold"><path id="path3234-7" d="m 268.03934,181.84424 -1.5,3.57422 2.20898,0 0,-3.57422 -0.70898,0 m -1.5586,-1.5 8.34961,0 0,1.70508 -3.82617,0 0,1.6289 3.59766,0 0,1.70508 -3.59766,0 0,2.00391 3.96094,0 0,1.70508 -6.2168,0 0,-2.05079 -2.89453,0 -0.86133,2.05079 -2.17383,0 3.66211,-8.74805"/></g><g id="text3086-4-1-7-2-3" transform="translate(199.4078,-128.3859)" style="font-size:14px;font-style:normal;font-variant:normal;font-weight:700;font-stretch:normal;text-align:start;line-height:125%;letter-spacing:0;word-spacing:0;writing-mode:lr-tb;text-anchor:start;fill:#000;fill-opacity:1;stroke:none;font-family:DejaVu Sans;-inkscape-font-specification:DejaVu Sans Bold"><path id="path3267-7" d="m 148.543,188.37929 c -1e-5,-0.46484 -0.13673,-0.83854 -0.41016,-1.1211 -0.26889,-0.2871 -0.62208,-0.43065 -1.05957,-0.43066 -0.46941,1e-5 -0.84994,0.13445 -1.1416,0.40332 -0.29167,0.26433 -0.47397,0.64714 -0.54687,1.14844 l 3.1582,0 m -6.87012,1.21679 c -0.51042,1e-5 -0.89551,0.0866 -1.15527,0.25977 -0.25521,0.17318 -0.38282,0.42839 -0.38281,0.76563 -1e-5,0.30989 0.10253,0.55371 0.30761,0.73144 0.20964,0.17318 0.49902,0.25977 0.86817,0.25977 0.46028,0 0.84765,-0.16406 1.16211,-0.49219 0.31444,-0.33268 0.47167,-0.74739 0.47168,-1.24414 l 0,-0.28028 -1.27149,0 m -3.33594,-4.00585 c 0.54232,-0.1276 1.06641,-0.2233 1.57227,-0.28711 0.51041,-0.0684 0.98665,-0.10254 1.42871,-0.10254 0.68359,0 1.27148,0.0889 1.76367,0.2666 0.49674,0.17318 0.9069,0.43978 1.23047,0.7998 0.35091,-0.3509 0.75878,-0.61522 1.22363,-0.79297 0.46484,-0.18228 0.97526,-0.27343 1.53125,-0.27343 1.20768,0 2.17154,0.36231 2.89161,1.08691 0.72459,0.72462 1.0869,1.69304 1.08691,2.90527 l 0,0.69727 -5.72852,0 c 0.0638,0.57422 0.27115,1.00488 0.62207,1.29199 0.35546,0.28711 0.85449,0.43067 1.49708,0.43067 0.51496,0 1.04132,-0.0752 1.5791,-0.22559 0.5423,-0.15495 1.09829,-0.38737 1.66797,-0.69727 l 0,1.88672 c -0.57879,0.21875 -1.15985,0.38282 -1.74317,0.49219 -0.57879,0.11393 -1.15528,0.1709 -1.72949,0.1709 -0.81577,0 -1.5267,-0.12077 -2.13281,-0.36231 -0.60157,-0.24609 -1.06642,-0.597 -1.39453,-1.05273 -0.4603,0.48763 -0.94565,0.84538 -1.45606,1.07324 -0.50586,0.22787 -1.07552,0.3418 -1.70898,0.3418 -0.88412,0 -1.58366,-0.22331 -2.09864,-0.66992 -0.51497,-0.45117 -0.77246,-1.05957 -0.77246,-1.8252 0,-0.89778 0.30762,-1.55631 0.92285,-1.97558 0.61979,-0.41927 1.5905,-0.62891 2.91211,-0.62891 l 1.44239,0 0,-0.19141 c -1e-5,-0.38736 -0.15268,-0.66991 -0.45801,-0.84765 -0.30535,-0.18229 -0.78158,-0.27343 -1.42871,-0.27344 -0.52409,1e-5 -1.01172,0.0524 -1.46289,0.15723 -0.45118,0.10482 -0.87045,0.26205 -1.25782,0.47168 l 0,-1.86621"/></g><text id="text3353-9-87" x="313.348" y="65.937" xml:space="preserve" style="font-size:14px;font-style:normal;font-variant:normal;font-weight:700;font-stretch:normal;text-align:start;line-height:125%;letter-spacing:0;word-spacing:0;writing-mode:lr-tb;text-anchor:start;fill:#000;fill-opacity:1;stroke:none;font-family:DejaVu Sans;-inkscape-font-specification:DejaVu Sans Bold"><tspan id="tspan3378-31" x="313.348" y="65.937">A</tspan></text><text id="text3353-3" x="289.282" y="64.655" xml:space="preserve" style="font-size:14px;font-style:normal;font-variant:normal;font-weight:700;font-stretch:normal;text-align:start;line-height:125%;letter-spacing:0;word-spacing:0;writing-mode:lr-tb;text-anchor:start;fill:#000;fill-opacity:1;stroke:none;font-family:DejaVu Sans;-inkscape-font-specification:DejaVu Sans Bold"><tspan id="tspan3355-1" x="289.282" y="64.655">a</tspan></text><path id="rect4240-7" d="m 306.26094,73.242392 0,-24.81637" style="fill:none;stroke:#000;stroke-width:1;stroke-miterlimit:4;stroke-opacity:1;stroke-dashoffset:0"/><path id="rect4240-7-9" d="m 331.26965,73.242392 0,-24.81637" style="fill:none;stroke:#000;stroke-width:1;stroke-miterlimit:4;stroke-opacity:1;stroke-dashoffset:0"/><path id="rect4240-7-1" d="m 356.2784,73.242392 0,-24.81637" style="fill:none;stroke:#000;stroke-width:1;stroke-miterlimit:4;stroke-opacity:1;stroke-dashoffset:0"/><text id="text4325" x="286.254" y="44.386" xml:space="preserve" style="font-size:12px;font-style:normal;font-variant:normal;font-weight:400;font-stretch:normal;text-align:start;line-height:125%;letter-spacing:0;word-spacing:0;writing-mode:lr-tb;text-anchor:start;fill:#000;fill-opacity:1;stroke:none;font-family:DejaVu Sans;-inkscape-font-specification:DejaVu Sans"><tspan id="tspan4327" x="286.254" y="44.386">L1</tspan></text><text id="text4325-5" x="312.535" y="44.465" xml:space="preserve" style="font-size:12px;font-style:normal;font-variant:normal;font-weight:400;font-stretch:normal;text-align:start;line-height:125%;letter-spacing:0;word-spacing:0;writing-mode:lr-tb;text-anchor:start;fill:#000;fill-opacity:1;stroke:none;font-family:DejaVu Sans;-inkscape-font-specification:DejaVu Sans"><tspan id="tspan4350" x="312.535" y="44.465">L2</tspan></text><text id="text4325-9" x="336.774" y="44.386" xml:space="preserve" style="font-size:12px;font-style:normal;font-variant:normal;font-weight:400;font-stretch:normal;text-align:start;line-height:125%;letter-spacing:0;word-spacing:0;writing-mode:lr-tb;text-anchor:start;fill:#000;fill-opacity:1;stroke:none;font-family:DejaVu Sans;-inkscape-font-specification:DejaVu Sans"><tspan id="tspan4327-1" x="336.774" y="44.386">L1</tspan></text><text id="text4325-5-8" x="361.06" y="44.465" xml:space="preserve" style="font-size:12px;font-style:normal;font-variant:normal;font-weight:400;font-stretch:normal;text-align:start;line-height:125%;letter-spacing:0;word-spacing:0;writing-mode:lr-tb;text-anchor:start;fill:#000;fill-opacity:1;stroke:none;font-family:DejaVu Sans;-inkscape-font-specification:DejaVu Sans"><tspan id="tspan4350-8" x="361.06" y="44.465">L2</tspan></text><text id="text4325-79" x="298.107" y="86.273" xml:space="preserve" style="font-size:12px;font-style:normal;font-variant:normal;font-weight:400;font-stretch:normal;text-align:start;line-height:125%;letter-spacing:0;word-spacing:0;writing-mode:lr-tb;text-anchor:start;fill:#000;fill-opacity:1;stroke:none;font-family:DejaVu Sans;-inkscape-font-specification:DejaVu Sans"><tspan id="tspan4457" x="298.107" y="86.273">G1</tspan></text><text id="text4325-79-6" x="347.833" y="86.273" xml:space="preserve" style="font-size:12px;font-style:normal;font-variant:normal;font-weight:400;font-stretch:normal;text-align:start;line-height:125%;letter-spacing:0;word-spacing:0;writing-mode:lr-tb;text-anchor:start;fill:#000;fill-opacity:1;stroke:none;font-family:DejaVu Sans;-inkscape-font-specification:DejaVu Sans"><tspan id="tspan4480" x="347.833" y="86.273">G2</tspan></text></g><g id="g3138"><rect id="rect4286" width="48.478" height="48.478" x="459.391" y="44.386" rx="0" style="fill:#fff;stroke:#000;stroke-width:1;stroke-miterlimit:4;stroke-opacity:1;stroke-dasharray:none;stroke-dashoffset:0"/><text id="text3086-4-1-6" x="431.916" y="120.414" xml:space="preserve" style="font-size:12px;font-style:normal;font-variant:normal;font-weight:700;font-stretch:normal;text-align:start;line-height:125%;letter-spacing:0;word-spacing:0;writing-mode:lr-tb;text-anchor:start;fill:#000;fill-opacity:1;stroke:none;font-family:DejaVu Sans;-inkscape-font-specification:DejaVu Sans Bold"><tspan id="tspan3157" x="431.916" y="120.414">Xkb Symbols</tspan></text><g id="text3086-4-1-7-8" transform="matrix(1.163736,0,0,1.163736,182.83109,-133.64116)" style="font-size:12px;font-style:normal;font-variant:normal;font-weight:700;font-stretch:normal;text-align:start;line-height:125%;letter-spacing:0;word-spacing:0;writing-mode:lr-tb;text-anchor:start;fill:#000;fill-opacity:1;stroke:none;font-family:DejaVu Sans;-inkscape-font-specification:DejaVu Sans Bold"><path id="path3234-6" d="m 268.03934,181.84424 -1.5,3.57422 2.20898,0 0,-3.57422 -0.70898,0 m -1.5586,-1.5 8.34961,0 0,1.70508 -3.82617,0 0,1.6289 3.59766,0 0,1.70508 -3.59766,0 0,2.00391 3.96094,0 0,1.70508 -6.2168,0 0,-2.05079 -2.89453,0 -0.86133,2.05079 -2.17383,0 3.66211,-8.74805"/></g><g id="text3086-4-1-7-2-3-7" transform="translate(327.14478,-106.82729)" style="font-size:14px;font-style:normal;font-variant:normal;font-weight:700;font-stretch:normal;text-align:start;line-height:125%;letter-spacing:0;word-spacing:0;writing-mode:lr-tb;text-anchor:start;fill:#000;fill-opacity:1;stroke:none;font-family:DejaVu Sans;-inkscape-font-specification:DejaVu Sans Bold"><path id="path3267-7-2" d="m 148.543,188.37929 c -1e-5,-0.46484 -0.13673,-0.83854 -0.41016,-1.1211 -0.26889,-0.2871 -0.62208,-0.43065 -1.05957,-0.43066 -0.46941,1e-5 -0.84994,0.13445 -1.1416,0.40332 -0.29167,0.26433 -0.47397,0.64714 -0.54687,1.14844 l 3.1582,0 m -6.87012,1.21679 c -0.51042,1e-5 -0.89551,0.0866 -1.15527,0.25977 -0.25521,0.17318 -0.38282,0.42839 -0.38281,0.76563 -1e-5,0.30989 0.10253,0.55371 0.30761,0.73144 0.20964,0.17318 0.49902,0.25977 0.86817,0.25977 0.46028,0 0.84765,-0.16406 1.16211,-0.49219 0.31444,-0.33268 0.47167,-0.74739 0.47168,-1.24414 l 0,-0.28028 -1.27149,0 m -3.33594,-4.00585 c 0.54232,-0.1276 1.06641,-0.2233 1.57227,-0.28711 0.51041,-0.0684 0.98665,-0.10254 1.42871,-0.10254 0.68359,0 1.27148,0.0889 1.76367,0.2666 0.49674,0.17318 0.9069,0.43978 1.23047,0.7998 0.35091,-0.3509 0.75878,-0.61522 1.22363,-0.79297 0.46484,-0.18228 0.97526,-0.27343 1.53125,-0.27343 1.20768,0 2.17154,0.36231 2.89161,1.08691 0.72459,0.72462 1.0869,1.69304 1.08691,2.90527 l 0,0.69727 -5.72852,0 c 0.0638,0.57422 0.27115,1.00488 0.62207,1.29199 0.35546,0.28711 0.85449,0.43067 1.49708,0.43067 0.51496,0 1.04132,-0.0752 1.5791,-0.22559 0.5423,-0.15495 1.09829,-0.38737 1.66797,-0.69727 l 0,1.88672 c -0.57879,0.21875 -1.15985,0.38282 -1.74317,0.49219 -0.57879,0.11393 -1.15528,0.1709 -1.72949,0.1709 -0.81577,0 -1.5267,-0.12077 -2.13281,-0.36231 -0.60157,-0.24609 -1.06642,-0.597 -1.39453,-1.05273 -0.4603,0.48763 -0.94565,0.84538 -1.45606,1.07324 -0.50586,0.22787 -1.07552,0.3418 -1.70898,0.3418 -0.88412,0 -1.58366,-0.22331 -2.09864,-0.66992 -0.51497,-0.45117 -0.77246,-1.05957 -0.77246,-1.8252 0,-0.89778 0.30762,-1.55631 0.92285,-1.97558 0.61979,-0.41927 1.5905,-0.62891 2.91211,-0.62891 l 1.44239,0 0,-0.19141 c -1e-5,-0.38736 -0.15268,-0.66991 -0.45801,-0.84765 -0.30535,-0.18229 -0.78158,-0.27343 -1.42871,-0.27344 -0.52409,1e-5 -1.01172,0.0524 -1.46289,0.15723 -0.45118,0.10482 -0.87045,0.26205 -1.25782,0.47168 l 0,-1.86621"/></g><text id="text3353-9-0" x="490.333" y="61.609" xml:space="preserve" style="font-size:14px;font-style:normal;font-variant:normal;font-weight:700;font-stretch:normal;text-align:start;line-height:125%;letter-spacing:0;word-spacing:0;writing-mode:lr-tb;text-anchor:start;fill:#000;fill-opacity:1;stroke:none;font-family:DejaVu Sans;-inkscape-font-specification:DejaVu Sans Bold"><tspan id="tspan3378-0" x="490.333" y="61.609">A</tspan></text><text id="text3353-8" x="464.728" y="61.411" xml:space="preserve" style="font-size:14px;font-style:normal;font-variant:normal;font-weight:700;font-stretch:normal;text-align:start;line-height:125%;letter-spacing:0;word-spacing:0;writing-mode:lr-tb;text-anchor:start;fill:#000;fill-opacity:1;stroke:none;font-family:DejaVu Sans;-inkscape-font-specification:DejaVu Sans Bold"><tspan id="tspan3355-01" x="464.728" y="61.411">a</tspan></text><path id="rect4286-0" d="m 508.447,68.625395 -48.47849,0" style="fill:none;stroke:#000;stroke-width:1;stroke-miterlimit:4;stroke-opacity:1;stroke-dashoffset:0"/><path id="rect4286-0-3" d="m 483.63063,92.287513 0,-48.47849" style="fill:none;stroke:#000;stroke-width:1;stroke-miterlimit:4;stroke-opacity:1;stroke-dashoffset:0"/><text id="text4325-7" x="463.742" y="40.103" xml:space="preserve" style="font-size:12px;font-style:normal;font-variant:normal;font-weight:400;font-stretch:normal;text-align:start;line-height:125%;letter-spacing:0;word-spacing:0;writing-mode:lr-tb;text-anchor:start;fill:#000;fill-opacity:1;stroke:none;font-family:DejaVu Sans;-inkscape-font-specification:DejaVu Sans"><tspan id="tspan4327-0" x="463.742" y="40.103">L1</tspan></text><text id="text4325-5-5" x="487.45" y="39.605" xml:space="preserve" style="font-size:12px;font-style:normal;font-variant:normal;font-weight:400;font-stretch:normal;text-align:start;line-height:125%;letter-spacing:0;word-spacing:0;writing-mode:lr-tb;text-anchor:start;fill:#000;fill-opacity:1;stroke:none;font-family:DejaVu Sans;-inkscape-font-specification:DejaVu Sans"><tspan id="tspan4350-2" x="487.45" y="39.605">L2</tspan></text><text id="text4325-79-68" x="439.019" y="61.957" xml:space="preserve" style="font-size:12px;font-style:normal;font-variant:normal;font-weight:400;font-stretch:normal;text-align:start;line-height:125%;letter-spacing:0;word-spacing:0;writing-mode:lr-tb;text-anchor:start;fill:#000;fill-opacity:1;stroke:none;font-family:DejaVu Sans;-inkscape-font-specification:DejaVu Sans"><tspan id="tspan4457-4" x="439.019" y="61.957">G1</tspan></text><text id="text4325-79-6-6" x="439.066" y="86.761" xml:space="preserve" style="font-size:12px;font-style:normal;font-variant:normal;font-weight:400;font-stretch:normal;text-align:start;line-height:125%;letter-spacing:0;word-spacing:0;writing-mode:lr-tb;text-anchor:start;fill:#000;fill-opacity:1;stroke:none;font-family:DejaVu Sans;-inkscape-font-specification:DejaVu Sans"><tspan id="tspan4480-6" x="439.066" y="86.761">G2</tspan></text></g><g id="g4663"><text id="text3086-4" x="176.484" y="120.992" xml:space="preserve" style="font-size:12px;font-style:normal;font-variant:normal;font-weight:700;font-stretch:normal;text-align:start;line-height:125%;letter-spacing:0;word-spacing:0;writing-mode:lr-tb;text-anchor:start;fill:#000;fill-opacity:1;stroke:none;font-family:DejaVu Sans;-inkscape-font-specification:DejaVu Sans Bold"><tspan id="tspan3111" x="176.484" y="120.992">Symbols</tspan></text><text id="text3353-5" x="221.818" y="39.859" xml:space="preserve" style="font-size:14px;font-style:normal;font-variant:normal;font-weight:700;font-stretch:normal;text-align:start;line-height:125%;letter-spacing:0;word-spacing:0;writing-mode:lr-tb;text-anchor:start;fill:#000;fill-opacity:1;stroke:none;font-family:DejaVu Sans;-inkscape-font-specification:DejaVu Sans Bold"><tspan id="tspan3355-0" x="221.818" y="39.859">a</tspan></text><text id="text4325-79-7" x="173.541" y="40.406" xml:space="preserve" style="font-size:12px;font-style:normal;font-variant:normal;font-weight:400;font-stretch:normal;text-align:start;line-height:125%;letter-spacing:0;word-spacing:0;writing-mode:lr-tb;text-anchor:start;fill:#000;fill-opacity:1;stroke:none;font-family:DejaVu Sans;-inkscape-font-specification:DejaVu Sans"><tspan id="tspan4457-2" x="173.541" y="40.406">G1L1 =</tspan></text><text id="text3353-9-8" x="222.351" y="58.236" xml:space="preserve" style="font-size:14px;font-style:normal;font-variant:normal;font-weight:700;font-stretch:normal;text-align:start;line-height:125%;letter-spacing:0;word-spacing:0;writing-mode:lr-tb;text-anchor:start;fill:#000;fill-opacity:1;stroke:none;font-family:DejaVu Sans;-inkscape-font-specification:DejaVu Sans Bold"><tspan id="tspan3378-3" x="222.351" y="58.236">A</tspan></text><text id="text4325-79-74" x="173.541" y="57.501" xml:space="preserve" style="font-size:12px;font-style:normal;font-variant:normal;font-weight:400;font-stretch:normal;text-align:start;line-height:125%;letter-spacing:0;word-spacing:0;writing-mode:lr-tb;text-anchor:start;fill:#000;fill-opacity:1;stroke:none;font-family:DejaVu Sans;-inkscape-font-specification:DejaVu Sans"><tspan id="tspan4457-1" x="173.541" y="57.501">G1L2 =</tspan></text><g id="text3086-4-1-7-2" transform="translate(84.752833,-118.99205)" style="font-size:14px;font-style:normal;font-variant:normal;font-weight:700;font-stretch:normal;text-align:start;line-height:125%;letter-spacing:0;word-spacing:0;writing-mode:lr-tb;text-anchor:start;fill:#000;fill-opacity:1;stroke:none;font-family:DejaVu Sans;-inkscape-font-specification:DejaVu Sans Bold"><path id="path3267" d="m 148.543,188.37929 c -1e-5,-0.46484 -0.13673,-0.83854 -0.41016,-1.1211 -0.26889,-0.2871 -0.62208,-0.43065 -1.05957,-0.43066 -0.46941,1e-5 -0.84994,0.13445 -1.1416,0.40332 -0.29167,0.26433 -0.47397,0.64714 -0.54687,1.14844 l 3.1582,0 m -6.87012,1.21679 c -0.51042,1e-5 -0.89551,0.0866 -1.15527,0.25977 -0.25521,0.17318 -0.38282,0.42839 -0.38281,0.76563 -1e-5,0.30989 0.10253,0.55371 0.30761,0.73144 0.20964,0.17318 0.49902,0.25977 0.86817,0.25977 0.46028,0 0.84765,-0.16406 1.16211,-0.49219 0.31444,-0.33268 0.47167,-0.74739 0.47168,-1.24414 l 0,-0.28028 -1.27149,0 m -3.33594,-4.00585 c 0.54232,-0.1276 1.06641,-0.2233 1.57227,-0.28711 0.51041,-0.0684 0.98665,-0.10254 1.42871,-0.10254 0.68359,0 1.27148,0.0889 1.76367,0.2666 0.49674,0.17318 0.9069,0.43978 1.23047,0.7998 0.35091,-0.3509 0.75878,-0.61522 1.22363,-0.79297 0.46484,-0.18228 0.97526,-0.27343 1.53125,-0.27343 1.20768,0 2.17154,0.36231 2.89161,1.08691 0.72459,0.72462 1.0869,1.69304 1.08691,2.90527 l 0,0.69727 -5.72852,0 c 0.0638,0.57422 0.27115,1.00488 0.62207,1.29199 0.35546,0.28711 0.85449,0.43067 1.49708,0.43067 0.51496,0 1.04132,-0.0752 1.5791,-0.22559 0.5423,-0.15495 1.09829,-0.38737 1.66797,-0.69727 l 0,1.88672 c -0.57879,0.21875 -1.15985,0.38282 -1.74317,0.49219 -0.57879,0.11393 -1.15528,0.1709 -1.72949,0.1709 -0.81577,0 -1.5267,-0.12077 -2.13281,-0.36231 -0.60157,-0.24609 -1.06642,-0.597 -1.39453,-1.05273 -0.4603,0.48763 -0.94565,0.84538 -1.45606,1.07324 -0.50586,0.22787 -1.07552,0.3418 -1.70898,0.3418 -0.88412,0 -1.58366,-0.22331 -2.09864,-0.66992 -0.51497,-0.45117 -0.77246,-1.05957 -0.77246,-1.8252 0,-0.89778 0.30762,-1.55631 0.92285,-1.97558 0.61979,-0.41927 1.5905,-0.62891 2.91211,-0.62891 l 1.44239,0 0,-0.19141 c -1e-5,-0.38736 -0.15268,-0.66991 -0.45801,-0.84765 -0.30535,-0.18229 -0.78158,-0.27343 -1.42871,-0.27344 -0.52409,1e-5 -1.01172,0.0524 -1.46289,0.15723 -0.45118,0.10482 -0.87045,0.26205 -1.25782,0.47168 l 0,-1.86621"/></g><text id="text4325-79-0" x="173.541" y="74.596" xml:space="preserve" style="font-size:12px;font-style:normal;font-variant:normal;font-weight:400;font-stretch:normal;text-align:start;line-height:125%;letter-spacing:0;word-spacing:0;writing-mode:lr-tb;text-anchor:start;fill:#000;fill-opacity:1;stroke:none;font-family:DejaVu Sans;-inkscape-font-specification:DejaVu Sans"><tspan id="tspan4457-0" x="173.541" y="74.596">G2L1 =</tspan></text><g id="text3086-4-1-7" transform="matrix(1.163736,0,0,1.163736,-83.431648,-127.64009)" style="font-size:12px;font-style:normal;font-variant:normal;font-weight:700;font-stretch:normal;text-align:start;line-height:125%;letter-spacing:0;word-spacing:0;writing-mode:lr-tb;text-anchor:start;fill:#000;fill-opacity:1;stroke:none;font-family:DejaVu Sans;-inkscape-font-specification:DejaVu Sans Bold"><path id="path3234" d="m 268.03934,181.84424 -1.5,3.57422 2.20898,0 0,-3.57422 -0.70898,0 m -1.5586,-1.5 8.34961,0 0,1.70508 -3.82617,0 0,1.6289 3.59766,0 0,1.70508 -3.59766,0 0,2.00391 3.96094,0 0,1.70508 -6.2168,0 0,-2.05079 -2.89453,0 -0.86133,2.05079 -2.17383,0 3.66211,-8.74805"/></g><text id="text4325-79-64" x="173.541" y="91.691" xml:space="preserve" style="font-size:12px;font-style:normal;font-variant:normal;font-weight:400;font-stretch:normal;text-align:start;line-height:125%;letter-spacing:0;word-spacing:0;writing-mode:lr-tb;text-anchor:start;fill:#000;fill-opacity:1;stroke:none;font-family:DejaVu Sans;-inkscape-font-specification:DejaVu Sans"><tspan id="tspan4457-43" x="173.541" y="91.691">G2L2 =</tspan></text></g><g id="g3189"><rect id="rect3458" width="63.484" height="73.872" x="57.712" y="19.57" rx="8.657" ry="8.657" style="fill:#fff;stroke:#000;stroke-width:1;stroke-miterlimit:4;stroke-opacity:1;stroke-dasharray:none;stroke-dashoffset:0"/><rect id="rect3460" width="50.787" height="50.787" x="64.061" y="24.187" rx="8.657" ry="8.657" style="fill:none;stroke:#000;stroke-width:1;stroke-miterlimit:4;stroke-opacity:1;stroke-dasharray:none;stroke-dashoffset:0"/><text id="text3086" x="40.976" y="119.99" xml:space="preserve" style="font-size:12px;font-style:normal;font-variant:normal;font-weight:700;font-stretch:normal;text-align:start;line-height:125%;letter-spacing:0;word-spacing:0;writing-mode:lr-tb;text-anchor:start;fill:#000;fill-opacity:1;stroke:none;font-family:DejaVu Sans;-inkscape-font-specification:DejaVu Sans Bold"><tspan id="tspan3088" x="40.976" y="119.99">Physical Key</tspan></text><text id="text3086-2" x="-92.863" y="53.644" transform="matrix(0,-1,1,0,0,0)" xml:space="preserve" style="font-size:12px;font-style:normal;font-variant:normal;font-weight:400;font-stretch:normal;text-align:start;line-height:125%;letter-spacing:0;word-spacing:0;writing-mode:lr-tb;text-anchor:start;fill:#000;fill-opacity:1;stroke:none;font-family:DejaVu Sans;-inkscape-font-specification:DejaVu Sans"><tspan id="tspan3210" x="-92.863" y="53.644">Shift Level</tspan></text><text id="text3086-2-1" x="62.853" y="105.418" xml:space="preserve" style="font-size:12px;font-style:normal;font-variant:normal;font-weight:400;font-stretch:normal;text-align:start;line-height:125%;letter-spacing:0;word-spacing:0;writing-mode:lr-tb;text-anchor:start;fill:#000;fill-opacity:1;stroke:none;font-family:DejaVu Sans;-inkscape-font-specification:DejaVu Sans"><tspan id="tspan3210-2" x="62.853" y="105.418">Group</tspan></text><g id="text3086-4-1-7-2-3-3" transform="translate(-45.888592,-129.55559)" style="font-size:14px;font-style:normal;font-variant:normal;font-weight:700;font-stretch:normal;text-align:start;line-height:125%;letter-spacing:0;word-spacing:0;writing-mode:lr-tb;text-anchor:start;fill:#999;fill-opacity:1;stroke:none;font-family:DejaVu Sans;-inkscape-font-specification:DejaVu Sans Bold"><path style="fill:#999" id="path3267-7-7" d="m 148.543,188.37929 c -1e-5,-0.46484 -0.13673,-0.83854 -0.41016,-1.1211 -0.26889,-0.2871 -0.62208,-0.43065 -1.05957,-0.43066 -0.46941,1e-5 -0.84994,0.13445 -1.1416,0.40332 -0.29167,0.26433 -0.47397,0.64714 -0.54687,1.14844 l 3.1582,0 m -6.87012,1.21679 c -0.51042,1e-5 -0.89551,0.0866 -1.15527,0.25977 -0.25521,0.17318 -0.38282,0.42839 -0.38281,0.76563 -1e-5,0.30989 0.10253,0.55371 0.30761,0.73144 0.20964,0.17318 0.49902,0.25977 0.86817,0.25977 0.46028,0 0.84765,-0.16406 1.16211,-0.49219 0.31444,-0.33268 0.47167,-0.74739 0.47168,-1.24414 l 0,-0.28028 -1.27149,0 m -3.33594,-4.00585 c 0.54232,-0.1276 1.06641,-0.2233 1.57227,-0.28711 0.51041,-0.0684 0.98665,-0.10254 1.42871,-0.10254 0.68359,0 1.27148,0.0889 1.76367,0.2666 0.49674,0.17318 0.9069,0.43978 1.23047,0.7998 0.35091,-0.3509 0.75878,-0.61522 1.22363,-0.79297 0.46484,-0.18228 0.97526,-0.27343 1.53125,-0.27343 1.20768,0 2.17154,0.36231 2.89161,1.08691 0.72459,0.72462 1.0869,1.69304 1.08691,2.90527 l 0,0.69727 -5.72852,0 c 0.0638,0.57422 0.27115,1.00488 0.62207,1.29199 0.35546,0.28711 0.85449,0.43067 1.49708,0.43067 0.51496,0 1.04132,-0.0752 1.5791,-0.22559 0.5423,-0.15495 1.09829,-0.38737 1.66797,-0.69727 l 0,1.88672 c -0.57879,0.21875 -1.15985,0.38282 -1.74317,0.49219 -0.57879,0.11393 -1.15528,0.1709 -1.72949,0.1709 -0.81577,0 -1.5267,-0.12077 -2.13281,-0.36231 -0.60157,-0.24609 -1.06642,-0.597 -1.39453,-1.05273 -0.4603,0.48763 -0.94565,0.84538 -1.45606,1.07324 -0.50586,0.22787 -1.07552,0.3418 -1.70898,0.3418 -0.88412,0 -1.58366,-0.22331 -2.09864,-0.66992 -0.51497,-0.45117 -0.77246,-1.05957 -0.77246,-1.8252 0,-0.89778 0.30762,-1.55631 0.92285,-1.97558 0.61979,-0.41927 1.5905,-0.62891 2.91211,-0.62891 l 1.44239,0 0,-0.19141 c -1e-5,-0.38736 -0.15268,-0.66991 -0.45801,-0.84765 -0.30535,-0.18229 -0.78158,-0.27343 -1.42871,-0.27344 -0.52409,1e-5 -1.01172,0.0524 -1.46289,0.15723 -0.45118,0.10482 -0.87045,0.26205 -1.25782,0.47168 l 0,-1.86621"/></g><g id="text3086-4-1-7-25" transform="matrix(1.163736,0,0,1.163736,-214.44151,-178.38377)" style="font-size:12px;font-style:normal;font-variant:normal;font-weight:700;font-stretch:normal;text-align:start;line-height:125%;letter-spacing:0;word-spacing:0;writing-mode:lr-tb;text-anchor:start;fill:#000;fill-opacity:1;stroke:none;font-family:DejaVu Sans;-inkscape-font-specification:DejaVu Sans Bold"><path id="path3234-3" d="m 268.03934,181.84424 -1.5,3.57422 2.20898,0 0,-3.57422 -0.70898,0 m -1.5586,-1.5 8.34961,0 0,1.70508 -3.82617,0 0,1.6289 3.59766,0 0,1.70508 -3.59766,0 0,2.00391 3.96094,0 0,1.70508 -6.2168,0 0,-2.05079 -2.89453,0 -0.86133,2.05079 -2.17383,0 3.66211,-8.74805"/></g><text id="text3353" x="74.238" y="63.486" xml:space="preserve" style="font-size:14px;font-style:normal;font-variant:normal;font-weight:700;font-stretch:normal;text-align:start;line-height:125%;letter-spacing:0;word-spacing:0;writing-mode:lr-tb;text-anchor:start;fill:#999;fill-opacity:1;stroke:none;font-family:DejaVu Sans;-inkscape-font-specification:DejaVu Sans Bold"><tspan id="tspan3355" x="74.238" y="63.486">a</tspan></text><text id="text3353-9" x="73.295" y="41.683" xml:space="preserve" style="font-size:14px;font-style:normal;font-variant:normal;font-weight:700;font-stretch:normal;text-align:start;line-height:125%;letter-spacing:0;word-spacing:0;writing-mode:lr-tb;text-anchor:start;fill:#000;fill-opacity:1;stroke:none;font-family:DejaVu Sans;-inkscape-font-specification:DejaVu Sans Bold"><tspan id="tspan3378" x="73.295" y="41.683">A</tspan></text><path id="path4683" d="m 105.03673,101.52151 11.54249,0" style="fill:none;stroke:#000;stroke-width:1px;stroke-linecap:butt;stroke-linejoin:miter;stroke-opacity:1;marker-end:url(#Arrow2Mend)"/><path id="path4683-4" d="m 51.950847,27.215961 0,-11.54249" style="fill:none;stroke:#000;stroke-width:1px;stroke-linecap:butt;stroke-linejoin:miter;stroke-opacity:1;marker-end:url(#Arrow2Mend)"/></g></g></svg>