<svg xmlns="http://www.w3.org/2000/svg" xmlns:svg="http://www.w3.org/2000/svg" id="svg2" width="600" height="650" version="1.1"><defs id="defs4"><marker id="DotM" orient="auto" refX="0" refY="0" style="overflow:visible"><path id="path4666" d="m -2.5,-1 c 0,2.76 -2.24,5 -5,5 -2.76,0 -5,-2.24 -5,-5 0,-2.76 2.24,-5 5,-5 2.76,0 5,2.24 5,5 z" transform="matrix(0.4,0,0,0.4,2.96,0.4)" style="fill-rule:evenodd;stroke:#000;stroke-width:1pt;marker-start:none;marker-end:none"/></marker><marker id="Arrow2Lstart" orient="auto" refX="0" refY="0" style="overflow:visible"><path id="path4619" d="M 8.7185878,4.0337352 -2.2072895,0.01601326 8.7185884,-4.0017078 c -1.7454984,2.3720609 -1.7354408,5.6174519 -6e-7,8.035443 z" transform="matrix(1.1,0,0,1.1,1.1,0)" style="font-size:12px;fill-rule:evenodd;stroke-width:.625;stroke-linejoin:round"/></marker><marker id="Arrow2Lend" orient="auto" refX="0" refY="0" style="overflow:visible"><path id="path4622" d="M 8.7185878,4.0337352 -2.2072895,0.01601326 8.7185884,-4.0017078 c -1.7454984,2.3720609 -1.7354408,5.6174519 -6e-7,8.035443 z" transform="matrix(-1.1,0,0,-1.1,-1.1,0)" style="font-size:12px;fill-rule:evenodd;stroke-width:.625;stroke-linejoin:round"/></marker><marker id="Arrow2Lend-9" orient="auto" refX="0" refY="0" style="overflow:visible"><path id="path4622-4" d="M 8.7185878,4.0337352 -2.2072895,0.01601326 8.7185884,-4.0017078 c -1.7454984,2.3720609 -1.7354408,5.6174519 -6e-7,8.035443 z" transform="matrix(-1.1,0,0,-1.1,-1.1,0)" style="font-size:12px;fill-rule:evenodd;stroke-width:.625;stroke-linejoin:round"/></marker><marker id="Arrow2Lend-0" orient="auto" refX="0" refY="0" style="overflow:visible"><path id="path4622-6" d="M 8.7185878,4.0337352 -2.2072895,0.01601326 8.7185884,-4.0017078 c -1.7454984,2.3720609 -1.7354408,5.6174519 -6e-7,8.035443 z" transform="matrix(-1.1,0,0,-1.1,-1.1,0)" style="font-size:12px;fill-rule:evenodd;stroke-width:.625;stroke-linejoin:round"/></marker><marker id="Arrow2Lend-95" orient="auto" refX="0" refY="0" style="overflow:visible"><path id="path4622-61" d="M 8.7185878,4.0337352 -2.2072895,0.01601326 8.7185884,-4.0017078 c -1.7454984,2.3720609 -1.7354408,5.6174519 -6e-7,8.035443 z" transform="matrix(-1.1,0,0,-1.1,-1.1,0)" style="font-size:12px;fill-rule:evenodd;stroke-width:.625;stroke-linejoin:round"/></marker><marker id="Arrow2Lend-4" orient="auto" refX="0" refY="0" style="overflow:visible"><path id="path4622-3" d="M 8.7185878,4.0337352 -2.2072895,0.01601326 8.7185884,-4.0017078 c -1.7454984,2.3720609 -1.7354408,5.6174519 -6e-7,8.035443 z" transform="matrix(-1.1,0,0,-1.1,-1.1,0)" style="font-size:12px;fill-rule:evenodd;stroke-width:.625;stroke-linejoin:round"/></marker><marker id="Arrow2Lend-2" orient="auto" refX="0" refY="0" style="overflow:visible"><path id="path4622-7" d="M 8.7185878,4.0337352 -2.2072895,0.01601326 8.7185884,-4.0017078 c -1.7454984,2.3720609 -1.7354408,5.6174519 -6e-7,8.035443 z" transform="matrix(-1.1,0,0,-1.1,-1.1,0)" style="font-size:12px;fill-rule:evenodd;stroke-width:.625;stroke-linejoin:round"/></marker><marker id="Arrow2Lend-3" orient="auto" refX="0" refY="0" style="overflow:visible"><path id="path4622-9" d="M 8.7185878,4.0337352 -2.2072895,0.01601326 8.7185884,-4.0017078 c -1.7454984,2.3720609 -1.7354408,5.6174519 -6e-7,8.035443 z" transform="matrix(-1.1,0,0,-1.1,-1.1,0)" style="font-size:12px;fill-rule:evenodd;stroke-width:.625;stroke-linejoin:round"/></marker><marker id="Arrow2Lend-44" orient="auto" refX="0" refY="0" style="overflow:visible"><path id="path4622-49" d="M 8.7185878,4.0337352 -2.2072895,0.01601326 8.7185884,-4.0017078 c -1.7454984,2.3720609 -1.7354408,5.6174519 -6e-7,8.035443 z" transform="matrix(-1.1,0,0,-1.1,-1.1,0)" style="font-size:12px;fill-rule:evenodd;stroke-width:.625;stroke-linejoin:round"/></marker><marker id="Arrow2Lend-38" orient="auto" refX="0" refY="0" style="overflow:visible"><path id="path4622-32" d="M 8.7185878,4.0337352 -2.2072895,0.01601326 8.7185884,-4.0017078 c -1.7454984,2.3720609 -1.7354408,5.6174519 -6e-7,8.035443 z" transform="matrix(-1.1,0,0,-1.1,-1.1,0)" style="font-size:12px;fill-rule:evenodd;stroke-width:.625;stroke-linejoin:round"/></marker><marker id="Arrow2Lend-5" orient="auto" refX="0" refY="0" style="overflow:visible"><path id="path4622-43" d="M 8.7185878,4.0337352 -2.2072895,0.01601326 8.7185884,-4.0017078 c -1.7454984,2.3720609 -1.7354408,5.6174519 -6e-7,8.035443 z" transform="matrix(-1.1,0,0,-1.1,-1.1,0)" style="font-size:12px;fill-rule:evenodd;stroke-width:.625;stroke-linejoin:round"/></marker><marker id="Arrow2Lstart-4" orient="auto" refX="0" refY="0" style="overflow:visible"><path id="path4619-9" d="M 8.7185878,4.0337352 -2.2072895,0.01601326 8.7185884,-4.0017078 c -1.7454984,2.3720609 -1.7354408,5.6174519 -6e-7,8.035443 z" transform="matrix(1.1,0,0,1.1,1.1,0)" style="font-size:12px;fill-rule:evenodd;stroke-width:.625;stroke-linejoin:round"/></marker><marker id="Arrow2Lend-55" orient="auto" refX="0" refY="0" style="overflow:visible"><path id="path4622-73" d="M 8.7185878,4.0337352 -2.2072895,0.01601326 8.7185884,-4.0017078 c -1.7454984,2.3720609 -1.7354408,5.6174519 -6e-7,8.035443 z" transform="matrix(-1.1,0,0,-1.1,-1.1,0)" style="font-size:12px;fill-rule:evenodd;stroke-width:.625;stroke-linejoin:round"/></marker><marker id="Arrow2Lstart-0" orient="auto" refX="0" refY="0" style="overflow:visible"><path id="path4619-7" d="M 8.7185878,4.0337352 -2.2072895,0.01601326 8.7185884,-4.0017078 c -1.7454984,2.3720609 -1.7354408,5.6174519 -6e-7,8.035443 z" transform="matrix(1.1,0,0,1.1,1.1,0)" style="font-size:12px;fill-rule:evenodd;stroke-width:.625;stroke-linejoin:round"/></marker><marker id="Arrow2Lend-27" orient="auto" refX="0" refY="0" style="overflow:visible"><path id="path4622-2" d="M 8.7185878,4.0337352 -2.2072895,0.01601326 8.7185884,-4.0017078 c -1.7454984,2.3720609 -1.7354408,5.6174519 -6e-7,8.035443 z" transform="matrix(-1.1,0,0,-1.1,-1.1,0)" style="font-size:12px;fill-rule:evenodd;stroke-width:.625;stroke-linejoin:round"/></marker><marker id="Arrow2Lend-05" orient="auto" refX="0" refY="0" style="overflow:visible"><path id="path4622-0" d="M 8.7185878,4.0337352 -2.2072895,0.01601326 8.7185884,-4.0017078 c -1.7454984,2.3720609 -1.7354408,5.6174519 -6e-7,8.035443 z" transform="matrix(-1.1,0,0,-1.1,-1.1,0)" style="font-size:12px;fill-rule:evenodd;stroke-width:.625;stroke-linejoin:round"/></marker><marker id="Arrow2Lend-1" orient="auto" refX="0" refY="0" style="overflow:visible"><path id="path4622-79" d="M 8.7185878,4.0337352 -2.2072895,0.01601326 8.7185884,-4.0017078 c -1.7454984,2.3720609 -1.7354408,5.6174519 -6e-7,8.035443 z" transform="matrix(-1.1,0,0,-1.1,-1.1,0)" style="font-size:12px;fill-rule:evenodd;stroke-width:.625;stroke-linejoin:round"/></marker><marker id="Arrow2Lend-1-6" orient="auto" refX="0" refY="0" style="overflow:visible"><path id="path4622-79-2" d="M 8.7185878,4.0337352 -2.2072895,0.01601326 8.7185884,-4.0017078 c -1.7454984,2.3720609 -1.7354408,5.6174519 -6e-7,8.035443 z" transform="matrix(-1.1,0,0,-1.1,-1.1,0)" style="font-size:12px;fill-rule:evenodd;stroke-width:.625;stroke-linejoin:round"/></marker><marker id="Arrow2Lend-1-6-2" orient="auto" refX="0" refY="0" style="overflow:visible"><path id="path4622-79-2-5" d="M 8.7185878,4.0337352 -2.2072895,0.01601326 8.7185884,-4.0017078 c -1.7454984,2.3720609 -1.7354408,5.6174519 -6e-7,8.035443 z" transform="matrix(-1.1,0,0,-1.1,-1.1,0)" style="font-size:12px;fill-rule:evenodd;stroke-width:.625;stroke-linejoin:round"/></marker><marker id="Arrow2Lend-1-6-9" orient="auto" refX="0" refY="0" style="overflow:visible"><path id="path4622-79-2-1" d="M 8.7185878,4.0337352 -2.2072895,0.01601326 8.7185884,-4.0017078 c -1.7454984,2.3720609 -1.7354408,5.6174519 -6e-7,8.035443 z" transform="matrix(-1.1,0,0,-1.1,-1.1,0)" style="font-size:12px;fill-rule:evenodd;stroke-width:.625;stroke-linejoin:round"/></marker><marker id="Arrow2Lend-1-6-8" orient="auto" refX="0" refY="0" style="overflow:visible"><path id="path4622-79-2-7" d="M 8.7185878,4.0337352 -2.2072895,0.01601326 8.7185884,-4.0017078 c -1.7454984,2.3720609 -1.7354408,5.6174519 -6e-7,8.035443 z" transform="matrix(-1.1,0,0,-1.1,-1.1,0)" style="font-size:12px;fill-rule:evenodd;stroke-width:.625;stroke-linejoin:round"/></marker><marker id="Arrow2Lend-1-6-5" orient="auto" refX="0" refY="0" style="overflow:visible"><path id="path4622-79-2-2" d="M 8.7185878,4.0337352 -2.2072895,0.01601326 8.7185884,-4.0017078 c -1.7454984,2.3720609 -1.7354408,5.6174519 -6e-7,8.035443 z" transform="matrix(-1.1,0,0,-1.1,-1.1,0)" style="font-size:12px;fill-rule:evenodd;stroke-width:.625;stroke-linejoin:round"/></marker></defs><metadata id="metadata7"/><g id="layer2" style="display:inline"><g id="g4480" transform="translate(-2.1200027,0)"><rect id="rect3623-8" width="146.705" height="79.713" x="220.058" y="13.571" style="fill:#fff;fill-opacity:1;stroke:#000;stroke-width:.99999994;stroke-miterlimit:4;stroke-opacity:1;stroke-dasharray:none;stroke-dashoffset:0"/><text id="text3070" x="293.305" y="26.554" xml:space="preserve" style="font-size:12px;font-style:normal;font-variant:normal;font-weight:400;font-stretch:normal;text-align:center;line-height:125%;letter-spacing:0;word-spacing:0;writing-mode:lr-tb;text-anchor:middle;fill:#000;fill-opacity:1;stroke:none;font-family:DejaVu Sans;-inkscape-font-specification:DejaVu Sans"><tspan id="tspan3072" x="293.305" y="26.554">Augment names to</tspan><tspan id="tspan3074" x="293.305" y="41.554">supply component</tspan><tspan id="tspan3076" x="293.305" y="56.554">names required by</tspan><tspan id="tspan3078" x="293.305" y="71.554">want and need but not</tspan><tspan id="tspan3080" x="293.305" y="86.554">supplied in request</tspan></text></g><g id="g4491" transform="translate(7.6293945e-6,0)"><rect id="rect4489" width="150.097" height="71.233" x="216.242" y="187.837" style="fill:#fff;fill-opacity:1;stroke:#000;stroke-width:.99999988;stroke-miterlimit:4;stroke-opacity:1;stroke-dasharray:none;stroke-dashoffset:0"/><text id="text3070-4" x="291.041" y="204.079" xml:space="preserve" style="font-size:12px;font-style:normal;font-variant:normal;font-weight:400;font-stretch:normal;text-align:center;line-height:125%;letter-spacing:0;word-spacing:0;writing-mode:lr-tb;text-anchor:middle;fill:#000;fill-opacity:1;stroke:none;font-family:DejaVu Sans;-inkscape-font-specification:DejaVu Sans"><tspan id="tspan3072-6" x="291.041" y="204.079">Augment names to</tspan><tspan id="tspan3080-1" x="291.041" y="219.079">supply required com-</tspan><tspan id="tspan3128" x="291.041" y="234.079">ponent names not sup-</tspan><tspan id="tspan3126" x="291.041" y="249.079">plied in request</tspan></text></g><g id="g4501"><rect id="rect4499" width="79.713" height="58.512" x="463.011" y="197.165" style="fill:#fff;fill-opacity:1;stroke:#000;stroke-width:1;stroke-miterlimit:4;stroke-opacity:1;stroke-dasharray:none;stroke-dashoffset:0"/><text id="text3070-4-7" x="502.677" y="215.894" xml:space="preserve" style="font-size:12px;font-style:normal;font-variant:normal;font-weight:400;font-stretch:normal;text-align:center;line-height:125%;letter-spacing:0;word-spacing:0;writing-mode:lr-tb;text-anchor:middle;fill:#000;fill-opacity:1;stroke:none;font-family:DejaVu Sans;-inkscape-font-specification:DejaVu Sans"><tspan id="tspan3126-2" x="502.677" y="215.894">Keyboard</tspan><tspan id="tspan3171" x="502.677" y="230.894">Component</tspan><tspan id="tspan3173" x="502.677" y="245.894">Database</tspan></text></g><text style="font-size:12px;font-style:normal;font-variant:normal;font-weight:400;font-stretch:normal;text-align:center;line-height:125%;letter-spacing:0;word-spacing:0;writing-mode:lr-tb;text-anchor:middle;fill:#000;fill-opacity:1;stroke:none;font-family:DejaVu Sans;-inkscape-font-specification:DejaVu Sans" id="text3070-4-7-8" x="351.732" y="128.974" xml:space="preserve"><tspan id="tspan3173-4" x="351.732" y="128.974">False</tspan></text><text style="font-size:12px;font-style:normal;font-variant:normal;font-weight:400;font-stretch:normal;text-align:center;line-height:125%;letter-spacing:0;word-spacing:0;writing-mode:lr-tb;text-anchor:middle;fill:#000;fill-opacity:1;stroke:none;font-family:DejaVu Sans;-inkscape-font-specification:DejaVu Sans" id="text3070-4-7-8-7" x="310.949" y="172.806" xml:space="preserve"><tspan id="tspan3173-4-8" x="310.949" y="172.806">True</tspan></text><text style="font-size:12px;font-style:normal;font-variant:normal;font-weight:400;font-stretch:normal;text-align:center;line-height:125%;letter-spacing:0;word-spacing:0;writing-mode:lr-tb;text-anchor:middle;fill:#000;fill-opacity:1;stroke:none;font-family:DejaVu Sans;-inkscape-font-specification:DejaVu Sans" id="text3070-4-7-8-7-6" x="311.555" y="440.591" xml:space="preserve"><tspan id="tspan3173-4-8-3" x="311.555" y="440.591">True</tspan></text><text style="font-size:12px;font-style:normal;font-variant:normal;font-weight:400;font-stretch:normal;text-align:center;line-height:125%;letter-spacing:0;word-spacing:0;writing-mode:lr-tb;text-anchor:middle;fill:#000;fill-opacity:1;stroke:none;font-family:DejaVu Sans;-inkscape-font-specification:DejaVu Sans" id="text3070-4-7-8-77" x="231.236" y="392.44" xml:space="preserve"><tspan id="tspan3173-4-2" x="231.236" y="392.44">False</tspan></text><g id="g4519" transform="translate(0.84801102,0)"><rect id="rect4517" width="121.265" height="67.841" x="229.81" y="290.445" style="fill:#fff;fill-opacity:1;stroke:#000;stroke-width:1;stroke-miterlimit:4;stroke-opacity:1;stroke-dasharray:none;stroke-dashoffset:0"/><text id="text3070-4-7-8-7-6-3" x="290.624" y="306.339" xml:space="preserve" style="font-size:12px;font-style:normal;font-variant:normal;font-weight:400;font-stretch:normal;text-align:center;line-height:125%;letter-spacing:0;word-spacing:0;writing-mode:lr-tb;text-anchor:middle;fill:#000;fill-opacity:1;stroke:none;font-family:DejaVu Sans;-inkscape-font-specification:DejaVu Sans"><tspan id="tspan3173-4-8-3-7" x="290.624" y="306.339">Build keyboard</tspan><tspan id="tspan3303" x="290.624" y="321.339">description from</tspan><tspan id="tspan3305" x="290.624" y="336.339">expressions in</tspan><tspan id="tspan3307" x="290.624" y="351.339">names</tspan></text></g><g id="g4510"><rect id="rect4508" width="97.521" height="56.816" x="454.531" y="294.685" style="fill:#fff;fill-opacity:1;stroke:#000;stroke-width:1;stroke-miterlimit:4;stroke-opacity:1;stroke-dasharray:none;stroke-dashoffset:0"/><text id="text3070-4-7-8-7-6-3-2" x="503.248" y="311.404" xml:space="preserve" style="font-size:12px;font-style:normal;font-variant:normal;font-weight:400;font-stretch:normal;text-align:center;line-height:125%;letter-spacing:0;word-spacing:0;writing-mode:lr-tb;text-anchor:middle;fill:#000;fill-opacity:1;stroke:none;font-family:DejaVu Sans;-inkscape-font-specification:DejaVu Sans"><tspan id="tspan3307-6" x="503.248" y="311.404">New Keyboard</tspan><tspan id="tspan3348" x="503.248" y="326.404">Description</tspan><tspan id="tspan3350" x="503.248" y="341.404">(Temporary)</tspan></text></g><g id="g4586" transform="translate(-1.1798446,0)"><rect id="rect4566" width="40.123" height="40.123" x="12.547" y="286.012" transform="matrix(0.86355474,-0.5042551,0.86355474,0.5042551,0,0)" style="fill:#fff;fill-opacity:1;stroke:#000;stroke-width:1.07155609;stroke-miterlimit:4;stroke-opacity:1;stroke-dasharray:none;stroke-dashoffset:0"/><text id="text3070-4-7-8-8" x="292.449" y="142.37" xml:space="preserve" style="font-size:12px;font-style:normal;font-variant:normal;font-weight:400;font-stretch:normal;text-align:center;line-height:125%;letter-spacing:0;word-spacing:0;writing-mode:lr-tb;text-anchor:middle;fill:#000;fill-opacity:1;stroke:none;font-family:DejaVu Sans;-inkscape-font-specification:DejaVu Sans"><tspan id="tspan3173-4-1" x="292.449" y="142.37">load</tspan></text></g><g id="g4591" transform="translate(-1.2719908,0)"><rect id="rect4566-1" width="40.123" height="40.123" x="-253.017" y="551.683" transform="matrix(0.86355474,-0.5042551,0.86355474,0.5042551,0,0)" style="fill:#fff;fill-opacity:1;stroke:#000;stroke-width:1.07155609;stroke-miterlimit:4;stroke-opacity:1;stroke-dasharray:none;stroke-dashoffset:0"/><text id="text3070-4-7-8-8-3" x="292.542" y="410.248" xml:space="preserve" style="font-size:12px;font-style:normal;font-variant:normal;font-weight:400;font-stretch:normal;text-align:center;line-height:125%;letter-spacing:0;word-spacing:0;writing-mode:lr-tb;text-anchor:middle;fill:#000;fill-opacity:1;stroke:none;font-family:DejaVu Sans;-inkscape-font-specification:DejaVu Sans"><tspan id="tspan3173-4-1-6" x="292.542" y="410.248">load</tspan></text></g><g id="g4529"><rect id="rect4527" width="136.529" height="42.4" x="437.571" y="456.655" style="fill:#fff;fill-opacity:1;stroke:#000;stroke-width:1;stroke-miterlimit:4;stroke-opacity:1;stroke-dasharray:none;stroke-dashoffset:0"/><text id="text3070-4-7-8-8-3-4" x="505.763" y="473.498" xml:space="preserve" style="font-size:12px;font-style:normal;font-variant:normal;font-weight:400;font-stretch:normal;text-align:center;line-height:125%;letter-spacing:0;word-spacing:0;writing-mode:lr-tb;text-anchor:middle;fill:#000;fill-opacity:1;stroke:none;font-family:DejaVu Sans;-inkscape-font-specification:DejaVu Sans"><tspan id="tspan3173-4-1-6-0" x="505.763" y="473.498">Keyboard Description</tspan><tspan id="tspan3415" x="505.763" y="488.498">for device_spec</tspan></text></g><g id="g4537"><rect id="rect4535" width="79.713" height="71.233" x="468.099" y="555.023" style="fill:#fff;fill-opacity:1;stroke:#000;stroke-width:1;stroke-miterlimit:4;stroke-opacity:1;stroke-dasharray:none;stroke-dashoffset:0"/><text id="text3070-4-7-8-8-3-4-3" x="507.88" y="572.613" xml:space="preserve" style="font-size:12px;font-style:normal;font-variant:normal;font-weight:400;font-stretch:normal;text-align:center;line-height:125%;letter-spacing:0;word-spacing:0;writing-mode:lr-tb;text-anchor:middle;fill:#000;fill-opacity:1;stroke:none;font-family:DejaVu Sans;-inkscape-font-specification:DejaVu Sans"><tspan id="tspan3173-4-1-6-0-5" x="507.88" y="572.613">Keyboard</tspan><tspan id="tspan3441" x="507.88" y="587.613">Description</tspan><tspan id="tspan3415-8" x="507.88" y="602.613">returned to</tspan><tspan id="tspan3443" x="507.88" y="617.613">Client</tspan></text></g><g id="g4547" transform="translate(0,6)"><rect id="rect4545" width="148.401" height="80.561" x="217.09" y="546.543" style="fill:#fff;fill-opacity:1;stroke:#000;stroke-width:1;stroke-miterlimit:4;stroke-opacity:1;stroke-dasharray:none;stroke-dashoffset:0"/><text id="text3070-4-7-8-8-3-4-3-5" x="291.276" y="561.297" xml:space="preserve" style="font-size:12px;font-style:normal;font-variant:normal;font-weight:400;font-stretch:normal;text-align:center;line-height:125%;letter-spacing:0;word-spacing:0;writing-mode:lr-tb;text-anchor:middle;fill:#000;fill-opacity:1;stroke:none;font-family:DejaVu Sans;-inkscape-font-specification:DejaVu Sans"><tspan id="tspan3443-8" x="291.276" y="561.297">Build keyboard</tspan><tspan id="tspan3484" x="291.276" y="576.297">description for client</tspan><tspan id="tspan3486" x="291.276" y="591.297">by extracting struc-</tspan><tspan id="tspan3488" x="291.276" y="606.297">tures specified in want</tspan><tspan id="tspan3490" x="291.276" y="621.297">and need</tspan></text></g><g id="g4558" transform="translate(0.84801483,0)"><rect id="rect4556" width="150.097" height="69.537" x="215.394" y="453.263" style="fill:#fff;fill-opacity:1;stroke:#000;stroke-width:1;stroke-miterlimit:4;stroke-opacity:1;stroke-dasharray:none;stroke-dashoffset:0"/><text id="text3070-4-7-8-8-3-4-3-5-0" x="290.29" y="468.841" xml:space="preserve" style="font-size:12px;font-style:normal;font-variant:normal;font-weight:400;font-stretch:normal;text-align:center;line-height:125%;letter-spacing:0;word-spacing:0;writing-mode:lr-tb;text-anchor:middle;fill:#000;fill-opacity:1;stroke:none;font-family:DejaVu Sans;-inkscape-font-specification:DejaVu Sans"><tspan id="tspan3490-1" x="290.29" y="468.841">Replace device_spec</tspan><tspan id="tspan3539" x="290.29" y="483.841">active keyboard</tspan><tspan id="tspan3541" x="290.29" y="498.841">description with newly</tspan><tspan id="tspan3543" x="290.29" y="513.841">built description</tspan></text></g><g id="g5219"><rect id="rect3623" width="97.521" height="97.521" x="22.048" y="173.42" style="fill:#fff;fill-opacity:1;stroke:#000;stroke-width:1;stroke-miterlimit:4;stroke-opacity:1;stroke-dasharray:none;stroke-dashoffset:0"/><text id="text3070-4-7-8-2" x="70.926" y="188.07" xml:space="preserve" style="font-size:12px;font-style:normal;font-variant:normal;font-weight:400;font-stretch:normal;text-align:center;line-height:125%;letter-spacing:0;word-spacing:0;writing-mode:lr-tb;text-anchor:middle;fill:#000;fill-opacity:1;stroke:none;font-family:DejaVu Sans;-inkscape-font-specification:DejaVu Sans"><tspan id="tspan3173-4-0" x="70.926" y="188.07">Initial Request:</tspan></text><text id="text3070-4-7-8-2-0" x="70.855" y="203.38" xml:space="preserve" style="font-size:12px;font-style:normal;font-variant:normal;font-weight:400;font-stretch:normal;text-align:center;line-height:125%;letter-spacing:0;word-spacing:0;writing-mode:lr-tb;text-anchor:middle;fill:#000;fill-opacity:1;stroke:none;font-family:DejaVu Sans;-inkscape-font-specification:DejaVu Sans"><tspan id="tspan3173-4-0-6" x="70.855" y="203.38">device_spec</tspan></text><text id="text3070-4-7-8-2-3" x="70.56" y="218.99" xml:space="preserve" style="font-size:12px;font-style:normal;font-variant:normal;font-weight:400;font-stretch:normal;text-align:center;line-height:125%;letter-spacing:0;word-spacing:0;writing-mode:lr-tb;text-anchor:middle;fill:#000;fill-opacity:1;stroke:none;font-family:DejaVu Sans;-inkscape-font-specification:DejaVu Sans"><tspan id="tspan3173-4-0-9" x="70.56" y="218.99">names</tspan></text><text id="text3070-4-7-8-2-08" x="70.703" y="235.319" xml:space="preserve" style="font-size:12px;font-style:normal;font-variant:normal;font-weight:400;font-stretch:normal;text-align:center;line-height:125%;letter-spacing:0;word-spacing:0;writing-mode:lr-tb;text-anchor:middle;fill:#000;fill-opacity:1;stroke:none;font-family:DejaVu Sans;-inkscape-font-specification:DejaVu Sans"><tspan id="tspan3173-4-0-3" x="70.703" y="235.319">want</tspan></text><text id="text3070-4-7-8-2-8" x="70.809" y="251.142" xml:space="preserve" style="font-size:12px;font-style:normal;font-variant:normal;font-weight:400;font-stretch:normal;text-align:center;line-height:125%;letter-spacing:0;word-spacing:0;writing-mode:lr-tb;text-anchor:middle;fill:#000;fill-opacity:1;stroke:none;font-family:DejaVu Sans;-inkscape-font-specification:DejaVu Sans"><tspan id="tspan3173-4-0-7" x="70.809" y="251.142">need</tspan></text><text id="text3070-4-7-8-2-31" x="70.788" y="266.62" xml:space="preserve" style="font-size:12px;font-style:normal;font-variant:normal;font-weight:400;font-stretch:normal;text-align:center;line-height:125%;letter-spacing:0;word-spacing:0;writing-mode:lr-tb;text-anchor:middle;fill:#000;fill-opacity:1;stroke:none;font-family:DejaVu Sans;-inkscape-font-specification:DejaVu Sans"><tspan id="tspan3173-4-0-0" x="70.788" y="266.62">load</tspan></text><path id="rect3623-0" d="m 22.048165,192.49828 97.520725,0" style="fill:none;stroke:#000;stroke-width:1;stroke-miterlimit:4;stroke-opacity:1;stroke-dashoffset:0"/><path id="rect3623-0-5" d="m 22.048163,207.97556 97.520727,0" style="fill:none;stroke:#000;stroke-width:1;stroke-miterlimit:4;stroke-opacity:1;stroke-dashoffset:0"/><path id="rect3623-0-5-0" d="m 22.048163,223.45283 97.520727,0" style="fill:none;stroke:#000;stroke-width:1;stroke-miterlimit:4;stroke-opacity:1;stroke-dashoffset:0"/><path id="rect3623-0-5-3" d="m 22.048165,238.9301 97.520725,0" style="fill:none;stroke:#000;stroke-width:1;stroke-miterlimit:4;stroke-opacity:1;stroke-dashoffset:0"/><path id="rect3623-0-5-1" d="m 22.048164,254.4074 97.520726,0" style="fill:none;stroke:#000;stroke-width:1;stroke-miterlimit:4;stroke-opacity:1;stroke-dashoffset:0"/></g><path style="fill:none;stroke:#000;stroke-width:1px;stroke-linecap:butt;stroke-linejoin:miter;stroke-opacity:1;marker-end:url(#Arrow2Lend)" id="path4596" d="m 291.26298,93.8148 0,23.09757"/><path style="fill:none;stroke:#000;stroke-width:1px;stroke-linecap:butt;stroke-linejoin:miter;stroke-opacity:1;marker-end:url(#Arrow2Lend)" id="path4596-2" d="m 291.25314,158.03258 0,27.7286"/><path style="fill:none;stroke:#000;stroke-width:1px;stroke-linecap:butt;stroke-linejoin:miter;stroke-opacity:1;marker-end:url(#Arrow2Lend)" id="path4596-5" d="m 290.00054,259.8264 0,28.82818"/><path style="fill:none;stroke:#000;stroke-width:1px;stroke-linecap:butt;stroke-linejoin:miter;stroke-opacity:1;marker-end:url(#Arrow2Lend)" id="path4596-1" d="m 291.69655,357.34714 0,27.33761"/><path style="fill:none;stroke:#000;stroke-width:1px;stroke-linecap:butt;stroke-linejoin:miter;stroke-opacity:1;marker-end:url(#Arrow2Lend)" id="path4596-7" d="m 291.27254,426.03561 0,26.3722"/><path style="fill:none;stroke:#000;stroke-width:1px;stroke-linecap:butt;stroke-linejoin:miter;stroke-opacity:1;marker-end:url(#Arrow2Lend)" id="path4596-1-3" d="m 366.67199,321.83919 79.19142,0"/><path style="fill:none;stroke:#000;stroke-width:.99999994px;stroke-linecap:butt;stroke-linejoin:miter;stroke-opacity:1;marker-end:url(#Arrow2Lend)" id="path4596-1-3-2" d="m 372.96935,478.72034 56.53217,0"/><path style="fill:none;stroke:#000;stroke-width:.99999994px;stroke-linecap:butt;stroke-linejoin:miter;stroke-opacity:1;marker-end:url(#Arrow2Lend)" id="path4596-1-3-2-9" d="m 373.27487,571.15303 84.94818,0"/><path style="fill:none;stroke:#000;stroke-width:1px;stroke-linecap:butt;stroke-linejoin:miter;stroke-opacity:1;marker-end:url(#Arrow2Lend)" id="path4596-7-9" d="m 291.69655,523.61506 0,26.3722"/><path style="fill:none;stroke:#000;stroke-width:1px;stroke-linecap:butt;stroke-linejoin:miter;stroke-opacity:1;marker-start:url(#Arrow2Lstart);marker-end:url(#Arrow2Lend)" id="path4596-1-3-9" d="m 121.18964,215.11041 90.94563,0"/><path style="fill:none;stroke:#000;stroke-width:1px;stroke-linecap:butt;stroke-linejoin:miter;stroke-opacity:1;marker-start:url(#Arrow2Lstart);marker-end:url(#Arrow2Lend)" id="path4596-1-3-9-9" d="M 120.73642,210.73275 214.22607,97.947914"/><path style="fill:none;stroke:#000;stroke-width:1px;stroke-linecap:butt;stroke-linejoin:miter;stroke-opacity:1;marker-end:url(#Arrow2Lend)" id="path4596-1-3-4" d="m 119.41547,218.80642 106.32762,70.80852"/><path style="fill:none;stroke:#000;stroke-width:1;stroke-miterlimit:4;stroke-opacity:1;stroke-dashoffset:0;marker-end:url(#Arrow2Lend-1)" id="rect5774" d="m 255.4428,405.01124 -70.75645,0 0,126.89959 104.75645,0"/><path style="fill:none;stroke:#000;stroke-width:1;stroke-miterlimit:4;stroke-opacity:1;stroke-dashoffset:0;marker-end:url(#Arrow2Lend-1)" id="rect5774-1" d="m 327.42324,137.27454 70.75645,0 0,130.89959 -104.75645,0"/><path style="fill:none;stroke:#000;stroke-width:1px;stroke-linecap:butt;stroke-linejoin:miter;stroke-opacity:1;marker-end:url(#Arrow2Lend-1-6)" id="path6017" d="M 459.69356,256.35107 356.79809,290.5477"/><path style="fill:none;stroke:#000;stroke-width:1px;stroke-linecap:butt;stroke-linejoin:miter;stroke-opacity:1;marker-end:url(#Arrow2Lend-1-6)" id="path6017-3" d="m 449.84239,354.00854 -76.838,95.35899"/><path style="fill:none;stroke:#000;stroke-width:1px;stroke-linecap:butt;stroke-linejoin:miter;stroke-opacity:1;marker-end:url(#Arrow2Lend-1-6)" id="path6017-3-8" d="M 456.8343,359.38127 370.07592,546.46615"/><path style="fill:none;stroke:#000;stroke-width:1px;stroke-linecap:butt;stroke-linejoin:miter;stroke-opacity:1;marker-end:url(#Arrow2Lend-1-6);display:inline" id="path6017-3-0" d="M 100.49427,230.62118 214.64454,548.15782"/><path style="fill:none;stroke:#000;stroke-width:1px;stroke-linecap:butt;stroke-linejoin:miter;stroke-opacity:1;marker-end:url(#Arrow2Lend-1-6);display:inline" id="path6017-3-0-7" d="M 95.536492,246.63398 209.68676,569.25866"/></g></svg>