<svg xmlns="http://www.w3.org/2000/svg" xmlns:svg="http://www.w3.org/2000/svg" id="svg2" width="600" height="170" version="1.1"><metadata id="metadata7"/><g id="layer2" style="display:inline"><rect style="fill:#fff;fill-opacity:1;stroke:#000;stroke-width:1;stroke-miterlimit:4;stroke-opacity:1;stroke-dasharray:none;stroke-dashoffset:0" id="rect3070" width="82.805" height="50.751" x="150.474" y="23.978"/><rect style="fill:#fff;fill-opacity:1;stroke:#000;stroke-width:1;stroke-miterlimit:4;stroke-opacity:1;stroke-dasharray:none;stroke-dashoffset:0" id="rect3070-6" width="82.805" height="50.751" x="478.577" y="23.978"/><path style="fill:#fff;fill-opacity:1;stroke:#000;stroke-width:1;stroke-miterlimit:4;stroke-opacity:1;stroke-dasharray:none;stroke-dashoffset:0" id="rect3070-1" d="m 290.69704,24.854788 0,20.9375 -31.15625,0 0,28.9375 82.8125,0 0,-49.875 -51.65625,0 z"/><path style="fill:#fff;fill-opacity:1;stroke:#000;stroke-width:1;stroke-miterlimit:4;stroke-opacity:1;stroke-dasharray:none;stroke-dashoffset:0" id="rect3116" d="m 67.675844,41.992274 c 0,4.439414 -4.421479,6.925014 -9.354161,6.925014 -21.438677,0.373651 -23.427512,-1.630571 -23.15625,16.9375 0,4.93268 3.973568,8.875 8.90625,8.875 l 64.093757,0 c 4.93268,0 8.90625,-3.94232 8.90625,-8.875 l 0,-29.40625 c 0,-4.932682 -3.97357,-8.90625 -8.90625,-8.90625 -35.468805,-0.598929 -41.158603,-1.77138 -40.489596,14.449986 z"/><text style="font-size:12px;font-style:normal;font-variant:normal;font-weight:400;font-stretch:normal;text-align:center;line-height:125%;letter-spacing:0;word-spacing:0;writing-mode:lr-tb;text-anchor:middle;fill:#000;fill-opacity:1;stroke:none;font-family:DejaVu Sans;-inkscape-font-specification:DejaVu Sans" id="text3141" x="75.926" y="97.88" xml:space="preserve"><tspan id="tspan3145" x="75.926" y="97.88">actual key</tspan><tspan id="tspan3147" x="75.926" y="112.88">surface</tspan></text><text style="font-size:12px;font-style:normal;font-variant:normal;font-weight:400;font-stretch:normal;text-align:center;line-height:125%;letter-spacing:0;word-spacing:0;writing-mode:lr-tb;text-anchor:middle;fill:#000;fill-opacity:1;stroke:none;font-family:DejaVu Sans;-inkscape-font-specification:DejaVu Sans" id="text3141-1" x="191.835" y="97.88" xml:space="preserve"><tspan id="tspan3147-3" x="191.835" y="97.88">approximate</tspan><tspan id="tspan3175" x="191.835" y="112.88">outline</tspan></text><text style="font-size:12px;font-style:normal;font-variant:normal;font-weight:400;font-stretch:normal;text-align:center;line-height:125%;letter-spacing:0;word-spacing:0;writing-mode:lr-tb;text-anchor:middle;fill:#000;fill-opacity:1;stroke:none;font-family:DejaVu Sans;-inkscape-font-specification:DejaVu Sans" id="text3141-1-0" x="300.581" y="97.88" xml:space="preserve"><tspan id="tspan3175-4" x="300.581" y="97.88">primary</tspan><tspan id="tspan3203" x="300.581" y="112.88">outline</tspan></text><text style="font-size:12px;font-style:normal;font-variant:normal;font-weight:400;font-stretch:normal;text-align:center;line-height:125%;letter-spacing:0;word-spacing:0;writing-mode:lr-tb;text-anchor:middle;fill:#000;fill-opacity:1;stroke:none;font-family:DejaVu Sans;-inkscape-font-specification:DejaVu Sans" id="text3141-1-0-5" x="410.987" y="97.88" xml:space="preserve"><tspan id="tspan3203-2" x="410.987" y="97.88">detailed</tspan><tspan id="tspan3231" x="410.987" y="112.88">outline</tspan></text><text style="font-size:12px;font-style:normal;font-variant:normal;font-weight:400;font-stretch:normal;text-align:center;line-height:125%;letter-spacing:0;word-spacing:0;writing-mode:lr-tb;text-anchor:middle;fill:#000;fill-opacity:1;stroke:none;font-family:DejaVu Sans;-inkscape-font-specification:DejaVu Sans" id="text3141-1-0-5-4" x="519.979" y="97.88" xml:space="preserve"><tspan id="tspan3231-9" x="519.979" y="97.88">bounding</tspan><tspan id="tspan3259" x="519.979" y="112.88">box</tspan></text><path style="fill:#fff;fill-opacity:1;stroke:#000;stroke-width:1;stroke-miterlimit:4;stroke-opacity:1;stroke-dasharray:none;stroke-dashoffset:0" id="rect3116-9" d="m 402.3416,41.992274 c 0,4.439414 -4.42148,6.925014 -9.35416,6.925014 -21.43868,0.373651 -23.42751,-1.630571 -23.15625,16.9375 0,4.93268 3.97357,8.875 8.90625,8.875 l 64.09376,0 c 4.93268,0 8.90625,-3.94232 8.90625,-8.875 l 0,-29.40625 c 0,-4.932682 -3.97357,-8.90625 -8.90625,-8.90625 -35.46881,-0.598929 -41.15861,-1.77138 -40.4896,14.449986 z"/><text style="font-size:12px;font-style:normal;font-variant:normal;font-weight:400;font-stretch:normal;text-align:center;line-height:125%;letter-spacing:0;word-spacing:0;writing-mode:lr-tb;text-anchor:middle;fill:#000;fill-opacity:1;stroke:none;font-family:DejaVu Sans;-inkscape-font-specification:DejaVu Sans" id="text3141-1-0-5-4-4" x="296.957" y="145.269" xml:space="preserve"><tspan id="tspan3259-8" x="296.957" y="145.269">outline array</tspan></text><path style="fill:none;stroke:#000;stroke-width:1px;stroke-linecap:butt;stroke-linejoin:miter;stroke-opacity:1" id="path3307" d="m 141.53981,130.22552 0,11.46652 102.48199,0"/><path style="fill:none;stroke:#000;stroke-width:1px;stroke-linecap:butt;stroke-linejoin:miter;stroke-opacity:1" id="path3307-1" d="m 451.85241,130.22552 0,11.46652 -102.48199,0"/></g></svg>