<svg xmlns="http://www.w3.org/2000/svg" xmlns:svg="http://www.w3.org/2000/svg" id="svg2" width="55" height="55" version="1.0" xml:space="preserve"><title>X Window System Logo</title><metadata/><g><path d="M 440,440 350,440 0,0 90,0" transform="matrix(0.1,0,0,-0.1,0,50)" style="fill:#000;fill-opacity:1;fill-rule:nonzero;stroke:none"/><path d="m 40,0 180,220 50,0 L 90,0 40,0 z m 360,440 -180,-220 -50,0 180,220" transform="matrix(0.1,0,0,-0.1,0,50)" style="fill:#fff;fill-opacity:1;fill-rule:nonzero;stroke:none"/><path d="M 0,440 110,440 440,0 330,0" transform="matrix(0.1,0,0,-0.1,0,50)" style="fill:#000;fill-opacity:1;fill-rule:nonzero;stroke:none"/><path d="M 400,440 390,440 40,0 50,0" transform="matrix(0.1,0,0,-0.1,0,50)" style="fill:#fff;fill-opacity:1;fill-rule:nonzero;stroke:none"/></g></svg>