<svg xmlns="http://www.w3.org/2000/svg" xmlns:svg="http://www.w3.org/2000/svg" id="svg2" width="540.322" height="530.981" version="1.1"><defs id="defs4"><marker id="Arrow1Lend" orient="auto" refX="0" refY="0" style="overflow:visible"><path id="path3656" d="M 0,0 5,-5 -12.5,0 5,5 0,0 z" transform="matrix(-0.8,0,0,-0.8,-10,0)" style="fill-rule:evenodd;stroke:#000;stroke-width:1pt;marker-start:none"/></marker><marker id="Arrow1Lend-8" orient="auto" refX="0" refY="0" style="overflow:visible"><path id="path3656-9" d="M 0,0 5,-5 -12.5,0 5,5 0,0 z" transform="matrix(-0.8,0,0,-0.8,-10,0)" style="fill-rule:evenodd;stroke:#000;stroke-width:1pt;marker-start:none"/></marker><marker id="Arrow1Lend-6" orient="auto" refX="0" refY="0" style="overflow:visible"><path id="path3656-3" d="M 0,0 5,-5 -12.5,0 5,5 0,0 z" transform="matrix(-0.8,0,0,-0.8,-10,0)" style="fill-rule:evenodd;stroke:#000;stroke-width:1pt;marker-start:none"/></marker><marker id="Arrow1Lend-2" orient="auto" refX="0" refY="0" style="overflow:visible"><path id="path3656-1" d="M 0,0 5,-5 -12.5,0 5,5 0,0 z" transform="matrix(-0.8,0,0,-0.8,-10,0)" style="fill-rule:evenodd;stroke:#000;stroke-width:1pt;marker-start:none"/></marker><marker id="Arrow1Lend-4" orient="auto" refX="0" refY="0" style="overflow:visible"><path id="path3656-91" d="M 0,0 5,-5 -12.5,0 5,5 0,0 z" transform="matrix(-0.8,0,0,-0.8,-10,0)" style="fill-rule:evenodd;stroke:#000;stroke-width:1pt;marker-start:none"/></marker><marker id="Arrow1Lend-3" orient="auto" refX="0" refY="0" style="overflow:visible"><path id="path3656-30" d="M 0,0 5,-5 -12.5,0 5,5 0,0 z" transform="matrix(-0.8,0,0,-0.8,-10,0)" style="fill-rule:evenodd;stroke:#000;stroke-width:1pt;marker-start:none"/></marker><marker id="Arrow1Lend-83" orient="auto" refX="0" refY="0" style="overflow:visible"><path id="path3656-2" d="M 0,0 5,-5 -12.5,0 5,5 0,0 z" transform="matrix(-0.8,0,0,-0.8,-10,0)" style="fill-rule:evenodd;stroke:#000;stroke-width:1pt;marker-start:none"/></marker><marker id="Arrow1Lend-35" orient="auto" refX="0" refY="0" style="overflow:visible"><path id="path3656-5" d="M 0,0 5,-5 -12.5,0 5,5 0,0 z" transform="matrix(-0.8,0,0,-0.8,-10,0)" style="fill-rule:evenodd;stroke:#000;stroke-width:1pt;marker-start:none"/></marker><marker id="Arrow1Lend-20" orient="auto" refX="0" refY="0" style="overflow:visible"><path id="path3656-0" d="M 0,0 5,-5 -12.5,0 5,5 0,0 z" transform="matrix(-0.8,0,0,-0.8,-10,0)" style="fill-rule:evenodd;stroke:#000;stroke-width:1pt;marker-start:none"/></marker></defs><metadata id="metadata7"/><g id="layer1" transform="translate(-78.35714,-45.862183)"><rect style="fill:none;stroke:#000;stroke-opacity:1" id="rect2830" width="451.429" height="38.571" x="128.857" y="46.362" ry="0"/><rect style="fill:none;stroke:#000;stroke-opacity:1" id="rect2832" width="125.714" height="67.143" x="98.571" y="186.076" ry="0"/><rect style="fill:none;stroke:#000;stroke-opacity:1" id="rect2834" width="65.714" height="45.714" x="274.857" y="188.552" ry="0"/><rect style="fill:none;stroke:#000;stroke-width:1.02407026;stroke-opacity:1" id="rect2858" width="133.403" height="48.547" x="274.869" y="235.231" ry="0"/><rect style="fill:none;stroke:#000;stroke-opacity:1" id="rect2860" width="157.143" height="62.857" x="443.714" y="188.934" ry="0"/><rect style="fill:none;stroke:#000;stroke-opacity:1" id="rect2862" width="167.143" height="130" x="78.857" y="387.791" ry="0"/><rect style="fill:none;stroke:#000;stroke-opacity:1" id="rect2862-6" width="167.143" height="130" x="261.571" y="388.505" ry="0"/><rect style="fill:none;stroke:#000;stroke-opacity:1" id="rect2862-9" width="167.143" height="130" x="443.571" y="388.505" ry="0"/><text style="font-size:12px;font-style:normal;font-weight:400;fill:#000;fill-opacity:1;stroke:none;font-family:Bitstream Vera Sans" id="text2897" x="303.857" y="72.885" xml:space="preserve"><tspan id="tspan2899" x="303.857" y="72.885" style="font-size:20px">Application</tspan></text><text style="font-size:12px;font-style:normal;font-weight:400;text-align:center;text-anchor:middle;fill:#000;fill-opacity:1;stroke:none;font-family:Bitstream Vera Sans" id="text2901" x="170.055" y="154.558" xml:space="preserve"><tspan id="tspan2903" x="170.055" y="154.558" style="font-size:16px;text-align:center;text-anchor:middle">&lt;&lt;ANSI/MSE API&gt;&gt;</tspan><tspan id="tspan2905" x="170.055" y="174.558" style="font-size:16px;text-align:center;text-anchor:middle">(X Contrib)</tspan></text><rect style="fill:none;stroke:#000;stroke-opacity:1" id="rect2834-6" width="65.714" height="45.714" x="341.601" y="188.552" ry="0"/><text style="font-size:12px;font-style:normal;font-weight:400;fill:#000;fill-opacity:1;stroke:none;font-family:Bitstream Vera Sans" id="text2929" x="344.008" y="155.161" xml:space="preserve"><tspan id="tspan2931" x="344.008" y="155.161" style="font-size:16px;text-align:center;text-anchor:middle">&lt;&lt;XLib API&gt;&gt;</tspan><tspan id="tspan2933" x="344.008" y="175.161" style="font-size:16px;text-align:center;text-anchor:middle">(X Core)</tspan></text><text style="font-size:12px;font-style:normal;font-weight:400;fill:#000;fill-opacity:1;stroke:none;font-family:Bitstream Vera Sans" id="text2935" x="524.948" y="155.335" xml:space="preserve"><tspan id="tspan2937" x="524.948" y="155.335" style="font-size:16px;text-align:center;text-anchor:middle">&lt;&lt;ANSI/MSE API&gt;&gt;</tspan><tspan id="tspan2939" x="524.948" y="175.335" style="font-size:16px;text-align:center;text-anchor:middle">(X Contrib)</tspan></text><text style="font-size:12px;font-style:normal;font-weight:400;fill:#000;fill-opacity:1;stroke:none;font-family:Bitstream Vera Sans" id="text2941" x="278.008" y="205.319" xml:space="preserve"><tspan id="tspan2943" x="278.008" y="205.319" style="font-size:16px">Input</tspan><tspan id="tspan2945" x="278.008" y="225.319" style="font-size:16px">Method</tspan></text><text style="font-size:12px;font-style:normal;font-weight:400;fill:#000;fill-opacity:1;stroke:none;font-family:Bitstream Vera Sans" id="text2947" x="343.881" y="205.319" xml:space="preserve"><tspan id="tspan2949" x="343.881" y="205.319" style="font-size:16px">Output</tspan><tspan id="tspan2951" x="343.881" y="225.319" style="font-size:16px">Method</tspan></text><text style="font-size:12px;font-style:normal;font-weight:400;fill:#000;fill-opacity:1;stroke:none;font-family:Bitstream Vera Sans" id="text2953" x="280.577" y="253.825" xml:space="preserve"><tspan id="tspan2955" x="280.577" y="253.825" style="font-size:14px">&lt;Locl. Serv. API&gt;</tspan><tspan id="tspan2957" x="280.577" y="271.325" style="font-size:14px">X Locale Object</tspan></text><text style="font-size:12px;font-style:normal;font-weight:400;fill:#000;fill-opacity:1;stroke:none;font-family:Bitstream Vera Sans" id="text2959" x="450.711" y="207.09" xml:space="preserve"><tspan id="tspan2961" x="450.711" y="207.09" style="font-size:16px">C Library</tspan></text><text style="font-size:12px;font-style:normal;font-weight:400;fill:#000;fill-opacity:1;stroke:none;font-family:Bitstream Vera Sans" id="text2963" x="517.043" y="241.714" xml:space="preserve"><tspan id="tspan2965" x="517.043" y="241.714" style="font-size:16px">ANSI impl</tspan></text><text style="font-size:12px;font-style:normal;font-weight:400;fill:#000;fill-opacity:1;stroke:none;font-family:Bitstream Vera Sans" id="text2967" x="104.893" y="419.564" xml:space="preserve"><tspan id="tspan2969" x="104.893" y="419.564" style="font-size:16px">XLC_XLOCALE</tspan><tspan id="tspan2971" x="104.893" y="439.564" style="font-size:16px">- MB_CUR_MAX</tspan><tspan id="tspan2973" x="104.893" y="459.564" style="font-size:16px">codeset info</tspan><tspan id="tspan2975" x="104.893" y="479.564" style="font-size:16px">o char/charset</tspan><tspan id="tspan2977" x="104.893" y="499.564" style="font-size:16px">o conv/charset</tspan></text><text style="font-size:12px;font-style:normal;font-weight:400;fill:#000;fill-opacity:1;stroke:none;font-family:Bitstream Vera Sans" id="text2979" x="290.688" y="414.078" xml:space="preserve"><tspan id="tspan2981" x="290.688" y="414.078" style="font-size:16px">XLC_FONTSET</tspan><tspan id="tspan2983" x="290.688" y="434.078" style="font-size:16px">- fontset info</tspan><tspan id="tspan2985" x="290.688" y="454.078" style="font-size:16px">- charset info</tspan><tspan id="tspan2987" x="290.688" y="474.078" style="font-size:16px">- font/charset</tspan><tspan id="tspan2989" x="290.688" y="494.078" style="font-size:16px">- XLFD,GL/GR</tspan></text><text style="font-size:12px;font-style:normal;font-weight:400;fill:#000;fill-opacity:1;stroke:none;font-family:Bitstream Vera Sans" id="text2991" x="469.399" y="416.078" xml:space="preserve"><tspan id="tspan2993" x="469.399" y="416.078" style="font-size:16px">localedef DB</tspan><tspan id="tspan2995" x="469.399" y="436.078" style="font-size:16px">- MB_CUR_MAX</tspan><tspan id="tspan2997" x="469.399" y="456.078" style="font-size:16px">- codset info</tspan><tspan id="tspan2999" x="469.399" y="476.078" style="font-size:16px">o char/charset</tspan><tspan id="tspan3001" x="469.399" y="496.078" style="font-size:16px">o conv/charset</tspan></text><text style="font-size:12px;font-style:normal;font-weight:400;fill:#000;fill-opacity:1;stroke:none;font-family:Bitstream Vera Sans" id="text3026" x="106.838" y="204.347" xml:space="preserve"><tspan id="tspan3028" x="106.838" y="204.347" style="font-size:16px">Locale Library</tspan></text><text style="font-size:12px;font-style:normal;font-weight:400;fill:#000;fill-opacity:1;stroke:none;font-family:Bitstream Vera Sans" id="text3032" x="105.692" y="229.714" xml:space="preserve"><tspan id="tspan3034" x="105.692" y="229.714" style="font-size:16px">non-ANSI impl.</tspan></text><path style="fill:none;stroke:#000;stroke-width:1px;stroke-linecap:butt;stroke-linejoin:miter;stroke-opacity:1" id="path4322" d="m 204.87737,342.20444 c 101.81022,0 101.81022,0 101.81022,0"/><path style="fill:none;stroke:#000;stroke-width:1px;stroke-linecap:butt;stroke-linejoin:miter;stroke-opacity:1" id="path4322-3" d="m 378.16996,341.36655 c 101.81022,0 101.81022,0 101.81022,0"/><path style="fill:none;stroke:#000;stroke-width:1px;stroke-linecap:butt;stroke-linejoin:miter;stroke-opacity:1" id="path4346" d="m 306.17376,342.94753 c 34.5652,-34.5652 33.93674,-33.93675 33.93674,-33.93675"/><path style="fill:none;stroke:#000;stroke-width:1px;stroke-linecap:butt;stroke-linejoin:miter;stroke-opacity:1" id="path4348" d="M 379.58874,342.20444 C 343.13816,305.75387 342.50971,305.12541 342.50971,305.12541"/><path style="fill:none;stroke:#000;stroke-width:1px;stroke-linecap:butt;stroke-linejoin:miter;stroke-opacity:1" id="path4350" d="m 81.699563,531.99881 c 16.339913,16.33991 16.339913,16.33991 16.339913,16.33991 312.972174,0 312.972174,0 312.972174,0"/><path style="fill:none;stroke:#000;stroke-width:1px;stroke-linecap:butt;stroke-linejoin:miter;stroke-opacity:1" id="path4352" d="M 411.01165,547.08181 426.7231,531.37035"/><path style="fill:none;stroke:#000;stroke-width:1px;stroke-linecap:butt;stroke-linejoin:miter;stroke-opacity:1" id="path4354" d="m 442.43456,533.25573 c 10.13348,17.55171 10.67774,18.49439 10.67774,18.49439 l 142.66605,0 0,-2.15448 13.82608,-13.82608"/><text style="font-size:12px;font-style:normal;font-weight:400;fill:#000;fill-opacity:1;stroke:none;font-family:Bitstream Vera Sans" id="text4356" x="170.253" y="574.734" xml:space="preserve"><tspan id="tspan4358" x="170.253" y="574.734" style="font-size:16px">XLocale Source (X Core)</tspan></text><text style="font-size:12px;font-style:normal;font-weight:400;fill:#000;fill-opacity:1;stroke:none;font-family:Bitstream Vera Sans" id="text4360" x="443.344" y="572.22" xml:space="preserve"><tspan id="tspan4362" x="443.344" y="572.22" style="font-size:16px">System Locale Source</tspan></text><path style="fill:none;stroke:#000;stroke-width:1px;stroke-linecap:butt;stroke-linejoin:miter;stroke-opacity:1;marker-end:url(#Arrow1Lend-20)" id="path3948" d="m 46.505905,206.69672 1.256917,131.97622" transform="translate(78.35714,45.862183)"/><path style="fill:none;stroke:#000;stroke-width:1px;stroke-linecap:butt;stroke-linejoin:miter;stroke-opacity:1;marker-end:url(#Arrow1Lend-20)" id="path3950" d="m 482.65588,204.18289 0,135.74696" transform="translate(78.35714,45.862183)"/><path style="fill:none;stroke:#000;stroke-width:1px;stroke-linecap:butt;stroke-linejoin:miter;stroke-opacity:1;marker-start:none;marker-end:url(#Arrow1Lend-20)" id="path3952" d="m 110.60864,39.526842 0,43.992073" transform="translate(78.35714,45.862183)"/><path style="fill:none;stroke:#000;stroke-width:1px;stroke-linecap:butt;stroke-linejoin:miter;stroke-opacity:1;marker-start:none;marker-end:url(#Arrow1Lend-20)" id="path3954" d="m 218.70345,38.269926 0,43.992073" transform="translate(78.35714,45.862183)"/><path style="fill:none;stroke:#000;stroke-width:1px;stroke-linecap:butt;stroke-linejoin:miter;stroke-opacity:1;marker-start:none;marker-end:url(#Arrow1Lend-20)" id="path3956" d="m 290.34768,38.269926 0,43.992073" transform="translate(78.35714,45.862183)"/><path style="fill:none;stroke:#000;stroke-width:1px;stroke-linecap:butt;stroke-linejoin:miter;stroke-opacity:1;marker-end:url(#Arrow1Lend-20)" id="path3958" d="m 400.95632,34.499177 0,46.505905" transform="translate(78.35714,45.862183)"/><path style="fill:none;stroke:#000;stroke-width:1px;stroke-linecap:butt;stroke-linejoin:miter;stroke-opacity:1;marker-end:url(#Arrow1Lend-20)" id="path4960" d="m 124.43472,293.42395 -1.25692,45.24899" transform="translate(78.35714,45.862183)"/><path style="fill:none;stroke:#000;stroke-width:1px;stroke-linecap:butt;stroke-linejoin:miter;stroke-opacity:1;marker-end:url(#Arrow1Lend-20)" id="path4962" d="m 395.92865,292.16703 0,49.01974" transform="translate(78.35714,45.862183)"/><path style="fill:none;stroke:#000;stroke-width:1px;stroke-linecap:butt;stroke-linejoin:miter;stroke-opacity:1;marker-end:url(#Arrow1Lend-20);opacity:1" id="path4964" d="m 258.92477,238.11963 1.25692,99.29639" transform="translate(78.35714,45.862183)"/></g></svg>