<svg xmlns="http://www.w3.org/2000/svg" xmlns:svg="http://www.w3.org/2000/svg" id="svg4341" width="502.634" height="290.443" version="1.1"><defs id="defs4343"><marker id="Arrow1Lend" orient="auto" refX="0" refY="0" style="overflow:visible"><path id="path3695" d="M 0,0 5,-5 -12.5,0 5,5 0,0 z" transform="matrix(-0.8,0,0,-0.8,-10,0)" style="fill-rule:evenodd;stroke:#000;stroke-width:1pt;marker-start:none"/></marker><marker id="marker4278" orient="auto" refX="0" refY="0" style="overflow:visible"><path id="path4280" d="M 0,0 5,-5 -12.5,0 5,5 0,0 z" transform="matrix(-0.8,0,0,-0.8,-10,0)" style="fill-rule:evenodd;stroke:#000;stroke-width:1pt;marker-start:none"/></marker><marker id="marker4282" orient="auto" refX="0" refY="0" style="overflow:visible"><path id="path4284" d="M 0,0 5,-5 -12.5,0 5,5 0,0 z" transform="matrix(-0.8,0,0,-0.8,-10,0)" style="fill-rule:evenodd;stroke:#000;stroke-width:1pt;marker-start:none"/></marker><marker id="marker4286" orient="auto" refX="0" refY="0" style="overflow:visible"><path id="path4288" d="M 0,0 5,-5 -12.5,0 5,5 0,0 z" transform="matrix(-0.8,0,0,-0.8,-10,0)" style="fill-rule:evenodd;stroke:#000;stroke-width:1pt;marker-start:none"/></marker><marker id="marker4290" orient="auto" refX="0" refY="0" style="overflow:visible"><path id="path4292" d="M 0,0 5,-5 -12.5,0 5,5 0,0 z" transform="matrix(-0.8,0,0,-0.8,-10,0)" style="fill-rule:evenodd;stroke:#000;stroke-width:1pt;marker-start:none"/></marker><marker id="marker4294" orient="auto" refX="0" refY="0" style="overflow:visible"><path id="path4296" d="M 0,0 5,-5 -12.5,0 5,5 0,0 z" transform="matrix(-0.8,0,0,-0.8,-10,0)" style="fill-rule:evenodd;stroke:#000;stroke-width:1pt;marker-start:none"/></marker><marker id="Arrow1Lend-3" orient="auto" refX="0" refY="0" style="overflow:visible"><path id="path3695-7" d="M 0,0 5,-5 -12.5,0 5,5 0,0 z" transform="matrix(-0.8,0,0,-0.8,-10,0)" style="fill-rule:evenodd;stroke:#000;stroke-width:1pt;marker-start:none"/></marker><marker id="Arrow1Lend-31" orient="auto" refX="0" refY="0" style="overflow:visible"><path id="path3695-4" d="M 0,0 5,-5 -12.5,0 5,5 0,0 z" transform="matrix(-0.8,0,0,-0.8,-10,0)" style="fill-rule:evenodd;stroke:#000;stroke-width:1pt;marker-start:none"/></marker><marker id="Arrow1Lend-8" orient="auto" refX="0" refY="0" style="overflow:visible"><path id="path3695-9" d="M 0,0 5,-5 -12.5,0 5,5 0,0 z" transform="matrix(-0.8,0,0,-0.8,-10,0)" style="fill-rule:evenodd;stroke:#000;stroke-width:1pt;marker-start:none"/></marker></defs><metadata id="metadata4346"/><g id="layer1" transform="translate(-12.019684,-34.647186)"><text style="font-size:12px;font-style:normal;font-weight:400;fill:#000;fill-opacity:1;stroke:none;font-family:Bitstream Vera Sans" id="text2816" x="110.842" y="43.764" xml:space="preserve"><tspan id="tspan2818" x="110.842" y="43.764">IM Library</tspan></text><text style="font-size:12px;font-style:normal;font-weight:400;fill:#000;fill-opacity:1;stroke:none;font-family:Bitstream Vera Sans" id="text2820" x="353.128" y="44.336" xml:space="preserve"><tspan id="tspan2822" x="353.128" y="44.336">IM Server</tspan></text><text style="font-size:12px;font-style:normal;font-weight:400;fill:#000;fill-opacity:1;stroke:none;font-family:Bitstream Vera Sans" id="text2824" x="10.842" y="94.336" xml:space="preserve"><tspan id="tspan2826" x="10.842" y="94.336">Keys in the on-key-list</tspan></text><text style="font-size:12px;font-style:normal;font-weight:400;fill:#000;fill-opacity:1;stroke:none;font-family:Bitstream Vera Sans" id="text2844" x="183.699" y="132.336" xml:space="preserve"><tspan id="tspan2846" x="183.699" y="132.336">XIM_EXT_SET_EVENT_MASK</tspan></text><text style="font-size:12px;font-style:normal;font-weight:400;fill:#000;fill-opacity:1;stroke:none;font-family:Bitstream Vera Sans" id="text2848" x="197.687" y="144.621" xml:space="preserve"><tspan id="tspan2850" x="197.687" y="144.621" style="font-size:10px">intercept-event-mask is set</tspan></text><text style="font-size:12px;font-style:normal;font-weight:400;fill:#000;fill-opacity:1;stroke:none;font-family:Bitstream Vera Sans" id="text2852" x="183.699" y="260.907" xml:space="preserve"><tspan id="tspan2854" x="183.699" y="260.907">XIM_EXT_SET_EVENT_MASK</tspan></text><text style="font-size:12px;font-style:normal;font-weight:400;fill:#000;fill-opacity:1;stroke:none;font-family:Bitstream Vera Sans" id="text2856" x="205.543" y="274.05" xml:space="preserve"><tspan id="tspan2858" x="205.543" y="274.05" style="font-size:10px">select-event-mask is set</tspan></text><path style="fill:none;stroke:#000;stroke-width:1.05025411px;stroke-linecap:butt;stroke-linejoin:miter;stroke-opacity:1" id="path2882" d="m 172.27052,49.53018 c 0,264.72805 0,274.18271 0,274.18271"/><path style="fill:none;stroke:#000;stroke-width:1.05972767px;stroke-linecap:butt;stroke-linejoin:miter;stroke-opacity:1" id="path2884" d="m 357.98481,51.82588 c 0,274.33848 0,272.73413 0,272.73413"/><path style="fill:none;stroke:#000;stroke-width:1px;stroke-linecap:butt;stroke-linejoin:miter;stroke-opacity:1;marker-start:none;marker-end:url(#Arrow1Lend)" id="path2886" d="m 83.6991,98.05008 79.99999,0"/><path style="fill:none;stroke:#000;stroke-width:1px;stroke-linecap:butt;stroke-linejoin:miter;stroke-opacity:1;marker-end:url(#Arrow1Lend)" id="path2888" d="m 183.69909,103.76437 162.85715,1.42857"/><path style="fill:none;stroke:#000;stroke-width:1px;stroke-linecap:butt;stroke-linejoin:miter;stroke-opacity:1;marker-end:url(#Arrow1Lend)" id="path2890" d="m 343.69909,115.19294 -160,1.42857"/><text style="font-size:12px;font-style:normal;font-weight:400;fill:#000;fill-opacity:1;stroke:none;font-family:Bitstream Vera Sans" id="text2854" x="193.448" y="96.264" xml:space="preserve"><tspan id="tspan2856" x="193.448" y="96.264">XIM_TRIGGER_NOTIFY</tspan></text><path style="fill:none;stroke:#000;stroke-width:1px;stroke-linecap:butt;stroke-linejoin:miter;stroke-opacity:1;marker-end:url(#Arrow1Lend)" id="path3892" d="m 339.16254,235.97868 -150,-1.42858"/><path style="fill:none;stroke:#000;stroke-width:1px;stroke-linecap:butt;stroke-linejoin:miter;stroke-opacity:1;marker-end:url(#Arrow1Lend)" id="path3894" d="m 443.16254,227.40725 -68.57143,-1.42857"/><text style="font-size:12px;font-style:normal;font-weight:400;fill:#000;fill-opacity:1;stroke:none;font-family:Bitstream Vera Sans" id="text4489" x="28.571" y="148.219" xml:space="preserve"><tspan id="tspan4491" x="28.571" y="148.219">the specified events</tspan><tspan id="tspan4493" x="28.571" y="163.219">are being filtered</tspan></text><text style="font-size:12px;font-style:normal;font-weight:400;fill:#000;fill-opacity:1;stroke:none;font-family:Bitstream Vera Sans" id="text4495" x="24.571" y="221.362" xml:space="preserve"><tspan id="tspan4497" x="24.571" y="221.362">Keys in the off-key-list</tspan></text><text style="font-size:12px;font-style:normal;font-weight:400;fill:#000;fill-opacity:1;stroke:none;font-family:Bitstream Vera Sans" id="text4499" x="19.429" y="300.791" xml:space="preserve"><tspan id="tspan4501" x="19.429" y="300.791">the specified events</tspan><tspan id="tspan4503" x="19.429" y="315.791">are being processed</tspan></text><text style="font-size:12px;font-style:normal;font-weight:400;fill:#000;fill-opacity:1;stroke:none;font-family:Bitstream Vera Sans" id="text4505" x="382.571" y="98.648" xml:space="preserve"><tspan id="tspan4507" x="382.571" y="98.648">Keys in the on-key-list</tspan></text><text style="font-size:12px;font-style:normal;font-weight:400;fill:#000;fill-opacity:1;stroke:none;font-family:Bitstream Vera Sans" id="text4513" x="383.427" y="148.219" xml:space="preserve"><tspan id="tspan4515" x="383.427" y="148.219">the specified events</tspan><tspan id="tspan4517" x="383.427" y="163.219">are being processed</tspan></text><text style="font-size:12px;font-style:normal;font-weight:400;fill:#000;fill-opacity:1;stroke:none;font-family:Bitstream Vera Sans" id="text4519" x="382.571" y="221.362" xml:space="preserve"><tspan id="tspan4521" x="382.571" y="221.362">Keys in the off-key-list</tspan></text><text style="font-size:12px;font-style:normal;font-weight:400;fill:#000;fill-opacity:1;stroke:none;font-family:Bitstream Vera Sans" id="text4523" x="383.427" y="300.791" xml:space="preserve"><tspan id="tspan4525" x="383.427" y="300.791">the specified events</tspan><tspan id="tspan4527" x="383.427" y="315.791">are being discarded</tspan></text><path style="fill:none;stroke:#000;stroke-width:1px;stroke-linecap:butt;stroke-linejoin:miter;stroke-opacity:1;marker-end:url(#Arrow1Lend)" id="path3894-2" d="m 436.85714,105.78486 -68.57143,-1.42857"/><path style="fill:none;stroke:#000;stroke-width:1px;stroke-linecap:butt;stroke-linejoin:miter;stroke-opacity:1;marker-start:none;marker-end:url(#Arrow1Lend)" id="path2886-9" d="m 79.14286,230.6479 79.99999,0"/><text style="font-size:12px;font-style:normal;font-weight:400;fill:#000;fill-opacity:1;stroke:none;font-family:Bitstream Vera Sans" id="text2925" x="177.143" y="175.505" xml:space="preserve"><tspan id="tspan2927" x="177.143" y="175.505">XIM_TRIGGER_NOTIFY_REPLY</tspan></text><path style="fill:none;stroke:#000;stroke-width:1px;stroke-linecap:butt;stroke-linejoin:miter;stroke-opacity:1;marker-end:url(#Arrow1Lend)" id="path3892-4" d="m 339.28571,189.37172 -150,-1.42858"/></g></svg>