<svg xmlns="http://www.w3.org/2000/svg" xmlns:svg="http://www.w3.org/2000/svg" id="svg2" width="224.5" height="216.012" version="1.1"><defs id="defs4"><marker id="Arrow1Lstart" orient="auto" refX="0" refY="0" style="overflow:visible"><path id="path3665" d="M 0,0 5,-5 -12.5,0 5,5 0,0 z" transform="matrix(0.8,0,0,0.8,10,0)" style="fill-rule:evenodd;stroke:#000;stroke-width:1pt;marker-start:none"/></marker><marker id="Arrow1Lend" orient="auto" refX="0" refY="0" style="overflow:visible"><path id="path3668" d="M 0,0 5,-5 -12.5,0 5,5 0,0 z" transform="matrix(-0.8,0,0,-0.8,-10,0)" style="fill-rule:evenodd;stroke:#000;stroke-width:1pt;marker-start:none"/></marker><marker id="Arrow2Lend" orient="auto" refX="0" refY="0" style="overflow:visible"><path id="path3686" d="M 8.7185878,4.0337352 -2.2072895,0.01601326 8.7185884,-4.0017078 c -1.7454984,2.3720609 -1.7354408,5.6174519 -6e-7,8.035443 z" transform="matrix(-1.1,0,0,-1.1,-1.1,0)" style="font-size:12px;fill-rule:evenodd;stroke-width:.625;stroke-linejoin:round"/></marker><marker id="Arrow2Mend" orient="auto" refX="0" refY="0" style="overflow:visible"><path id="path3692" d="M 8.7185878,4.0337352 -2.2072895,0.01601326 8.7185884,-4.0017078 c -1.7454984,2.3720609 -1.7354408,5.6174519 -6e-7,8.035443 z" transform="scale(-0.6,-0.6)" style="font-size:12px;fill-rule:evenodd;stroke-width:.625;stroke-linejoin:round"/></marker><marker id="Arrow1Lend-2" orient="auto" refX="0" refY="0" style="overflow:visible"><path id="path3668-0" d="M 0,0 5,-5 -12.5,0 5,5 0,0 z" transform="matrix(-0.8,0,0,-0.8,-10,0)" style="fill-rule:evenodd;stroke:#000;stroke-width:1pt;marker-start:none"/></marker><marker id="Arrow1Lend-1" orient="auto" refX="0" refY="0" style="overflow:visible"><path id="path3668-6" d="M 0,0 5,-5 -12.5,0 5,5 0,0 z" transform="matrix(-0.8,0,0,-0.8,-10,0)" style="fill-rule:evenodd;stroke:#000;stroke-width:1pt;marker-start:none"/></marker><marker id="Arrow1Lend-14" orient="auto" refX="0" refY="0" style="overflow:visible"><path id="path3668-7" d="M 0,0 5,-5 -12.5,0 5,5 0,0 z" transform="matrix(-0.8,0,0,-0.8,-10,0)" style="fill-rule:evenodd;stroke:#000;stroke-width:1pt;marker-start:none"/></marker></defs><metadata id="metadata7"/><g id="layer1" transform="translate(-4.4747047,45.51725)"><rect style="fill:none;stroke:#000;stroke-width:.31376761;stroke-opacity:1" id="rect2818" width="134.023" height="66.196" x="52.05" y="-17.613" ry="3.807"/><rect style="fill:none;stroke:#000;stroke-width:.32876641;stroke-opacity:1" id="rect2820" width="85.332" height="22.293" x="93.552" y="21.495" ry="3.8"/><rect style="fill:none;stroke:#000;stroke-width:.21471952;stroke-opacity:1" id="rect2861" width="76.669" height="28.791" x="91.899" y="70.911" ry="2.689"/><rect style="fill:none;stroke:#000;stroke-width:.20091781;stroke-opacity:1" id="rect2878" width="72.693" height="24.815" x="63.165" y="119.58" ry="1.818"/><path style="fill:none;stroke:#000;stroke-width:.16700821px;stroke-linecap:butt;stroke-linejoin:miter;stroke-opacity:1;marker-end:url(#Arrow1Lend)" id="path2888-8" d="m 191.35869,-129.09736 0,-20.41139"/><g id="g5177" transform="matrix(0.27928539,0,0,0.27928539,11.337125,-81.727333)"><path id="path2888" d="m 218.57142,720.35677 0,-251.23328" style="fill:none;stroke:#000;stroke-width:1.07757151px;stroke-linecap:butt;stroke-linejoin:miter;stroke-opacity:1;marker-end:url(#Arrow1Lend)"/><path id="path2888-3" d="m 335.37064,546.2675 0,-200.11997" style="fill:none;stroke:#000;stroke-width:.96785825px;stroke-linecap:butt;stroke-linejoin:miter;stroke-opacity:1;marker-start:url(#Arrow1Lstart);marker-end:none"/><path id="path2888-82" d="m 219.2031,466.56824 0,-120.80758" style="fill:none;stroke:#000;stroke-width:.76102072px;stroke-linecap:butt;stroke-linejoin:miter;stroke-opacity:1;marker-end:none"/><path id="path5175" d="m 219.26527,346.32772 116.0432,0.38074" style="fill:none;stroke:#000;stroke-width:1.12434793px;stroke-linecap:butt;stroke-linejoin:miter;stroke-opacity:1;display:inline"/></g><text style="font-size:3.62546563px;font-style:normal;font-weight:400;fill:#000;fill-opacity:1;stroke:none;font-family:Bitstream Vera Sans" id="text2865" x="67.625" y="136.944" xml:space="preserve"><tspan id="tspan2867" x="67.625" y="136.944" style="font-size:14.50186253px">X Server</tspan></text><text style="font-size:3.35142469px;font-style:normal;font-weight:400;fill:#000;fill-opacity:1;stroke:none;font-family:Bitstream Vera Sans" id="text2869" x="17.947" y="107.432" xml:space="preserve"><tspan id="tspan2871" x="17.947" y="107.432" style="font-size:6.14427853px">Backend Method</tspan><tspan style="font-size:6.14427853px" id="tspan2873" x="17.947" y="115.113">(Core)</tspan></text><text style="font-size:3.35142469px;font-style:normal;font-weight:400;fill:#000;fill-opacity:1;stroke:none;font-family:Bitstream Vera Sans" id="text2875" x="130.795" y="107.074" xml:space="preserve"><tspan id="tspan2877" x="130.795" y="107.074" style="font-size:6.14427853px">Frontend Method</tspan><tspan id="tspan2879" x="130.795" y="114.754" style="font-size:6.14427853px">(Extension)</tspan></text><text style="font-size:3.71718764px;font-style:normal;font-weight:400;fill:#000;fill-opacity:1;stroke:none;font-family:Bitstream Vera Sans" id="text2881" x="94.061" y="91.658" xml:space="preserve"><tspan id="tspan2883" x="94.061" y="91.658" style="font-size:14.86875057px">IM Server</tspan></text><text style="font-size:3.35142469px;font-style:normal;font-weight:400;fill:#000;fill-opacity:1;stroke:none;font-family:Bitstream Vera Sans" id="text2890" x="118.239" y="37.838" xml:space="preserve"><tspan id="tspan2892" x="118.239" y="37.838" style="font-size:13.40569878px">Library</tspan></text><text style="font-size:3.35142469px;font-style:normal;font-weight:400;fill:#000;fill-opacity:1;stroke:none;font-family:Bitstream Vera Sans" id="text2899" x="58.69" y="1.248" xml:space="preserve"><tspan id="tspan2901" x="58.69" y="1.248" style="font-size:13.40569878px">Application</tspan></text></g></svg>