<svg xmlns="http://www.w3.org/2000/svg" xmlns:svg="http://www.w3.org/2000/svg" id="svg2" width="380.646" height="310.492" version="1.1"><defs id="defs4"><marker id="Arrow1Lstart" orient="auto" refX="0" refY="0" style="overflow:visible"><path id="path3946" d="M 0,0 5,-5 -12.5,0 5,5 0,0 z" transform="matrix(0.8,0,0,0.8,10,0)" style="fill-rule:evenodd;stroke:#000;stroke-width:1pt;marker-start:none"/></marker><marker id="Arrow1Lend" orient="auto" refX="0" refY="0" style="overflow:visible"><path id="path3949" d="M 0,0 5,-5 -12.5,0 5,5 0,0 z" transform="matrix(-0.8,0,0,-0.8,-10,0)" style="fill-rule:evenodd;stroke:#000;stroke-width:1pt;marker-start:none"/></marker><marker id="Arrow1Lend-6" orient="auto" refX="0" refY="0" style="overflow:visible"><path id="path3949-6" d="M 0,0 5,-5 -12.5,0 5,5 0,0 z" transform="matrix(-0.8,0,0,-0.8,-10,0)" style="fill-rule:evenodd;stroke:#000;stroke-width:1pt;marker-start:none"/></marker><marker id="Arrow1Lend-1" orient="auto" refX="0" refY="0" style="overflow:visible"><path id="path3949-1" d="M 0,0 5,-5 -12.5,0 5,5 0,0 z" transform="matrix(-0.8,0,0,-0.8,-10,0)" style="fill-rule:evenodd;stroke:#000;stroke-width:1pt;marker-start:none"/></marker><marker id="Arrow1Lend-9" orient="auto" refX="0" refY="0" style="overflow:visible"><path id="path3949-69" d="M 0,0 5,-5 -12.5,0 5,5 0,0 z" transform="matrix(-0.8,0,0,-0.8,-10,0)" style="fill-rule:evenodd;stroke:#000;stroke-width:1pt;marker-start:none"/></marker><marker id="Arrow1Lend-5" orient="auto" refX="0" refY="0" style="overflow:visible"><path id="path3949-4" d="M 0,0 5,-5 -12.5,0 5,5 0,0 z" transform="matrix(-0.8,0,0,-0.8,-10,0)" style="fill-rule:evenodd;stroke:#000;stroke-width:1pt;marker-start:none"/></marker><marker id="Arrow1Lend-52" orient="auto" refX="0" refY="0" style="overflow:visible"><path id="path3949-44" d="M 0,0 5,-5 -12.5,0 5,5 0,0 z" transform="matrix(-0.8,0,0,-0.8,-10,0)" style="fill-rule:evenodd;stroke:#000;stroke-width:1pt;marker-start:none"/></marker><marker id="Arrow1Lend-0" orient="auto" refX="0" refY="0" style="overflow:visible"><path id="path3949-7" d="M 0,0 5,-5 -12.5,0 5,5 0,0 z" transform="matrix(-0.8,0,0,-0.8,-10,0)" style="fill-rule:evenodd;stroke:#000;stroke-width:1pt;marker-start:none"/></marker><marker id="Arrow1Lend-0-8" orient="auto" refX="0" refY="0" style="overflow:visible"><path id="path3949-7-3" d="M 0,0 5,-5 -12.5,0 5,5 0,0 z" transform="matrix(-0.8,0,0,-0.8,-10,0)" style="fill-rule:evenodd;stroke:#000;stroke-width:1pt;marker-start:none"/></marker><marker id="Arrow1Lend-0-9" orient="auto" refX="0" refY="0" style="overflow:visible"><path id="path3949-7-9" d="M 0,0 5,-5 -12.5,0 5,5 0,0 z" transform="matrix(-0.8,0,0,-0.8,-10,0)" style="fill-rule:evenodd;stroke:#000;stroke-width:1pt;marker-start:none"/></marker><marker id="Arrow1Lend-0-9-9" orient="auto" refX="0" refY="0" style="overflow:visible"><path id="path3949-7-9-5" d="M 0,0 5,-5 -12.5,0 5,5 0,0 z" transform="matrix(-0.8,0,0,-0.8,-10,0)" style="fill-rule:evenodd;stroke:#000;stroke-width:1pt;marker-start:none"/></marker><marker id="Arrow1Lend-0-9-1" orient="auto" refX="0" refY="0" style="overflow:visible"><path id="path3949-7-9-1" d="M 0,0 5,-5 -12.5,0 5,5 0,0 z" transform="matrix(-0.8,0,0,-0.8,-10,0)" style="fill-rule:evenodd;stroke:#000;stroke-width:1pt;marker-start:none"/></marker><marker id="Arrow1Lend-0-5" orient="auto" refX="0" refY="0" style="overflow:visible"><path id="path3949-7-5" d="M 0,0 5,-5 -12.5,0 5,5 0,0 z" transform="matrix(-0.8,0,0,-0.8,-10,0)" style="fill-rule:evenodd;stroke:#000;stroke-width:1pt;marker-start:none"/></marker><marker id="Arrow1Lend-0-6" orient="auto" refX="0" refY="0" style="overflow:visible"><path id="path3949-7-7" d="M 0,0 5,-5 -12.5,0 5,5 0,0 z" transform="matrix(-0.8,0,0,-0.8,-10,0)" style="fill-rule:evenodd;stroke:#000;stroke-width:1pt;marker-start:none"/></marker><marker id="Arrow1Lend-0-0" orient="auto" refX="0" refY="0" style="overflow:visible"><path id="path3949-7-39" d="M 0,0 5,-5 -12.5,0 5,5 0,0 z" transform="matrix(-0.8,0,0,-0.8,-10,0)" style="fill-rule:evenodd;stroke:#000;stroke-width:1pt;marker-start:none"/></marker><marker id="Arrow1Lend-0-9-3" orient="auto" refX="0" refY="0" style="overflow:visible"><path id="path3949-7-9-6" d="M 0,0 5,-5 -12.5,0 5,5 0,0 z" transform="matrix(-0.8,0,0,-0.8,-10,0)" style="fill-rule:evenodd;stroke:#000;stroke-width:1pt;marker-start:none"/></marker><marker id="Arrow1Lend-50" orient="auto" refX="0" refY="0" style="overflow:visible"><path id="path3949-64" d="M 0,0 5,-5 -12.5,0 5,5 0,0 z" transform="matrix(-0.8,0,0,-0.8,-10,0)" style="fill-rule:evenodd;stroke:#000;stroke-width:1pt;marker-start:none"/></marker><marker id="Arrow1Lend-4" orient="auto" refX="0" refY="0" style="overflow:visible"><path id="path3949-3" d="M 0,0 5,-5 -12.5,0 5,5 0,0 z" transform="matrix(-0.8,0,0,-0.8,-10,0)" style="fill-rule:evenodd;stroke:#000;stroke-width:1pt;marker-start:none"/></marker><marker id="Arrow1Lend-4-0" orient="auto" refX="0" refY="0" style="overflow:visible"><path id="path3949-3-4" d="M 0,0 5,-5 -12.5,0 5,5 0,0 z" transform="matrix(-0.8,0,0,-0.8,-10,0)" style="fill-rule:evenodd;stroke:#000;stroke-width:1pt;marker-start:none"/></marker></defs><metadata id="metadata7"/><g id="layer1" transform="translate(-47.418246,-76.438428)"><text style="font-size:6.46660471px;font-style:normal;font-weight:400;fill:#000;fill-opacity:1;stroke:none;font-family:Bitstream Vera Sans" id="text2816" x="46.784" y="95.489" xml:space="preserve"><tspan id="tspan2818" x="46.784" y="95.489">Key event</tspan></text><text style="font-size:6.46660471px;font-style:normal;font-weight:400;fill:#000;fill-opacity:1;stroke:none;font-family:Bitstream Vera Sans" id="text2820" x="46.784" y="127.36" xml:space="preserve"><tspan id="tspan2822" x="46.784" y="127.36">Key event</tspan></text><text style="font-size:6.46660471px;font-style:normal;font-weight:400;fill:#000;fill-opacity:1;stroke:none;font-family:Bitstream Vera Sans" id="text2830" x="145.809" y="81.978" xml:space="preserve"><tspan id="tspan2832" x="145.809" y="81.978">Xib API</tspan></text><text style="font-size:6.46660471px;font-style:normal;font-weight:400;fill:#000;fill-opacity:1;stroke:none;font-family:Bitstream Vera Sans" id="text2834" x="235.207" y="81.352" xml:space="preserve"><tspan id="tspan2836" x="235.207" y="81.352">IM library</tspan></text><text style="font-size:6.46660471px;font-style:normal;font-weight:400;fill:#000;fill-opacity:1;stroke:none;font-family:Bitstream Vera Sans" id="text2838" x="133.491" y="93.733" xml:space="preserve"><tspan id="tspan2840" x="133.491" y="93.733">XNextEvent</tspan></text><text style="font-size:6.46660471px;font-style:normal;font-weight:400;fill:#000;fill-opacity:1;stroke:none;font-family:Bitstream Vera Sans" id="text2842" x="133.491" y="101.956" xml:space="preserve"><tspan id="tspan2844" x="133.491" y="101.956">XFilterEvent</tspan></text><text style="font-size:6.46660471px;font-style:normal;font-weight:400;fill:#000;fill-opacity:1;stroke:none;font-family:Bitstream Vera Sans" id="text2846" x="133.491" y="127.987" xml:space="preserve"><tspan id="tspan2848" x="133.491" y="127.987">XNextEvent</tspan></text><text style="font-size:6.46660471px;font-style:normal;font-weight:400;fill:#000;fill-opacity:1;stroke:none;font-family:Bitstream Vera Sans" id="text2850" x="133.491" y="135.059" xml:space="preserve"><tspan id="tspan2852" x="133.491" y="135.059">XFilterEvent</tspan></text><text style="font-size:6.46660471px;font-style:normal;font-weight:400;fill:#000;fill-opacity:1;stroke:none;font-family:Bitstream Vera Sans" id="text2854" x="133.491" y="214.352" xml:space="preserve"><tspan id="tspan2856" x="133.491" y="214.352">XNextEvent</tspan></text><text style="font-size:6.46660471px;font-style:normal;font-weight:400;fill:#000;fill-opacity:1;stroke:none;font-family:Bitstream Vera Sans" id="text2858" x="133.491" y="222.358" xml:space="preserve"><tspan id="tspan2860" x="133.491" y="222.358">XFilterEvent(returns False)</tspan></text><text style="font-size:6.46660471px;font-style:normal;font-weight:400;fill:#000;fill-opacity:1;stroke:none;font-family:Bitstream Vera Sans" id="text2862" x="133.491" y="231.288" xml:space="preserve"><tspan id="tspan2864" x="133.491" y="231.288">XmbLookupString</tspan></text><text style="font-size:6.46660471px;font-style:normal;font-weight:400;fill:#000;fill-opacity:1;stroke:none;font-family:Bitstream Vera Sans" id="text2866" x="131.336" y="156.614" xml:space="preserve"><tspan id="tspan2868" x="131.336" y="156.614">XSetICFocus</tspan></text><path style="fill:none;stroke:#000;stroke-width:.63770252px;stroke-linecap:butt;stroke-linejoin:miter;stroke-opacity:1" id="path2895" d="M 265.78566,87.858954 266.2312,384.03836"/><path style="fill:none;stroke:#000;stroke-width:.68468785px;stroke-linecap:butt;stroke-linejoin:miter;stroke-opacity:1" id="path2897" d="m 350.18414,88.4268 1.48726,298.16174"/><text style="font-size:6.46660471px;font-style:normal;font-weight:400;fill:#000;fill-opacity:1;stroke:none;font-family:Bitstream Vera Sans" id="text2899" x="272.318" y="101.963" xml:space="preserve"><tspan id="tspan2901" x="272.318" y="101.963">XIM_FORWARD_EVENT</tspan></text><text style="font-size:6.46660471px;font-style:normal;font-weight:400;fill:#000;fill-opacity:1;stroke:none;font-family:Bitstream Vera Sans" id="text2903" x="272.318" y="123.193" xml:space="preserve"><tspan id="tspan2905" x="272.318" y="123.193">XIM_FORWARD_EVENT</tspan><tspan id="tspan2907" x="272.318" y="131.276">or XIM_COMMIT</tspan><tspan id="tspan2909" x="272.318" y="139.359">(synchronous)</tspan></text><text style="font-size:6.46660471px;font-style:normal;font-weight:400;fill:#000;fill-opacity:1;stroke:none;font-family:Bitstream Vera Sans" id="text2911" x="272.318" y="160.72" xml:space="preserve"><tspan id="tspan2913" x="272.318" y="160.72">XIM_FORWARD_EVENT</tspan></text><text style="font-size:6.46660471px;font-style:normal;font-weight:400;fill:#000;fill-opacity:1;stroke:none;font-family:Bitstream Vera Sans" id="text2915" x="292.599" y="175.995" xml:space="preserve"><tspan id="tspan2917" x="292.599" y="175.995">XIM_SYNC</tspan></text><text style="font-size:6.46660471px;font-style:normal;font-weight:400;fill:#000;fill-opacity:1;stroke:none;font-family:Bitstream Vera Sans" id="text2919" x="281.206" y="197.769" xml:space="preserve"><tspan id="tspan2921" x="281.206" y="197.769">XIM_SYNC_REPLY</tspan></text><text style="font-size:6.46660471px;font-style:normal;font-weight:400;fill:#000;fill-opacity:1;stroke:none;font-family:Bitstream Vera Sans" id="text2923" x="272.313" y="218.455" xml:space="preserve"><tspan id="tspan2925" x="272.313" y="218.455">XIM_SET_IC_FOCUS is</tspan><tspan id="tspan2927" x="272.313" y="226.538">pend because another </tspan><tspan id="tspan2929" x="272.313" y="234.621">sync cycle is started</tspan><tspan id="tspan2931" x="272.313" y="242.704">by XIM_COMMIT</tspan></text><text style="font-size:6.46660471px;font-style:normal;font-weight:400;fill:#000;fill-opacity:1;stroke:none;font-family:Bitstream Vera Sans" id="text2933" x="277.697" y="260.37" xml:space="preserve"><tspan id="tspan2935" x="277.697" y="260.37">XIM_SET_IC_FOCUS</tspan></text><text style="font-size:6.46660471px;font-style:normal;font-weight:400;fill:#000;fill-opacity:1;stroke:none;font-family:Bitstream Vera Sans" id="text2937" x="272.318" y="302.285" xml:space="preserve"><tspan id="tspan2939" x="272.318" y="302.285">XIM_SYNC_REPLY as</tspan><tspan id="tspan2941" x="272.318" y="310.369">a reply of the </tspan><tspan id="tspan2943" x="272.318" y="318.452">XIM_FORWARD_EVENT</tspan></text><text style="font-size:6.46660471px;font-style:normal;font-weight:400;fill:#000;fill-opacity:1;stroke:none;font-family:Bitstream Vera Sans" id="text2945" x="277.697" y="346.378" xml:space="preserve"><tspan id="tspan2947" x="277.697" y="346.378">XIM_SET_IC_FOCUS</tspan></text><text style="font-size:6.46660471px;font-style:normal;font-weight:400;fill:#000;fill-opacity:1;stroke:none;font-family:Bitstream Vera Sans" id="text2949" x="272.318" y="376.796" xml:space="preserve"><tspan id="tspan2951" x="272.318" y="376.796">XIM_FORWARD_EVENT</tspan></text><text style="font-size:6.46660471px;font-style:normal;font-weight:400;fill:#000;fill-opacity:1;stroke:none;font-family:Bitstream Vera Sans" id="text2953" x="347.379" y="81.921" xml:space="preserve"><tspan id="tspan2955" x="347.379" y="81.921">IM Server</tspan></text><text style="font-size:6.46660471px;font-style:normal;font-weight:400;fill:#000;fill-opacity:1;stroke:none;font-family:Bitstream Vera Sans" id="text2957" x="358.277" y="119.926" xml:space="preserve"><tspan id="tspan2959" x="358.277" y="119.926">synchronous</tspan><tspan id="tspan2961" x="358.277" y="128.01">request</tspan></text><text style="font-size:6.46660471px;font-style:normal;font-weight:400;fill:#000;fill-opacity:1;stroke:none;font-family:Bitstream Vera Sans" id="text2963" x="357.992" y="153.676" xml:space="preserve"><tspan id="tspan2965" x="357.992" y="153.676">Pending</tspan></text><text style="font-size:6.46660471px;font-style:normal;font-weight:400;fill:#000;fill-opacity:1;stroke:none;font-family:Bitstream Vera Sans" id="text2967" x="358.071" y="272.28" xml:space="preserve"><tspan id="tspan2969" x="358.071" y="272.28">processed</tspan><tspan id="tspan2971" x="358.071" y="280.363">(The focused</tspan><tspan id="tspan2973" x="358.071" y="288.447">IC is changed)</tspan></text><text style="font-size:6.46660471px;font-style:normal;font-weight:400;fill:#000;fill-opacity:1;stroke:none;font-family:Bitstream Vera Sans" id="text2975" x="358.04" y="300.108" xml:space="preserve"><tspan id="tspan2977" x="358.04" y="300.108">processed</tspan></text><text style="font-size:6.46660471px;font-style:normal;font-weight:400;fill:#000;fill-opacity:1;stroke:none;font-family:Bitstream Vera Sans" id="text2979" x="358.04" y="332.334" xml:space="preserve"><tspan id="tspan2981" x="358.04" y="332.334">processed</tspan></text><text style="font-size:6.46660471px;font-style:normal;font-weight:400;fill:#000;fill-opacity:1;stroke:none;font-family:Bitstream Vera Sans" id="text2983" x="358.04" y="356.721" xml:space="preserve"><tspan id="tspan2985" x="358.04" y="356.721">processed</tspan></text><path style="fill:none;stroke:#000;stroke-width:.53888369px;stroke-linecap:butt;stroke-linejoin:miter;stroke-opacity:1;marker-end:url(#Arrow1Lend);display:inline" id="path2987" d="m 264.36299,105.03516 79.29289,9.23801"/><path style="fill:none;stroke:#000;stroke-width:.53888369px;stroke-linecap:butt;stroke-linejoin:miter;stroke-opacity:1;marker-end:url(#Arrow1Lend);display:inline" id="path2987-1" d="m 268.13518,142.12302 79.29289,9.23801"/><path style="fill:none;stroke:#000;stroke-width:.53888369px;stroke-linecap:butt;stroke-linejoin:miter;stroke-opacity:1;marker-end:url(#Arrow1Lend);display:inline" id="path2987-1-9" d="m 269.52088,163.9863 79.29289,9.23801"/><path style="fill:none;stroke:#000;stroke-width:.53888369px;stroke-linecap:butt;stroke-linejoin:miter;stroke-opacity:1;marker-end:url(#Arrow1Lend);display:inline" id="path2987-1-9-7" d="m 269.05898,262.06314 79.29289,9.238"/><path style="fill:none;stroke:#000;stroke-width:.53888369px;stroke-linecap:butt;stroke-linejoin:miter;stroke-opacity:1;marker-end:url(#Arrow1Lend);display:inline" id="path2987-1-9-7-2" d="m 270.13675,321.80224 79.29289,9.23801"/><path style="fill:none;stroke:#000;stroke-width:.53888369px;stroke-linecap:butt;stroke-linejoin:miter;stroke-opacity:1;marker-end:url(#Arrow1Lend);display:inline" id="path2987-1-9-7-1" d="m 270.13675,348.74643 79.29289,9.23801"/><path style="fill:none;stroke:#000;stroke-width:.53888369px;stroke-linecap:butt;stroke-linejoin:miter;stroke-opacity:1;marker-end:url(#Arrow1Lend);display:inline" id="path2987-1-9-7-1-2" d="m 269.82882,357.06063 79.29289,9.23801"/><path style="fill:none;stroke:#000;stroke-width:.53888369px;stroke-linecap:butt;stroke-linejoin:miter;stroke-opacity:1;marker-end:url(#Arrow1Lend-0)" id="path4544" d="m 341.34638,128.13018 -71.59455,48.49953"/><text style="font-size:6.46660471px;font-style:normal;font-weight:400;fill:#000;fill-opacity:1;stroke:none;font-family:Bitstream Vera Sans" id="text2866-5" x="133.491" y="264.281" xml:space="preserve"><tspan id="tspan2868-5" x="133.491" y="264.281">XSetICFocus</tspan></text><text style="font-size:6.46660471px;font-style:normal;font-weight:400;fill:#000;fill-opacity:1;stroke:none;font-family:Bitstream Vera Sans" id="text4963" x="214.786" y="171.395" xml:space="preserve"><tspan id="tspan4965" x="214.786" y="171.395">Pending until</tspan><tspan id="tspan4967" x="214.786" y="179.478">sync cycle is </tspan><tspan id="tspan4969" x="214.786" y="187.561">done</tspan></text><text style="font-size:6.46660471px;font-style:normal;font-weight:400;fill:#000;fill-opacity:1;stroke:none;font-family:Bitstream Vera Sans" id="text4971" x="47.27" y="147.684" xml:space="preserve"><tspan id="tspan4973" x="47.27" y="147.684">Button press causes</tspan><tspan id="tspan4975" x="47.27" y="155.767">focus change</tspan></text><text style="font-size:6.46660471px;font-style:normal;font-weight:400;fill:#000;fill-opacity:1;stroke:none;font-family:Bitstream Vera Sans" id="text2820-7" x="58.639" y="305.183" xml:space="preserve"><tspan id="tspan2822-8" x="58.639" y="305.183">Key event</tspan></text><text style="font-size:6.46660471px;font-style:normal;font-weight:400;fill:#000;fill-opacity:1;stroke:none;font-family:Bitstream Vera Sans" id="text2846-4" x="141.036" y="303.5" xml:space="preserve"><tspan id="tspan2848-7" x="141.036" y="303.5">XNextEvent</tspan></text><text style="font-size:6.46660471px;font-style:normal;font-weight:400;fill:#000;fill-opacity:1;stroke:none;font-family:Bitstream Vera Sans" id="text2850-0" x="141.036" y="312.122" xml:space="preserve"><tspan id="tspan2852-5" x="141.036" y="312.122">XFilterEvent</tspan></text><path style="fill:none;stroke:#000;stroke-width:.53888369px;stroke-linecap:butt;stroke-linejoin:miter;stroke-opacity:1;marker-end:url(#Arrow1Lend-0);display:inline" id="path5048" d="M 81.199995,92.94869 124.20402,92.404331"/><path style="fill:none;stroke:#000;stroke-width:.53888369px;stroke-linecap:butt;stroke-linejoin:miter;stroke-opacity:1;marker-end:url(#Arrow1Lend-0);display:inline" id="path5048-6" d="m 83.759014,126.12468 43.004026,-0.54436"/><path style="fill:none;stroke:#000;stroke-width:.47733891px;stroke-linecap:butt;stroke-linejoin:miter;stroke-opacity:1;marker-end:url(#Arrow1Lend-0);display:inline" id="path5048-6-8" d="m 93.961564,154.29857 33.267186,-0.55213"/><path style="fill:none;stroke:#000;stroke-width:.53888369px;stroke-linecap:butt;stroke-linejoin:miter;stroke-opacity:1;marker-end:url(#Arrow1Lend-0-9);display:inline" id="path5302" d="m 174.28465,99.364052 87.64112,4.899188"/><path style="fill:none;stroke:#000;stroke-width:.53888369px;stroke-linecap:butt;stroke-linejoin:miter;stroke-opacity:1;marker-end:url(#Arrow1Lend-0-9)" id="path5302-2" d="m 173.9906,134.66938 87.64111,6.53226"/><path style="fill:none;stroke:#000;stroke-width:.53888369px;stroke-linecap:butt;stroke-linejoin:miter;stroke-opacity:1;marker-end:url(#Arrow1Lend-0-9)" id="path5302-2-7" d="m 173.30399,155.50805 87.64112,6.53226"/><path style="fill:none;stroke:#000;stroke-width:.53888369px;stroke-linecap:butt;stroke-linejoin:miter;stroke-opacity:1;marker-end:url(#Arrow1Lend-0);display:inline" id="path4544-3" d="m 349.43674,176.36427 -78.8013,16.6288"/><path style="fill:none;stroke:#000;stroke-width:.53888369px;stroke-linecap:butt;stroke-linejoin:miter;stroke-opacity:1;marker-end:url(#Arrow1Lend-0);display:inline" id="path4544-3-2" d="m 264.3103,194.20137 -78.8013,16.6288"/><text style="font-size:6.46660471px;font-style:normal;font-weight:400;fill:#000;fill-opacity:1;stroke:none;font-family:Bitstream Vera Sans" id="text5618" x="56.236" y="254.341" xml:space="preserve"><tspan id="tspan5620" x="56.236" y="254.341">Application moves</tspan><tspan id="tspan5622" x="56.236" y="262.424">the focus</tspan></text><path style="fill:none;stroke:#000;stroke-width:.47733891px;stroke-linecap:butt;stroke-linejoin:miter;stroke-opacity:1;marker-start:url(#Arrow1Lstart);marker-end:none;display:inline" id="path5048-6-8-8" d="m 97.227685,228.25112 33.267185,-0.55213"/><path style="fill:none;stroke:#000;stroke-width:.53888369px;stroke-linecap:butt;stroke-linejoin:miter;stroke-opacity:1;marker-end:url(#Arrow1Lend-0-9);display:inline" id="path5302-2-7-2" d="m 180.54474,262.43681 84.64716,-0.31069"/><path style="fill:none;stroke:#000;stroke-width:.53888369px;stroke-linecap:butt;stroke-linejoin:miter;stroke-opacity:1;marker-end:url(#Arrow1Lend);display:inline" id="path2987-1-9-7-1-0" d="m 182.81773,303.5919 78.56369,15.14712"/><path style="fill:none;stroke:#000;stroke-width:.53888369px;stroke-linecap:butt;stroke-linejoin:miter;stroke-opacity:1;marker-end:url(#Arrow1Lend);display:inline" id="path2987-1-9-7-1-0-3" d="m 182.83763,311.31095 79.08814,42.81112"/><path style="fill:none;stroke:#000;stroke-width:.5115177px;stroke-linecap:butt;stroke-linejoin:miter;stroke-opacity:1;marker-end:url(#Arrow1Lend-4)" id="path6164" d="m 258.76887,219.70748 c -40.77117,71.79102 -0.10897,119.38886 0,119.51377 l 2.18035,2.44906"/><path style="fill:none;stroke:#000;stroke-width:.6913743px;stroke-linecap:butt;stroke-linejoin:miter;stroke-opacity:1;marker-end:url(#Arrow1Lend-4)" id="path6164-3" d="m 400.28515,175.83598 c 61.64296,86.74506 0.16474,144.25751 0,144.40845 l -3.84089,2.9592"/><text style="font-size:6.46660471px;font-style:normal;font-weight:400;fill:#000;fill-opacity:1;stroke:none;font-family:Bitstream Vera Sans" id="text6848" x="360.998" y="175.029" xml:space="preserve"><tspan id="tspan6850" x="360.998" y="175.029">Pending</tspan></text></g></svg>